<svg xmlns="http://www.w3.org/2000/svg" viewBox="0 0 312.42 200.9"><defs><style>.cls-1{isolation:isolate;}.cls-13,.cls-16,.cls-19,.cls-2,.cls-3,.cls-34,.cls-38,.cls-39,.cls-43,.cls-45,.cls-6,.cls-8{fill:none;}.cls-2,.cls-3{stroke:#a9c6ea;}.cls-13,.cls-16,.cls-19,.cls-2,.cls-21,.cls-22,.cls-3,.cls-38,.cls-39,.cls-43,.cls-45,.cls-6,.cls-8{stroke-miterlimit:10;}.cls-2,.cls-21,.cls-22,.cls-3,.cls-6,.cls-8{stroke-width:0.47px;}.cls-3{stroke-dasharray:2.37 1.66;}.cls-4{fill:#e4ecf9;}.cls-23,.cls-5{fill:#d7e3f4;}.cls-6{stroke:#fff;}.cls-7{fill:#b2cded;}.cls-21,.cls-22,.cls-8{stroke:#648acc;}.cls-17,.cls-9{fill:#f886bc;}.cls-10{fill:#bf2c4c;}.cls-11{fill:#28364c;}.cls-12{fill:#101d54;}.cls-13{stroke:#273b7a;}.cls-13,.cls-16,.cls-34,.cls-38,.cls-39,.cls-43,.cls-45{stroke-width:0.36px;}.cls-14,.cls-15{fill:#e03b5a;}.cls-15,.cls-17{fill-rule:evenodd;}.cls-16{stroke:#a31d4a;}.cls-18{fill:#0b0b3a;}.cls-19{stroke:#0b0b3a;stroke-width:0.24px;}.cls-19,.cls-29,.cls-34{stroke-linecap:round;}.cls-20,.cls-22{fill:#fff;}.cls-21{fill:#d9e4f4;}.cls-23{opacity:0.45;}.cls-24{fill:#fdd305;}.cls-25{fill:#fe9;}.cls-26{opacity:0.55;mix-blend-mode:multiply;}.cls-27{fill:#ffc043;}.cls-28{fill:#475577;}.cls-29{fill:#ffcd5c;stroke:#ffc043;stroke-width:1.42px;}.cls-29,.cls-34{stroke-linejoin:round;}.cls-30{fill:#648acc;}.cls-31{fill:#f46072;}.cls-32{fill:#0c3656;}.cls-33{fill:#00276f;}.cls-34{stroke:#00276f;}.cls-35{fill:#212237;}.cls-36{fill:#4868ef;}.cls-37{fill:#22252d;}.cls-38{stroke:#474b51;}.cls-39{stroke:#28364c;}.cls-40{fill:#103bb2;}.cls-41{fill:#f2b18f;}.cls-42{fill:#0070e4;}.cls-43{stroke:#0b2e6b;}.cls-44{fill:#d8cac0;}.cls-45{stroke:#846a6a;}</style></defs><g class="cls-1"><g id="レイヤー_2" data-name="レイヤー 2"><g id="OBJECTS"><path class="cls-2" d="M30.52,171.87c-.39-.09-.77-.19-1.15-.3"/><path class="cls-3" d="M27.77,171.11a40.58,40.58,0,0,1-18.83-12c-16.85-20,2.89-45.66,22.53-53.73,9.57-3.94,18.2-8.64,21-19.56,2.69-10.45-4.68-21.36-6.59-31.33C42.07,34.41,60.12,18.89,79.15,18.89c17.55,0,25.45,6.69,42.86,18.35,13.16,8.82,37.87,14,56.86,12.13C201.48,47.15,210,37.24,228,29.18c12.4-5.55,29.69-6.74,41.29,1.49,12.4,8.78,7.69,26,9.1,38.83a23.76,23.76,0,0,0,2.8,9.23c10.16,17.92,31,18.84,31,45.37,0,19.15-30.55,26.73-47,29.23"/><path class="cls-2" d="M264.32,153.45l-1.18.16"/><line class="cls-2" x1="25.77" y1="71.86" x2="32.54" y2="71.86"/><line class="cls-2" x1="32.54" y1="75.63" x2="39.31" y2="75.63"/><line class="cls-2" x1="232.32" y1="42.29" x2="239.09" y2="42.29"/><line class="cls-2" x1="228.03" y1="46.06" x2="234.8" y2="46.06"/><line class="cls-2" x1="238.34" y1="44.26" x2="247.54" y2="44.26"/><line class="cls-2" x1="297.37" y1="122.53" x2="302.24" y2="122.53"/><line class="cls-2" x1="292.96" y1="118.81" x2="299.72" y2="118.81"/><line class="cls-2" x1="73.57" y1="24.02" x2="80.34" y2="24.02"/><line class="cls-2" x1="62.55" y1="105.59" x2="73.68" y2="105.59"/><line class="cls-2" x1="76.03" y1="105.59" x2="81.81" y2="105.59"/><path class="cls-2" d="M206.06,91.39a2.19,2.19,0,1,1-2.19-2.18A2.19,2.19,0,0,1,206.06,91.39Z"/><path class="cls-2" d="M291.92,76.28a2.19,2.19,0,1,1-2.19-2.19A2.19,2.19,0,0,1,291.92,76.28Z"/><path class="cls-2" d="M210.81,29.18A2.19,2.19,0,1,1,208.63,27,2.18,2.18,0,0,1,210.81,29.18Z"/><path class="cls-2" d="M253.5,32.45a1.09,1.09,0,1,1-1.09-1.09A1.09,1.09,0,0,1,253.5,32.45Z"/><path class="cls-2" d="M187.05,114.11A1.09,1.09,0,1,1,186,113,1.09,1.09,0,0,1,187.05,114.11Z"/><path class="cls-2" d="M60.76,36.15a1.09,1.09,0,1,1-1.08-1.08A1.08,1.08,0,0,1,60.76,36.15Z"/><path class="cls-2" d="M11.64,104.07a1.09,1.09,0,0,1-2.17,0,1.09,1.09,0,1,1,2.17,0Z"/><path class="cls-2" d="M65.18,81.8a1.09,1.09,0,1,1-1.09-1.08A1.09,1.09,0,0,1,65.18,81.8Z"/><line class="cls-2" x1="31.64" y1="48.08" x2="31.64" y2="50.65"/><line class="cls-2" x1="32.93" y1="49.37" x2="30.36" y2="49.37"/><line class="cls-2" x1="182.11" y1="13.77" x2="182.11" y2="16.34"/><line class="cls-2" x1="183.4" y1="15.05" x2="180.83" y2="15.05"/><line class="cls-2" x1="263.07" y1="53.54" x2="263.07" y2="56.12"/><line class="cls-2" x1="264.35" y1="54.83" x2="261.78" y2="54.83"/><line class="cls-2" x1="305.12" y1="87.92" x2="305.12" y2="90.5"/><line class="cls-2" x1="306.41" y1="89.21" x2="303.83" y2="89.21"/><line class="cls-2" x1="292.96" y1="133.07" x2="292.96" y2="135.64"/><line class="cls-2" x1="294.24" y1="134.36" x2="291.67" y2="134.36"/><path class="cls-4" d="M219.33,104.57a21.76,21.76,0,0,0,2.82-9.68l-4.58-.64a16.64,16.64,0,0,0-.5-4.52l4.33-1.61a21.65,21.65,0,0,0-4.86-8.84l-3.68,2.79a17.28,17.28,0,0,0-3.55-2.85l1.92-4.2a22.16,22.16,0,0,0-4.68-2,21.77,21.77,0,0,0-5-.83l-.64,4.57a17,17,0,0,0-4.52.5L194.77,73a21.77,21.77,0,0,0-8.83,4.85l2.79,3.69A16.65,16.65,0,0,0,185.88,85l-4.2-1.91a22.3,22.3,0,0,0-2,4.67,22,22,0,0,0-.83,5l4.57.63a17,17,0,0,0,.5,4.52l-4.33,1.62a21.89,21.89,0,0,0,4.86,8.84l3.68-2.79a17.28,17.28,0,0,0,3.55,2.85l-1.91,4.19a20.89,20.89,0,0,0,4.67,2,21.43,21.43,0,0,0,5,.84l.63-4.57a17,17,0,0,0,4.52-.51l1.62,4.33a21.77,21.77,0,0,0,8.83-4.85l-2.78-3.69a16.91,16.91,0,0,0,2.84-3.55Zm-21.87-.22A10.93,10.93,0,1,1,211,96.9,10.93,10.93,0,0,1,197.46,104.35Zm.8-2.76a8.06,8.06,0,1,1,10-5.49A8.06,8.06,0,0,1,198.26,101.59Z"/><path class="cls-4" d="M224,60a10.59,10.59,0,0,0-.51-2.45,11,11,0,0,0-1.06-2.27l-2,1a8,8,0,0,0-1.47-1.7l1.31-1.87a10.76,10.76,0,0,0-4.45-2.23L215,52.7a8,8,0,0,0-2.24-.17l-.4-2.24a10.83,10.83,0,0,0-4.72,1.57l1,2a8.25,8.25,0,0,0-1.7,1.47l-1.87-1.31a10.74,10.74,0,0,0-2.22,4.45l2.16.72a8.37,8.37,0,0,0-.16,2.24l-2.24.4a10.56,10.56,0,0,0,.5,2.45,10.28,10.28,0,0,0,1.07,2.27l2-1a8.55,8.55,0,0,0,1.48,1.69l-1.31,1.87a10.7,10.7,0,0,0,4.45,2.23l.72-2.16a8.35,8.35,0,0,0,2.24.16l.4,2.24a10.67,10.67,0,0,0,2.45-.5A11,11,0,0,0,219,70l-1-2a8.34,8.34,0,0,0,1.7-1.48l1.87,1.31a10.76,10.76,0,0,0,2.23-4.45l-2.17-.72a8.38,8.38,0,0,0,.17-2.24Zm-9.22,5.24a4.54,4.54,0,1,1,2.87-5.75A4.55,4.55,0,0,1,214.74,65.26Z"/><path class="cls-4" d="M111.87,44.65a16.54,16.54,0,0,0-.77-3.76,17,17,0,0,0-1.63-3.47L106.35,39a12.5,12.5,0,0,0-2.25-2.6l2-2.86a16.3,16.3,0,0,0-6.81-3.41l-1.1,3.31a13.07,13.07,0,0,0-3.43-.25l-.61-3.43a16.76,16.76,0,0,0-3.76.77,17,17,0,0,0-3.47,1.63l1.57,3.12a13.36,13.36,0,0,0-2.6,2.25l-2.86-2a16.51,16.51,0,0,0-3.41,6.82l3.32,1.09a12.3,12.3,0,0,0-.25,3.43l-3.44.61A16.25,16.25,0,0,0,80,51.23a16.46,16.46,0,0,0,1.63,3.47l3.11-1.57A12.54,12.54,0,0,0,87,55.73l-2,2.86A16.42,16.42,0,0,0,91.84,62l1.1-3.31a13,13,0,0,0,3.43.25L97,62.37a16.06,16.06,0,0,0,3.75-.78A15.56,15.56,0,0,0,104.2,60l-1.56-3.11a13,13,0,0,0,2.59-2.25l2.87,2a16.48,16.48,0,0,0,3.41-6.81l-3.32-1.09a13.11,13.11,0,0,0,.25-3.43Zm-14.11,8a7,7,0,1,1,4.4-8.8A7,7,0,0,1,97.76,52.66Z"/><path class="cls-4" d="M80.67,70.59a13,13,0,0,0,1.12-2.65,12.13,12.13,0,0,0,.47-2.84l-2.59-.35a10,10,0,0,0-.28-2.57l2.45-.91a12.39,12.39,0,0,0-2.75-5L77,57.84a9.54,9.54,0,0,0-2-1.61l1.09-2.38a12.48,12.48,0,0,0-2.65-1.12,12.3,12.3,0,0,0-2.84-.47l-.36,2.59a10,10,0,0,0-2.56.28l-.91-2.45a12.39,12.39,0,0,0-5,2.75l1.58,2.09a9.54,9.54,0,0,0-1.61,2l-2.38-1.09a12,12,0,0,0-1.12,2.65,11.79,11.79,0,0,0-.47,2.84l2.59.36a9.15,9.15,0,0,0,.28,2.56l-2.45.91a12.27,12.27,0,0,0,2.75,5L63,71.19a9.3,9.3,0,0,0,2,1.61l-1.09,2.38a11.79,11.79,0,0,0,2.65,1.12,11.63,11.63,0,0,0,2.83.47l.36-2.59a9.18,9.18,0,0,0,2.57-.28l.91,2.45a12.27,12.27,0,0,0,5-2.75l-1.58-2.09a9.87,9.87,0,0,0,1.61-2Zm-12.39-.13A6.19,6.19,0,1,1,76,66.24,6.18,6.18,0,0,1,68.28,70.46Zm.45-1.56a4.57,4.57,0,1,1,5.66-3.11A4.56,4.56,0,0,1,68.73,68.9Z"/><path class="cls-5" d="M140.38,200.71c1.45-3,9-16,16.92-20.34a8.63,8.63,0,0,1,3.22-1.17,3.48,3.48,0,0,1,3.09,1.18,3.84,3.84,0,0,1,.51,3c-1.44,8.16-10.74,11.29-15.28,17.32"/><path class="cls-5" d="M140.38,200.66s7.48-14.75,14.77-23.54c3.46-4.16,5.83-11.87,2.2-14.18-5.26-3.34-10.42,4.1-12.79,7.8a77.44,77.44,0,0,0-8.24,18.07c-.29.91-3,11.85-3,11.85h7.09Z"/><path class="cls-6" d="M154.67,167.17c-6.89,8.71-12.61,21.61-16.4,33.49"/><path class="cls-7" d="M124.71,200.66s-.87-22.7-10.92-33.2c-2.71-2.83-7.16-5.78-10.81-6.59-4.73-1-4.61,4.52-3.75,8.13,1.11,4.67,4.93,7.58,7.68,11.07,5.07,6.4,8.1,10.63,11.8,20.59"/><path class="cls-5" d="M127.73,200.66c2.71-5,1.76-26.18.4-32.82A34.05,34.05,0,0,0,122.59,155c-2.41-3.34-9.59-10.71-13.82-7.71-2.44,1.73,1.26,8,2.24,9.84a106.09,106.09,0,0,1,7.64,19.24,116.65,116.65,0,0,1,4.6,24l0,.31"/><path class="cls-7" d="M128.22,200.66c-.89-11.88-.32-30.11,5-40.41,6.07-11.68,14-17.07,15.14-12.52,3.33,13.2-10.05,48.71-13.81,52.93"/><path class="cls-6" d="M101.65,164.66c10.81,7.54,18.27,21.81,19.66,36"/><path class="cls-6" d="M112.71,151.1c5.31,4.74,8,12.16,9.65,19.34A162,162,0,0,1,126,200.66"/><path class="cls-6" d="M145,152.73c-6.53,15-12,31.25-13,47.93"/><path class="cls-6" d="M160.41,182.05a56.28,56.28,0,0,0-16.22,18.61"/><path class="cls-7" d="M258.18,200.63c1.42-18.77-.16-37.17,7-54.95,2-5.05,6.65-13,13-13.28,9.88-.42,3.83,19.42,2,26.84a111.11,111.11,0,0,1-4.64,14.09c-3.16,8.09-7.91,19.41-11.51,27.3"/><path class="cls-5" d="M253.06,200.63c-3.11-8-6.15-15.94-9.23-23.91-2.73-7.06-5.9-14-8.1-21.23-1.68-5.53-6-18.19.33-22.08,11.3-6.94,20.33,19.89,21.53,29.41,1.57,12.56,1.23,25.18,1.42,37.81"/><path class="cls-7" d="M244.08,200.63s-6.61-8.44-9.59-12.4c-6.65-8.84-14.85-18.43-13.63-28.37.28-2.28,1.12-4.83,3.42-6.18a8,8,0,0,1,4.74-.91c5.41.52,10.25,8.37,12.69,12.4,4.76,7.88,12.14,35.46,12.14,35.46"/><path class="cls-6" d="M239,139c8.06,16.3,15.93,46.49,16.12,61.66"/><path class="cls-6" d="M226.49,157.69c7.1,13.63,21.52,42.94,21.52,42.94"/><path class="cls-6" d="M277.8,136.71c-5.78,12.91-13.72,40.89-16.91,63.95"/><path class="cls-5" d="M264.38,200.63s3.3-14.71,5.59-23.06c2.48-9.07,10.61-23,19.15-26.91,2-.91,4.34-1.54,6.24-.5a5.43,5.43,0,0,1,2.39,3.06c1.45,4.25-5.66,17.66-8.11,21.42-4.79,7.37-11.65,19.08-17.09,26"/><path class="cls-6" d="M293.78,153.61c-10.1,8.77-23.61,36.73-27.39,47"/><path class="cls-7" d="M45.21,191.48c-1.3-6.86-3.42-20.46-5-28.8-.77-4-3-9-4.46-12.81-2.61-7-8.92-19.13-16.74-18.48-9.7.8-1.86,18.25.61,24.83a95.18,95.18,0,0,0,5.92,12.35c3.88,7,9.62,16.83,13.9,23.62"/><path class="cls-7" d="M50.81,184.08c-2.37-6.2-1.73-14.08-1.72-20.63,0-11.8,4.11-28.38,11.79-36.13,3.17-3.19,8.41-6.74,11.81-1.86,3.23,4.62-.5,17.18-1.67,22.57-2.3,10.57-13.32,30.14-16.5,40.37"/><path class="cls-6" d="M67.05,130.86c-5.46,14.16-12.79,40-14.67,55"/><path class="cls-6" d="M19.8,135.29c6.92,11.13,17.06,35,22.43,55.71"/><path class="cls-5" d="M45.48,176.48c2.92-4.76,6.37-20.22,7.15-25.75,1.11-7.77,1.23-16-.69-23.63-1.3-5.17-7.24-20.62-14.69-13.65-3.51,3.27-3,21.1-2.53,25.88.82,9.34,5.66,26.08,7.32,35.32"/><path class="cls-6" d="M41.37,117.43c5.12,13.34,3.83,46.46,2.23,58"/><line class="cls-8" y1="200.66" x2="297.94" y2="200.66"/><path class="cls-9" d="M120.25,66.52c1.45-1.44,5-6.3,5.39-6.18s-.82,1.85-.47,1.88,2.41-2.48,2.77-2.26-1.74,2.78-1.74,2.78,2.59-2.58,3-2.19-1.64,2.34-2.26,3.22c.8-.87,2.25-2.12,2.51-1.83s-1,1.73-1.91,2.88c.64-.67,1.85-1.81,2.1-1.55s-2.79,4.88-5.58,8.26"/><path class="cls-9" d="M101.71,84.25A208.48,208.48,0,0,0,122.41,64l4.65,3.1a161.54,161.54,0,0,1-18,22.53"/><path class="cls-10" d="M98,87.79a42.54,42.54,0,0,1,6.78-6.32l7.51,6.07-6.59,7.72"/><path class="cls-9" d="M110.94,142.83l-4,52.32,4.71,3s-12.92.67-13.34.24.53-3.32.53-3.32L96.7,142.71Z"/><path class="cls-11" d="M100.38,198.36l-1.92-1.89.27-1,3,2.89h1.42l5-2.48,5.44,3.41a.74.74,0,0,1-.39,1.36l-7.32,0L103.52,199h-.66v1.62l-4.77,0v-2.26Z"/><path class="cls-9" d="M100.5,142.55l-11.72,52.6,4.71,3s-12.92.67-13.34.24.53-3.32.53-3.32l3.42-52.52Z"/><path class="cls-11" d="M82.2,198.36l-1.92-1.89.27-1,3,2.89h1.42l5-2.48,5.44,3.41a.74.74,0,0,1-.39,1.36l-7.32,0L85.34,199h-.66v1.62l-4.77,0v-2.26Z"/><path class="cls-12" d="M88.18,115.42c-6.44,11.35-6.43,32.45-6.43,32.45h29.88s-.41-18.53-3.75-29Z"/><line class="cls-13" x1="98.17" y1="116.44" x2="98.91" y2="147.87"/><path class="cls-13" d="M104.78,117.76a9.68,9.68,0,0,1-6.61,5.16"/><path class="cls-9" d="M131.2,104.39c2,.57,7.93,1.3,8,1.7s-2,.19-1.87.51,3.35.89,3.33,1.32c0,.59-3.28-.17-3.28-.17s3.52,1,3.35,1.51c-.12.35-2.84-.29-3.91-.41,1.14.28,2.95.94,2.82,1.31s-2,0-3.44-.27c.88.23,2.48.73,2.37,1.08s-4.7-.32-9-1.1"/><path class="cls-14" d="M96.05,84.76S96.54,86,99.22,86a3.13,3.13,0,0,0,2.58-1s.69.62,8.08,10.31c1.56,2.05,1.22,6.47-1.39,10.3a64.38,64.38,0,0,0-.61,13.24H86.52s-.38-15.35,1.1-23.72A14.21,14.21,0,0,1,96.05,84.76Z"/><path class="cls-9" d="M110.16,91.39c14.24,11.17,24.11,13.6,24.11,13.6l-1.16,5.47s-17.1-2.17-28.33-11.61"/><path class="cls-15" d="M101.9,85.41c3.65.61,9.25,6,9.25,6l-6,8.73s-2.52-1.75-5.94-4.69"/><path class="cls-16" d="M105.2,99.8a38.14,38.14,0,0,1-6.46-4.7"/><path class="cls-17" d="M103.49,75.3c1.49,2.45,2.1,4.91,0,6.16S98.08,83.35,96,79.85c-1.49-2.45-1-5.46,1.08-6.72S102,72.84,103.49,75.3Z"/><path class="cls-18" d="M101.76,75.92c.07.25.27.55.51.54a.19.19,0,0,0,.15-.11C102.56,75.92,101.62,75.4,101.76,75.92Z"/><path class="cls-19" d="M100.78,75.71a1.91,1.91,0,0,1,1.41-.82"/><path class="cls-20" d="M104.06,78.09l-1.38.69s.48,1.19,1.23,1S104.06,78.09,104.06,78.09Z"/><path class="cls-17" d="M101.9,85.41a5.85,5.85,0,0,1-2.68.61,5.32,5.32,0,0,1-3.17-.91l1.42-6.06,5.21.38Z"/><path class="cls-17" d="M103,75.41s1.78,1.19,1.84,1.5-.69.78-.69.78"/><path class="cls-18" d="M98,71.44c-.19.1-.86-.08-1.1-.08a5.66,5.66,0,0,0-1,.08,6.82,6.82,0,0,0-4.4,3.7,7.41,7.41,0,0,1-2.25,3c-2.45,1.55-5.67,1-8.42,1.92s-4.94,3.78-4.19,6.81c.24,1,.76,1.9,1.07,2.87.65,2.08.35,4.5,1.6,6.29a5.36,5.36,0,0,0,1.23,1.24,8.57,8.57,0,0,0,13.13-3.63c1.11-2.77.76-6.07,2.38-8.57.76-1.17,1.89-2.06,2.64-3.24a10.84,10.84,0,0,0,1.13-4.38,25.94,25.94,0,0,1-.36-2.78,6.07,6.07,0,0,0,3.69-1.56A3.76,3.76,0,0,0,98,71.44Z"/><path class="cls-9" d="M99.4,77.81a.87.87,0,0,0-1.24.22c-.64,1,.89,2.15,1.63,2.2s.71-.74.71-.74"/><rect class="cls-21" x="212.93" y="62.77" width="46.46" height="62.05"/><rect class="cls-22" x="219.87" y="62.77" width="46.46" height="62.05"/><rect class="cls-23" x="226.23" y="67.6" width="34.12" height="8.11" rx="1.71"/><rect class="cls-23" x="226.23" y="96.9" width="19.64" height="22.8" rx="1.71"/><path class="cls-7" d="M228.77,83.78h-1a2.05,2.05,0,0,1,0-4h1Z"/><path class="cls-5" d="M230.28,81.8a1.57,1.57,0,1,1-1.51-2A1.79,1.79,0,0,1,230.28,81.8Z"/><path class="cls-7" d="M238.79,83.78h-1a2.05,2.05,0,0,1,0-4h1Z"/><path class="cls-5" d="M240.3,81.8a1.57,1.57,0,1,1-1.51-2A1.79,1.79,0,0,1,240.3,81.8Z"/><path class="cls-7" d="M248.81,83.78h-1a2.05,2.05,0,0,1,0-4h1Z"/><path class="cls-5" d="M250.32,81.8a1.57,1.57,0,1,1-1.51-2A1.79,1.79,0,0,1,250.32,81.8Z"/><path class="cls-7" d="M258.83,83.78h-1a2.05,2.05,0,0,1,0-4h1Z"/><path class="cls-5" d="M260.34,81.8a1.57,1.57,0,1,1-1.51-2A1.79,1.79,0,0,1,260.34,81.8Z"/><path class="cls-7" d="M228.77,93.37h-1a2.05,2.05,0,0,1,0-4h1Z"/><path class="cls-5" d="M230.28,91.39a1.57,1.57,0,1,1-1.51-2A1.79,1.79,0,0,1,230.28,91.39Z"/><path class="cls-7" d="M238.79,93.37h-1a2.05,2.05,0,0,1,0-4h1Z"/><path class="cls-5" d="M240.3,91.39a1.57,1.57,0,1,1-1.51-2A1.79,1.79,0,0,1,240.3,91.39Z"/><path class="cls-7" d="M248.81,93.37h-1a2.05,2.05,0,0,1,0-4h1Z"/><path class="cls-5" d="M250.32,91.39a1.57,1.57,0,1,1-1.51-2A1.79,1.79,0,0,1,250.32,91.39Z"/><path class="cls-7" d="M258.83,93.37h-1a2.05,2.05,0,0,1,0-4h1Z"/><path class="cls-5" d="M260.34,91.39a1.57,1.57,0,1,1-1.51-2A1.79,1.79,0,0,1,260.34,91.39Z"/><polygon class="cls-22" points="36.48 200.66 115.34 200.66 115.34 140.24 56.33 140.24 36.48 163.44 36.48 200.66"/><polygon class="cls-21" points="92.95 200.66 122.01 200.66 122.01 140.24 112.39 140.24 92.95 163.44 92.95 200.66"/><rect class="cls-21" x="36.49" y="163.44" width="56.47" height="37.22" transform="translate(129.44 364.11) rotate(180)"/><path class="cls-7" d="M98,147c.54.49,1.64.16,2.47-.75s1-2,.51-2.53l-1.12-1-3,3.28Z"/><path class="cls-5" d="M97,146.06c.54.49,1.64.16,2.47-.75s1-2,.51-2.53-1.65-.17-2.47.74S96.42,145.56,97,146.06Z"/><path class="cls-7" d="M89.22,147c.54.49,1.64.16,2.47-.75s1-2,.51-2.53l-1.12-1-3,3.28Z"/><path class="cls-5" d="M88.17,146.06c.54.49,1.64.16,2.47-.75s1-2,.51-2.53-1.65-.17-2.47.74S87.63,145.56,88.17,146.06Z"/><path class="cls-7" d="M71.12,147c.54.49,1.65.16,2.47-.75s1.06-2,.52-2.53l-1.12-1L70,146Z"/><path class="cls-5" d="M70.07,146.06c.54.49,1.65.16,2.47-.75s1.06-2,.52-2.53-1.65-.17-2.47.74S69.53,145.56,70.07,146.06Z"/><path class="cls-7" d="M61.8,147c.54.49,1.65.16,2.47-.75s1.06-2,.52-2.53l-1.12-1-3,3.28Z"/><path class="cls-5" d="M60.75,146.06c.54.49,1.65.16,2.47-.75s1.06-2,.52-2.53-1.65-.17-2.47.74S60.21,145.56,60.75,146.06Z"/><polygon class="cls-23" points="92.28 159.21 95.42 155.16 47.7 155.16 44.12 159.21 92.28 159.21"/><path class="cls-8" d="M145.05,131v50.46a4.42,4.42,0,0,1-4.42,4.42H112.56a4.42,4.42,0,0,1-4.42-4.42V180"/><path class="cls-8" d="M152,133.3V191a4.51,4.51,0,0,1-4.51,4.5H102.87A4.42,4.42,0,0,1,98.45,191V180"/><path class="cls-8" d="M164.63,132.34v33.44a4.42,4.42,0,0,0,4.42,4.42h34.86a4.42,4.42,0,0,0,4.42-4.42V108.49a4.42,4.42,0,0,1,4.42-4.42h14.38"/><path class="cls-8" d="M159,133.3v46.88a4.42,4.42,0,0,0,4.42,4.42h64a4.42,4.42,0,0,0,4.42-4.42V115"/><path class="cls-24" d="M113.36,60a41.59,41.59,0,1,1,75.19,24.48h0c-5.93,8.95-21.35,19-21.35,25.1v6.91a2.5,2.5,0,0,1-2.5,2.5H145.19a2.5,2.5,0,0,1-2.5-2.5v-6.91c0-6-15.42-16.15-21.36-25.1h0A41.38,41.38,0,0,1,113.36,60Z"/><path class="cls-20" d="M159.67,118.25a270.77,270.77,0,0,1,.54-32.37,46.35,46.35,0,0,1-10.53,0,270.77,270.77,0,0,1,.54,32.37l-.73,0a280.37,280.37,0,0,0-.58-32.43c-12.34-1.71-17.86-8.7-18.85-15.29-.58-3.86.74-7.69,3.13-9.12a6.26,6.26,0,0,1,5.07-.51c2.94.84,5.73,3.37,7.47,6.77,2,3.92,3.19,10.44,3.88,17.51a46.06,46.06,0,0,0,10.67,0c.68-7.07,1.87-13.59,3.88-17.51,1.74-3.4,4.53-5.93,7.47-6.77a6.26,6.26,0,0,1,5.07.51c2.39,1.43,3.71,5.26,3.13,9.12-1,6.59-6.51,13.58-18.85,15.29a280.37,280.37,0,0,0-.58,32.43Zm14-57a6.5,6.5,0,0,0-1.85.28c-2.75.78-5.37,3.18-7,6.39-1.93,3.78-3.08,10.13-3.76,17.07,11.82-1.7,17.11-8.36,18-14.65.53-3.52-.66-7.12-2.78-8.38A5.07,5.07,0,0,0,173.68,61.29Zm-37.47,0a5.07,5.07,0,0,0-2.64.71c-2.12,1.26-3.31,4.86-2.78,8.38.94,6.29,6.23,13,18,14.65-.67-6.94-1.82-13.29-3.75-17.07-1.65-3.21-4.27-5.61-7-6.39A6.5,6.5,0,0,0,136.21,61.29Z"/><path class="cls-25" d="M189.6,62.33A2.38,2.38,0,0,1,187.22,60a32.23,32.23,0,0,0-24.33-31.29A2.39,2.39,0,1,1,164.06,24,37,37,0,0,1,192,60,2.38,2.38,0,0,1,189.6,62.33Z"/><path class="cls-25" d="M154.14,25.22a2.39,2.39,0,1,0,2.39-2.38A2.39,2.39,0,0,0,154.14,25.22Z"/><g class="cls-26"><path class="cls-27" d="M196.45,62.41c-2.3,17-16.06,34.7-41.51,34.7s-38.69-18.48-41.5-34.7a41.35,41.35,0,0,0,7.89,22h0c5.94,8.95,21.36,19,21.36,25.1v6.91a2.5,2.5,0,0,0,2.5,2.5H164.7a2.5,2.5,0,0,0,2.5-2.5v-6.91c0-6,15.42-16.15,21.35-25.1h0A41.36,41.36,0,0,0,196.45,62.41Z"/></g><path class="cls-11" d="M168.18,112.48H141.71v12.61a10.9,10.9,0,0,0,1.69,5.82h0a11.37,11.37,0,0,0,9.6,5.28h3.88a11.38,11.38,0,0,0,9.61-5.28h0a10.9,10.9,0,0,0,1.69-5.82Z"/><path class="cls-28" d="M141.71,121h.23l26.47-2.75a1.57,1.57,0,0,0,1.4-1.81A1.71,1.71,0,0,0,168,115l-26.47,2.74a1.59,1.59,0,0,0-1.41,1.81A1.75,1.75,0,0,0,141.71,121Z"/><path class="cls-28" d="M141.71,126.76h.23L168.41,124a1.59,1.59,0,0,0,1.4-1.82,1.72,1.72,0,0,0-1.86-1.47l-26.47,2.74a1.6,1.6,0,0,0-1.41,1.82A1.74,1.74,0,0,0,141.71,126.76Z"/><path class="cls-28" d="M142.77,132.47H143l25.09-2.61a1.57,1.57,0,0,0,1.41-1.81,1.71,1.71,0,0,0-1.86-1.47l-25.09,2.6a1.59,1.59,0,0,0-1.41,1.81A1.72,1.72,0,0,0,142.77,132.47Z"/><line class="cls-29" x1="154.94" y1="0.71" x2="154.94" y2="13.78"/><line class="cls-29" x1="178.51" y1="5.92" x2="173.23" y2="17.87"/><line class="cls-29" x1="198.37" y1="20.37" x2="188.72" y2="29.18"/><line class="cls-29" x1="131.38" y1="5.92" x2="136.66" y2="17.87"/><line class="cls-29" x1="111.52" y1="20.37" x2="121.17" y2="29.18"/><circle class="cls-30" cx="98.45" cy="180.07" r="0.9"/><circle class="cls-30" cx="108.14" cy="180.07" r="0.9"/><circle class="cls-30" cx="231.87" cy="115.01" r="0.9"/><circle class="cls-30" cx="236.94" cy="115.01" r="0.9"/><path class="cls-30" d="M242.92,115a.9.9,0,1,1-.9-.9A.9.9,0,0,1,242.92,115Z"/><circle class="cls-30" cx="227.13" cy="104.07" r="0.9"/><circle class="cls-31" cx="199.4" cy="156.77" r="18.57" transform="translate(-45.04 89.05) rotate(-22.69)"/><circle class="cls-20" cx="199.4" cy="156.77" r="13.44" transform="translate(-29.78 48.08) rotate(-12.8)"/><path class="cls-31" d="M190.17,156.77a9.23,9.23,0,1,0,9.23-9.23A9.23,9.23,0,0,0,190.17,156.77Z"/><path class="cls-20" d="M194.57,156.77a4.83,4.83,0,1,0,4.83-4.84A4.83,4.83,0,0,0,194.57,156.77Z"/><polygon class="cls-32" points="198.65 157.52 201.69 157.52 198.65 154.48 198.65 157.52"/><polygon class="cls-32" points="218.34 137.83 221.81 137.83 221.81 136.96 219.21 136.96 219.21 134.36 218.34 134.36 218.34 137.83"/><polygon class="cls-32" points="219.93 136.24 223.4 136.24 223.4 135.37 220.8 135.37 220.8 132.77 219.93 132.77 219.93 136.24"/><rect class="cls-32" x="195.15" y="145.72" width="29.7" height="0.88" transform="translate(-41.84 191.3) rotate(-45)"/><path class="cls-9" d="M56.57,123.63,54.28,128a9.33,9.33,0,0,1-3.72-1.06,5.75,5.75,0,0,1-2.76-2.52l3.87-5.12"/><path class="cls-9" d="M61.44,115.41c2.13,1.26-1.39,9.21-3.31,9.71s-5.74-3.25-6.88-6.43,2.53-4.93,4.68-5.57S61.44,115.41,61.44,115.41Z"/><path class="cls-33" d="M59.86,119.27a1.74,1.74,0,0,0-.1.19l-.1.2a.09.09,0,0,0,0,.1.11.11,0,0,0,.06.09.14.14,0,0,0,.19,0,1.89,1.89,0,0,0,.09-.21,1.57,1.57,0,0,0,.09-.23.1.1,0,0,0,0-.09.1.1,0,0,0-.06,0,.11.11,0,0,0-.15,0Z"/><path class="cls-34" d="M61,118.49a1.59,1.59,0,0,0-1.7-.45"/><path class="cls-20" d="M58,122.36l1.35,1s-.53,1-1,.63S58,122.36,58,122.36Z"/><path class="cls-35" d="M63.35,117.16a21.71,21.71,0,0,1-2.76-1.27,2.53,2.53,0,0,0-2,2.16c0,.23,0,.55-.26.58s-.3-.13-.34-.29,0-.32-.1-.47a.68.68,0,0,0-.84-.31,1.16,1.16,0,0,0-.66.69c-.32.77-.61,1.7.13,2.35a1.39,1.39,0,0,1,.32.32c.16.29,0,.65-.22.92a3.66,3.66,0,0,1-3.2,1.79c-1.22,0-3.24-1.6-3.37-2.41,0-.07-1.18-5,1-8.11a6.11,6.11,0,0,1,5.33-2.72,6.16,6.16,0,0,1,3.11,1.39A4.75,4.75,0,0,1,63.35,117.16Z"/><path class="cls-9" d="M61.3,120.06s.32,2.38-.15,2.64-1.46-.42-1.46-.42"/><path class="cls-9" d="M62.28,184.58l-1.74,11.23-.09,3.37,13.25-.06a.59.59,0,0,0,.58-.59h0a.6.6,0,0,0-.37-.55l-5.72-2.62,2.26-11.66"/><path class="cls-36" d="M74.86,199a1.8,1.8,0,0,0-.63-1l-6.06-2.6c-3.34,1.35-7.66.31-7.66.31l-.77,4.57a.27.27,0,0,0,.27.27l14.75-.08C75.06,200.43,74.87,199,74.86,199Z"/><path class="cls-13" d="M69.48,195.62a7.1,7.1,0,0,0-.85,1.43"/><path class="cls-13" d="M70.24,196.07a6.49,6.49,0,0,0-.7,1.22"/><path class="cls-13" d="M70.89,196.41a9.54,9.54,0,0,0-.66,1.11"/><line class="cls-13" x1="59.82" y1="199.52" x2="74.93" y2="199.45"/><path class="cls-13" d="M60.24,197.29s3.55.07,3.85,2.21"/><path class="cls-13" d="M73,197.43a11.33,11.33,0,0,0-1.17,2"/><path class="cls-9" d="M21.16,187.53l-11-1.32-3.38-.09.07,13.25a.58.58,0,0,0,.59.58h0a.58.58,0,0,0,.54-.38l2.63-5.71L22,195.15"/><path class="cls-36" d="M6.94,200.53a1.86,1.86,0,0,0,1-.64l2.61-6c-1.36-3.34-.32-7.67-.32-7.67l-4.56-.77a.27.27,0,0,0-.27.28l.07,14.75C5.48,200.72,6.93,200.53,6.94,200.53Z"/><path class="cls-13" d="M10.3,195.15a7.51,7.51,0,0,0-1.44-.86"/><path class="cls-13" d="M9.84,195.91a6.49,6.49,0,0,0-1.22-.7"/><path class="cls-13" d="M9.51,196.55a9.6,9.6,0,0,0-1.12-.65"/><line class="cls-13" x1="6.39" y1="185.48" x2="6.47" y2="200.59"/><path class="cls-13" d="M8.62,185.9s-.07,3.55-2.21,3.86"/><path class="cls-13" d="M8.48,198.65a11.33,11.33,0,0,0-2-1.17"/><path class="cls-37" d="M27.74,156.73c-2.38,6.35,1.5,15.57,1.5,15.57l2,14.85-19.38-.86.19,12.89s20.79,1.48,25.82,1.48,7-1.12,8.45-4.07c2.2-4.39-1-28.66-1-29.06l-3.46-15.59"/><line class="cls-38" x1="14.22" y1="186.4" x2="14.37" y2="199.34"/><path class="cls-37" d="M34.46,160.16s-2.2,11.24,9,13.66c5,1.08,17.68,1.43,17.68,1.43l-2.17,17.38H71.62s2.62-13.09,3.41-21.85c.53-5.82-2-8.43-6.68-9-4-.49-16-1.27-16-1.27l-2-2.53"/><path class="cls-38" d="M45.93,174.22s-9.4,0-11.65-10.5"/><path class="cls-38" d="M39.24,162.72a25.45,25.45,0,0,0,5.86.27"/><path class="cls-38" d="M27,161.23a18.84,18.84,0,0,0,4.13.71"/><line class="cls-38" x1="59.78" y1="190.36" x2="72.09" y2="190.36"/><rect class="cls-30" x="85.09" y="142.42" width="1.01" height="11.03"/><circle class="cls-30" cx="85.59" cy="141.3" r="1.86"/><path class="cls-9" d="M76.26,144.47l3.74.27a21.49,21.49,0,0,1,4-1,1.51,1.51,0,0,1,1.07.35v1.13c0,.76,1,1.09,1,.58v-.63s2.08,1,.87,2c.57.11.87.91-.21,1.46a.78.78,0,0,1,0,1.39c.35.53-.36,1.12-.93,1.24-1.07.23-9.63.05-9.63.05"/><path class="cls-36" d="M54.42,127.57c6.15,8.5,2.85,11.26-1.57,33a131,131,0,0,1-26-2.55,166.12,166.12,0,0,1,10-24.05c3.11-6,8.27-9,11.19-9.82"/><path class="cls-36" d="M45.1,137.13s9.5,14.88,14,15.54c7.17,1,19,.75,19,.75l.7-10.46S63.6,142.19,63,141.83c-2-1.16-8.55-14.26-8.55-14.26"/><path class="cls-13" d="M55.21,150a42,42,0,0,1-9.28-11.8"/><line class="cls-13" x1="76.64" y1="142.84" x2="75.74" y2="153.46"/><path class="cls-9" d="M278.18,126.42c-.23,2-1.86,7.81-1.52,8s.94-1.78,1.19-1.53-.47,3.43-.07,3.58c.55.2,1.11-3.09,1.11-3.09s-.43,3.64.1,3.68c.37,0,.83-2.74,1.14-3.77-.19,1.16-.28,3.08.11,3.1s.74-1.85,1.08-3.27c-.13.9-.28,2.57.08,2.6s1.52-4.46,2.46-8.74"/><path class="cls-9" d="M284.8,98.53s3.29,5.85,3.76,9.43c1.17,8.84-6.16,23.8-6.16,23.8s-5.33-1.45-5.33-2.12,3.72-16.39,3.72-16.39L275.46,101"/><path class="cls-9" d="M268.8,79.35l.72,6.59s-3.95,3.34-7.45-.41l.43-4.33Z"/><path class="cls-9" d="M263.29,72.75s-4.27,5.89-2.53,8.09c1.29,1.63,4.67,1.82,5.72,1.18.22-1.21,3-5.19,2.55-6.08C267.33,72.55,263.29,72.75,263.29,72.75Z"/><path class="cls-35" d="M270,73.77c-.14-2.23-2.34-2.88-6.55-2.63-.56,0-1.57-.35-1.83.15a2.44,2.44,0,0,0,.26,2.59,2.47,2.47,0,0,0,1.32.63c.76.18,1.54.9,1.13,1.7-.1.21-.35.57-.19.74a2.42,2.42,0,0,0,.45.24c.31.16.29.62.1.91s-.11.61-.3.89a2,2,0,0,0,.79,2.35,5,5,0,0,0,4.14.21c1.29-.67,2.07-2.5,2.08-5.77C271.35,74.52,270.42,73.68,270,73.77Z"/><path class="cls-9" d="M263.76,77.13c.69-.88,1.25-.74,1.56-.26.41.65-.41,2-.79,2.22-.78.46-1.4.41-1.46-.22"/><path class="cls-11" d="M262,75.78c-.19.17-.38.47-.27.69a.15.15,0,0,0,.16.08C262.37,76.51,262.46,75.44,262,75.78Z"/><path class="cls-39" d="M262.1,75a1.65,1.65,0,0,1,.89.71"/><path class="cls-20" d="M262.09,78.92l-1-.52s-.65,1.2-.19,1.45S262.09,78.92,262.09,78.92Z"/><rect class="cls-40" x="247.36" y="199.97" width="15.43" height="0.69" transform="translate(510.31 400.43) rotate(179.96)"/><path class="cls-37" d="M260.59,194.27l1.34.31a29.23,29.23,0,0,1,.7,3,14.07,14.07,0,0,1,.16,2.42H247.36s.41-1.34,4.09-3.49a8.09,8.09,0,0,0,2.19-1.82Z"/><path class="cls-41" d="M262.18,188.71l-.25,5.87s-.65.78-3.27.79a20,20,0,0,1-5-.71l-.52-7.92"/><rect class="cls-40" x="269.33" y="199.97" width="15.43" height="0.69" transform="translate(554.25 400.41) rotate(179.96)"/><path class="cls-37" d="M282.57,194.27l1.33.31s.51,1.74.71,3a14.67,14.67,0,0,1,.15,2.42H269.33s.41-1.34,4.09-3.49a8.09,8.09,0,0,0,2.19-1.82Z"/><path class="cls-41" d="M283.38,188.48l.52,6.1s-.65.78-3.27.79a20,20,0,0,1-5-.71l-1.19-7.92"/><path class="cls-42" d="M280.89,127.78s2.41,5,.47,14.6c1,21.4,3.55,50.18,3.55,50.18l-14.7-.05s-3-30.93-4.78-46.35c-2-17.17-3.22-38.2-3.22-38.2"/><path class="cls-43" d="M272.58,192.51s-3-30.93-4.77-46.35"/><path class="cls-42" d="M252.83,128.74s-1.57,22.57-1.57,33.4-.69,30.42-.69,30.42h14.86L271,141.34c4.53-5.42,4.2-17.19,3.11-21.77l-14.73-4Z"/><path class="cls-43" d="M267.92,169.47l3-28.13a15.74,15.74,0,0,0,3.8-9.58"/><line class="cls-43" x1="255.93" y1="126.47" x2="252.41" y2="192.56"/><line class="cls-43" x1="265.68" y1="132.43" x2="272.9" y2="132.57"/><line class="cls-43" x1="278.04" y1="132.2" x2="280.79" y2="132.15"/><path class="cls-9" d="M240.3,94.37c-2-2.28-7.42-11-8-10.81s1,2.82.5,2.84-3.31-3.94-3.88-3.64c-.78.41,2.31,4.3,2.31,4.3S230,85.41,229.43,86c-.4.39-.19,1.2.64,2.57-.56-.7-1.08-.83-1.5-.42s0,1.16.5,1.91c-.39-.49-1-.74-1.12-.23-.19.68,1.44,4.17,5.31,9.88"/><path class="cls-44" d="M269.44,85.26s8.52.36,11.07,10c1.15,4.37,1.89,34.32,1.89,34.32l-31.1-.21s.41-27.08,1.11-32.94c1.27-10.71,9.71-11.38,9.71-11.38s.38,1,3.68,1S269.44,85.26,269.44,85.26Z"/><path class="cls-44" d="M269.44,85.26c10.11,0,16.33,13.88,16.33,13.88l-6.35,3.19"/><path class="cls-9" d="M256.1,105s-5.39,7.75-9.75,8.17c-5.85.57-16.26-18.91-16.26-18.91l6.57-4.43,9,11.31,3.07-4.59"/><path class="cls-44" d="M262.12,85.1c-8.7.48-15.07,13.43-15.07,13.43l10.19,7.32L263,98.3"/><line class="cls-45" x1="256.88" y1="105.59" x2="261.8" y2="99.18"/><path class="cls-45" d="M281.36,101.35a36.53,36.53,0,0,0-1.94-7.55"/><path class="cls-9" d="M261.68,76.28s-1.4.67-1.33.93a5.21,5.21,0,0,0,.49.87"/><line class="cls-43" x1="250.57" y1="189.34" x2="265.68" y2="189.34"/><line class="cls-43" x1="269.9" y1="189.47" x2="284.6" y2="189.47"/></g></g></g></svg>