<svg xmlns="http://www.w3.org/2000/svg" xmlns:xlink="http://www.w3.org/1999/xlink" viewBox="0 0 651.26 413.61"><defs><style>.cls-1,.cls-14,.cls-18,.cls-19,.cls-2,.cls-22,.cls-24,.cls-26,.cls-28,.cls-30,.cls-31,.cls-35,.cls-37,.cls-38,.cls-40,.cls-42,.cls-44,.cls-46,.cls-5,.cls-9{fill:none;}.cls-2,.cls-4,.cls-5{stroke:#adbbf9;}.cls-2,.cls-30,.cls-35,.cls-4,.cls-46,.cls-5{stroke-linejoin:round;}.cls-2{stroke-dasharray:3.5 3.5;}.cls-3{fill:#e4e9f9;}.cls-4,.cls-6{fill:#fff;}.cls-7{fill:#adbbf9;}.cls-8{fill:#849cf4;}.cls-9{stroke:#4643bf;}.cls-14,.cls-18,.cls-19,.cls-22,.cls-24,.cls-26,.cls-28,.cls-31,.cls-37,.cls-38,.cls-40,.cls-42,.cls-44,.cls-9{stroke-miterlimit:10;}.cls-10{clip-path:url(#clip-path);}.cls-11{fill:url(#linear-gradient);}.cls-12{fill:url(#linear-gradient-2);}.cls-13{fill:#d3dbf4;}.cls-14{stroke:#fff;}.cls-15{fill:#e3eafc;}.cls-16{fill:#f0f1ff;}.cls-17{fill:#c2cfef;}.cls-18{stroke:#d3dbf4;}.cls-19{stroke:#849cf4;}.cls-20{fill:#ffcbbd;}.cls-21{fill:#f7471e;}.cls-22{stroke:#b22b19;}.cls-22,.cls-24,.cls-37,.cls-38,.cls-44{stroke-width:0.75px;}.cls-23{fill:#0e32ae;}.cls-24{stroke:#121649;}.cls-25,.cls-45{fill:#ffcbbb;}.cls-26{stroke:#ef977f;}.cls-27{fill:#4a1a1a;}.cls-28,.cls-31{stroke:#f7a794;}.cls-28,.cls-30,.cls-35,.cls-42,.cls-46{stroke-width:0.5px;}.cls-29{fill:#212237;}.cls-30{stroke:#212237;}.cls-30,.cls-42,.cls-46{stroke-linecap:round;}.cls-32{fill:#ef977f;}.cls-33{fill:#18277a;}.cls-34{fill:#0d219b;}.cls-35{stroke:#e88872;}.cls-36{fill:#28364c;}.cls-37,.cls-42,.cls-46{stroke:#28364c;}.cls-38{stroke:#525bce;}.cls-39{fill:#f49c8e;}.cls-40{stroke:#0e32ae;}.cls-41{fill:#e23917;}.cls-43{fill:#e88872;}.cls-44{stroke:#5565aa;}.cls-45{fill-rule:evenodd;}.cls-47{fill:#14122d;}</style><clipPath id="clip-path"><rect class="cls-1" x="227.31" y="50.23" width="195.17" height="350.13" rx="9.83"/></clipPath><linearGradient id="linear-gradient" x1="172.98" y1="357.09" x2="465.67" y2="64.4" gradientUnits="userSpaceOnUse"><stop offset="0.27" stop-color="#fff" stop-opacity="0.1"/><stop offset="1" stop-color="#fff" stop-opacity="0.3"/></linearGradient><linearGradient id="linear-gradient-2" x1="222.44" y1="350.98" x2="502.91" y2="70.51" xlink:href="#linear-gradient"/></defs><g id="レイヤー_2" data-name="レイヤー 2"><g id="OBJECTS"><path class="cls-2" d="M252.08,328.44c-5.77-19.9-22.25-35.2-43.51-35.72-12.36-.29-24.35,5-34.87,11-14.21,8.16-31,18-48,15.54-10.89-1.59-23.79-7.7-26.35-20.33-2.7-13.36,8.09-22.52,19.63-27.9,9.89-4.6,23.77-15.62,28.21-26.16,17.62-41.81-31.65-89.53-17.75-137.18C144,57.87,211.41,49.44,245.29,83.3a99.14,99.14,0,0,1,9,10.38c6.92,9.18,11,21.68,20.59,28.57,12.45,8.92,28.57,6.06,42,.77,25.61-10.12,32.38-16.8,57.43-27.7,18-7.84,40.19-14.83,60.43-7.87,14.5,5,30.52,14,38.63,27,15.08,24.17,8.3,50.19,32.15,84.55,10.8,15.57,28,19.94,41.65,31.18,35.46,29.17,23.6,90.64-15.07,111.68-31.76,17.27-70.87,13.33-105.3,8.9q-4-.51-7.91-1.09"/><path class="cls-3" d="M503.5,101.81a58.61,58.61,0,0,0,7.83-11.35,59.48,59.48,0,0,0,5-12.87L504.47,73.4a46.38,46.38,0,0,0,1.15-12.32L518,59.15A59.14,59.14,0,0,0,509.94,33l-11.34,5.4a46.11,46.11,0,0,0-7.88-9.53l7.4-10.12a58.86,58.86,0,0,0-24.23-12.8L469.7,17.74a46.3,46.3,0,0,0-12.32-1.14L455.45,4.19a59.28,59.28,0,0,0-26.18,8.09l5.41,11.34a45.85,45.85,0,0,0-9.53,7.88L415,24.1a59.44,59.44,0,0,0-7.83,11.36,58.74,58.74,0,0,0-5,12.87l11.82,4.19a45.85,45.85,0,0,0-1.14,12.31L400.5,66.76a59.1,59.1,0,0,0,8.08,26.18l11.34-5.4a46.16,46.16,0,0,0,7.88,9.53l-7.4,10.13A59.44,59.44,0,0,0,431.76,115a58.74,58.74,0,0,0,12.87,5l4.19-11.82a46,46,0,0,0,12.32,1.14l1.93,12.41a59.27,59.27,0,0,0,26.18-8.08l-5.4-11.34a46.1,46.1,0,0,0,9.52-7.89ZM445.52,89A29.42,29.42,0,1,1,485.28,76.7,29.41,29.41,0,0,1,445.52,89Zm4-7.53a20.9,20.9,0,1,1,28.25-8.72A20.9,20.9,0,0,1,449.5,81.44Z"/><path class="cls-3" d="M234.9,130.27a36.05,36.05,0,0,0,4.12-7.48,36.68,36.68,0,0,0,2.27-8.23l-7.54-1.86a28.38,28.38,0,0,0-.06-7.65l7.53-2a36.73,36.73,0,0,0-6.6-15.63l-6.65,4a28.4,28.4,0,0,0-5.45-5.39l3.94-6.69A37.09,37.09,0,0,0,219,75.28,36.35,36.35,0,0,0,210.74,73l-1.85,7.54a28.45,28.45,0,0,0-7.66.06l-1.95-7.53a36.55,36.55,0,0,0-15.63,6.6l4,6.65a28.88,28.88,0,0,0-5.38,5.44l-6.7-3.93a36.52,36.52,0,0,0-6.39,15.71l7.55,1.86a28.46,28.46,0,0,0,.05,7.66l-7.52,2a36.59,36.59,0,0,0,6.59,15.63l6.65-4A28.4,28.4,0,0,0,188,132L184,138.71a36.17,36.17,0,0,0,15.72,6.39l1.85-7.54a28.45,28.45,0,0,0,7.66-.06l2,7.53a36.75,36.75,0,0,0,15.64-6.59l-4-6.66a28.3,28.3,0,0,0,5.38-5.44Zm-36.52-4.33a18.22,18.22,0,1,1,23.74-10A18.22,18.22,0,0,1,198.38,125.94Zm2-4.89a12.94,12.94,0,1,1,16.87-7.11A12.94,12.94,0,0,1,200.37,121.05Z"/><path class="cls-3" d="M264.84,60.92A25.63,25.63,0,0,0,268.23,56a24.91,24.91,0,0,0,2.15-5.58l-5.12-1.81a19.73,19.73,0,0,0,.49-5.34l5.38-.84a25.63,25.63,0,0,0-3.5-11.35l-4.92,2.35a19.74,19.74,0,0,0-3.41-4.13l3.2-4.39a25.29,25.29,0,0,0-4.92-3.4A25.91,25.91,0,0,0,252,19.35l-1.81,5.12a20.14,20.14,0,0,0-5.34-.49L244,18.6a25.76,25.76,0,0,0-11.35,3.5L235,27a20.31,20.31,0,0,0-4.13,3.42l-4.39-3.21a25.44,25.44,0,0,0-5.54,10.5l5.12,1.82a19.7,19.7,0,0,0-.49,5.34l-5.38.83a25.59,25.59,0,0,0,3.5,11.35l4.92-2.34A19.78,19.78,0,0,0,232,58.86l-3.21,4.39a25.61,25.61,0,0,0,10.5,5.55l1.82-5.13a20.08,20.08,0,0,0,5.33.5l.84,5.37A25.59,25.59,0,0,0,258.66,66l-2.34-4.91a20.37,20.37,0,0,0,4.13-3.42Zm-23.47-8.73a9.18,9.18,0,1,1,12.41-3.83A9.19,9.19,0,0,1,241.37,52.19Z"/><path class="cls-4" d="M144,140.67c0-.66-.09-1.37-.17-2.13-.69-6.21-4.94-5.64-7.59-5.45s-5.94.29-7.2-2.6a29.1,29.1,0,0,1-.89-4.13,6.43,6.43,0,0,0-6-4.83c-2.56,0-5,1.47-7.07,3.28-1.09,1-2.32,2-3.62,1.7a3.86,3.86,0,0,1-2-1.87c-3-4.92-3-12.07-6.34-16.7-3.66-5.11-10.51-5.22-15.14-1.51s-7.29,10.32-8.51,17c-.39,2.17-.73,4.54-2.07,6-1.91,2.12-4.84,1.42-7.39,1.13a10.63,10.63,0,0,0-8.52,2.32,9.87,9.87,0,0,0-3,7.78Z"/><path class="cls-4" d="M315.29,33.12h84.18s-3.38-3.93-7.19-5.26c-4.81-1.69-6.81,3-9.84-3.07-1.7-3.44-2.9-7.95-7.37-9.13-7-1.83-8.79,4-12.12,2.39-2.93-1.37-2.84-6.86-5.8-11.46s-9.93-7.25-14.73-4.9C333.64,6,334.78,12.77,331.91,15s-9.35-5.58-16.62,2.85C310.28,23.67,315.29,33.12,315.29,33.12Z"/><path class="cls-5" d="M403.16,4.19A3.7,3.7,0,1,1,399.47.5,3.69,3.69,0,0,1,403.16,4.19Z"/><path class="cls-5" d="M646.59,301.89a3.7,3.7,0,1,1-3.69-3.7A3.69,3.69,0,0,1,646.59,301.89Z"/><path class="cls-5" d="M470.17,148.83a3.7,3.7,0,1,1-3.69-3.69A3.7,3.7,0,0,1,470.17,148.83Z"/><path class="cls-5" d="M13.32,192.63a3.7,3.7,0,1,1-3.7-3.69A3.7,3.7,0,0,1,13.32,192.63Z"/><path class="cls-5" d="M164,54.16a3.7,3.7,0,1,1-3.69-3.69A3.69,3.69,0,0,1,164,54.16Z"/><path class="cls-5" d="M207.76,37.36a2.52,2.52,0,1,1-2.51-2.51A2.51,2.51,0,0,1,207.76,37.36Z"/><path class="cls-5" d="M616.7,215.11a2.51,2.51,0,1,1-2.51-2.51A2.51,2.51,0,0,1,616.7,215.11Z"/><circle class="cls-5" cx="434.28" cy="132" r="2.51"/><path class="cls-5" d="M535.55,68.82A2.51,2.51,0,1,1,533,66.31,2.51,2.51,0,0,1,535.55,68.82Z"/><path class="cls-5" d="M530.2,252.77a2.51,2.51,0,1,1-2.51-2.52A2.51,2.51,0,0,1,530.2,252.77Z"/><path class="cls-5" d="M140.49,276.81a2.51,2.51,0,1,1-2.51-2.52A2.51,2.51,0,0,1,140.49,276.81Z"/><path class="cls-5" d="M148,162.09a2.52,2.52,0,1,1-2.52-2.51A2.51,2.51,0,0,1,148,162.09Z"/><rect class="cls-3" x="627.69" y="173.64" width="5.55" height="5.55" rx="1.09"/><rect class="cls-3" x="110.56" y="289.22" width="5.55" height="5.55" rx="1.09"/><rect class="cls-3" x="104.72" y="84.68" width="5.55" height="5.55" rx="1.09"/><rect class="cls-3" x="532.29" y="39.87" width="10.65" height="10.65" rx="2.1"/><rect class="cls-3" x="476.13" y="205.94" width="5.55" height="5.55" rx="1.09"/><path class="cls-4" d="M404.06,171.66q0-.72.15-1.53c.56-4.46,4.05-4,6.22-3.91s4.88.2,5.92-1.87a19.11,19.11,0,0,0,.73-3,5.16,5.16,0,0,1,4.95-3.46,9.78,9.78,0,0,1,5.8,2.35c5.59,4.22,7.19-6.91,9.83-10.13,3-3.67,8.61-5.72,12.41-3.06s6,7.4,7,12.19c.32,1.56.44,3.46,1.7,4.32,3.69,2.52,8.44-2.36,12.9,1.43,1.56,1.33,1.86,4.54,1.66,6.63Z"/><path class="cls-6" d="M128.6,400.25c-12.54-18.91-38.78-66.69-16-83.14,12.49-9,29.05-.81,37.06,19.1,7.6,18.92,10.51,41.26,13.68,63.78"/><path class="cls-7" d="M128.87,400.1Q124.69,393.69,121,387c-3-5.44-5.87-11-8.37-16.71a119.54,119.54,0,0,1-6.45-18.1,55.85,55.85,0,0,1-2.08-17.14c.29-4.95,1.65-9.94,4.78-13.87a19.12,19.12,0,0,1,13.84-7.32c5.86-.27,11.4,2.46,15.7,6.29,5.73,5.11,9.33,11.95,12,19.06a169.68,169.68,0,0,1,7,25.94c1.85,9.27,3.21,18.62,4.53,28q.5,3.48,1,7c.08.54.89.31.82-.22-1.36-9.62-2.66-19.25-4.36-28.82a202.55,202.55,0,0,0-6.46-27c-2.49-7.67-5.54-15.24-10.92-21.38-4-4.58-9.36-8.38-15.48-9.34A19.26,19.26,0,0,0,111,317.81a22.11,22.11,0,0,0-7.2,12.71,44.12,44.12,0,0,0,.38,16.67,99.83,99.83,0,0,0,5.55,18.38A174.86,174.86,0,0,0,118,383.16c2.64,4.94,5.46,9.78,8.5,14.49.59.92,1.2,1.84,1.81,2.76.22.33.76,0,.54-.31Z"/><line class="cls-4" x1="119.01" y1="314.28" x2="148.57" y2="400.31"/><path class="cls-6" d="M78.33,400.27c-10.81-14-34.46-49.34-14.83-61.5,10.78-6.68,24.07-.6,31,14.13,6.56,14,9.07,30.51,11.81,47.17"/><path class="cls-7" d="M78.6,400.11a163.25,163.25,0,0,1-14.14-21.65,85,85,0,0,1-5.86-13.2,37.47,37.47,0,0,1-2.25-12.57,16.42,16.42,0,0,1,3.51-10.29,17,17,0,0,1,11.37-5.87,19.34,19.34,0,0,1,13.12,4.08c4.61,3.42,7.87,8.31,10.21,13.48,5.8,12.84,8.16,27,10.43,40.76q.45,2.67.88,5.33c.09.54.9.31.81-.22-2.34-14.31-4.43-28.93-9.79-42.5-2.25-5.71-5.08-11.22-9.61-15.47a22.18,22.18,0,0,0-13-6.25,18,18,0,0,0-12.82,4,15.69,15.69,0,0,0-5.6,9.6,29.31,29.31,0,0,0,.8,12.25,69,69,0,0,0,5.15,13.51,141.2,141.2,0,0,0,14.73,23.45q.75,1,1.53,2c.21.27.69-.1.48-.38Z"/><line class="cls-4" x1="69.06" y1="336.67" x2="94.56" y2="400.31"/><path class="cls-4" d="M204.81,400.07C175.18,346.31,156,293,180,267.7c23.69-25.09,48.48,4.64,54.51,31,7.38,32.27,8.46,67.19,8.31,101.39"/><line class="cls-5" x1="188.72" y1="261.17" x2="224.32" y2="399.99"/><path class="cls-6" d="M160.34,400.24c-11.77-28.44-38.25-86-19.58-103.75,12-11.37,33.51,2.57,44.61,27.42,10.54,23.6,13.7,47.9,20,76"/><path class="cls-7" d="M160.64,400.16c-2.63-6.44-5.37-12.84-8-19.28-3.08-7.54-6-15.13-8.73-22.82a206.21,206.21,0,0,1-6.85-23.36,81.27,81.27,0,0,1-2.34-20.89c.23-5.38,1.36-11.1,4.81-15.4a14.71,14.71,0,0,1,6.73-4.82,15.75,15.75,0,0,1,8.48-.25C162,295,168.13,300,173,305.37c6.57,7.25,11.07,15.9,14.62,24.95a214.35,214.35,0,0,1,8.86,29.6c2.45,10.55,4.47,21.2,6.72,31.8q.87,4.15,1.8,8.3c.12.53.94.3.82-.23-2.48-11-4.59-22.12-7-33.17a260.39,260.39,0,0,0-8.18-30.48c-3.3-9.53-7.31-18.89-13.44-27-4.74-6.26-10.74-12.13-18.07-15.24-5.5-2.33-11.93-2.76-17,.9-4.45,3.22-6.76,8.43-7.67,13.71-1.13,6.56-.53,13.34.55,19.86a163.88,163.88,0,0,0,6,23.36c2.57,8,5.51,15.79,8.62,23.56,2.79,6.95,5.7,13.85,8.63,20.73.6,1.43,1.21,2.85,1.8,4.27.16.36.75.21.6-.16Z"/><path class="cls-6" d="M390,400.08C380,285.63,404.35,243.82,430.94,242c12.6-.89,49.51,6.36,4.95,158.06"/><path class="cls-7" d="M390.22,400.08c-.79-12.11-1.69-24.19-2-36.33-.27-10.32-.22-20.65.28-31,.42-8.69,1.16-17.37,2.39-26a182.22,182.22,0,0,1,4.21-21.07,111.92,111.92,0,0,1,5.74-16.6,67.92,67.92,0,0,1,7-12.34,42,42,0,0,1,7.95-8.41,29.54,29.54,0,0,1,8.61-4.73,25.49,25.49,0,0,1,7.45-1.38,21.6,21.6,0,0,1,3.82.21,18.47,18.47,0,0,1,8.94,3.85A22.38,22.38,0,0,1,449,251a33.62,33.62,0,0,1,3.75,7.18,56.41,56.41,0,0,1,2.75,10.21,97.19,97.19,0,0,1,1.36,13.72,168.63,168.63,0,0,1-.42,17.7c-.54,7.46-1.45,14.89-2.59,22.28-1.41,9.12-3.17,18.18-5.15,27.2-2.4,11-5.14,21.85-8.08,32.67-1.63,6-3.22,12-5,18a.3.3,0,0,0,.58.16c1.82-6.2,3.68-12.37,5.37-18.61q2.32-8.6,4.45-17.25c2.44-10,4.66-20,6.53-30.05,1.51-8.14,2.8-16.33,3.73-24.56.74-6.6,1.26-13.24,1.38-19.88a126,126,0,0,0-.61-15.66,71.62,71.62,0,0,0-2.2-11.88,42.15,42.15,0,0,0-3.39-8.6,27,27,0,0,0-4.22-5.9,20.23,20.23,0,0,0-4.64-3.64,19.17,19.17,0,0,0-4.65-1.89,21.58,21.58,0,0,0-4.3-.64,25.82,25.82,0,0,0-5,.31,27.35,27.35,0,0,0-9,3.12,34.9,34.9,0,0,0-8.41,6.6A53.62,53.62,0,0,0,403.61,262a86.56,86.56,0,0,0-6.46,14.53,141.53,141.53,0,0,0-5,18.9,226.32,226.32,0,0,0-3.33,23.6c-.88,9.51-1.27,19.06-1.35,28.6-.09,11.35.27,22.71.95,34,.36,6.15.8,12.3,1.46,18.42,0,.25.41.26.39,0Z"/><line class="cls-4" x1="436.13" y1="242.21" x2="412.63" y2="400.01"/><path class="cls-6" d="M468.64,400.09c8.15-68,35.59-107.23,60.38-96.59,20.28,8.71,9.82,46.58-21.77,96.55"/><path class="cls-7" d="M468.83,400.14c.87-5.71,1.64-11.44,2.67-17.13,1-5.28,2.08-10.54,3.38-15.75a186,186,0,0,1,8.79-26.95A108.38,108.38,0,0,1,494.61,320,51.94,51.94,0,0,1,507,307,24.7,24.7,0,0,1,520,302.17a19.2,19.2,0,0,1,12.64,3.95c3.71,3,5.53,7.53,6.11,12.17.8,6.38-.31,12.94-1.88,19.12a146.59,146.59,0,0,1-9.24,25A319.85,319.85,0,0,1,511.73,392c-1.58,2.63-3.17,5.24-4.74,7.87-.2.33.3.62.52.3,3.5-5.25,6.72-10.67,9.84-16.15,2.79-4.93,5.48-9.92,8-15a177.52,177.52,0,0,0,10.89-26.4c2.07-6.69,3.69-13.73,3.57-20.77-.08-5-1.15-10.17-4.37-14.11a18.51,18.51,0,0,0-12-6.21,22.56,22.56,0,0,0-13.35,2.63,42.72,42.72,0,0,0-12.84,11,91.21,91.21,0,0,0-11.51,18.65,164.33,164.33,0,0,0-9.49,25.61,247.66,247.66,0,0,0-6.79,32.11c-.42,2.83-.78,5.66-1,8.5,0,.22.35.27.38.05Z"/><line class="cls-4" x1="529.02" y1="303.5" x2="488.46" y2="400.05"/><line class="cls-4" x1="147.22" y1="292.96" x2="183.46" y2="400.31"/><path class="cls-6" d="M471.67,400.22c16-34,48.33-111.53,24-139-13.37-15.1-37.82,3.44-50.8,36.74-12.31,31.62-21.54,64.18-29.18,101.84"/><path class="cls-7" d="M471.93,400.37q5.61-11.79,10.62-23.84c4-9.74,7.81-19.61,11.12-29.63a259.13,259.13,0,0,0,8.42-31.22c1.86-9.45,3.11-19.16,2.65-28.8-.37-7.78-1.9-15.85-6.17-22.49a20.13,20.13,0,0,0-7.64-7.41,15.58,15.58,0,0,0-9.93-1.17A28.23,28.23,0,0,0,470.05,261a57.45,57.45,0,0,0-10.8,10.56,91.23,91.23,0,0,0-9.87,15.38,167.69,167.69,0,0,0-7.88,18.7q-7.32,19.69-13.11,39.93c-4.09,14.22-7.64,28.6-10.78,43.06q-1.2,5.52-2.33,11.07c-.1.53.71.75.82.22,3-14.57,6.29-29.07,10.14-43.44q5.42-20.19,12.26-40c2.25-6.48,4.59-12.94,7.14-19.31a106.56,106.56,0,0,1,8.78-17.39,75.57,75.57,0,0,1,10.33-13.16,41.06,41.06,0,0,1,11-8.15,19,19,0,0,1,10.43-2.08,14.64,14.64,0,0,1,8.94,4.8c5.14,5.57,7.49,13.19,8.41,20.57,1.13,9.12.37,18.43-1.07,27.47a226.08,226.08,0,0,1-7.36,30.71C492,350,488.41,360,484.52,369.78c-3.38,8.52-7,16.94-10.81,25.28q-1.14,2.51-2.31,5c-.17.36.36.67.53.31Z"/><line class="cls-4" x1="488.46" y1="256.45" x2="445.61" y2="400.31"/><path class="cls-6" d="M500,400.09c21.12-42.82,39.45-54.15,56.67-50.73,13.39,2.66,15.49,22.44-12.81,50.7"/><path class="cls-7" d="M500.12,400.19c2-3.51,3.73-7.13,5.68-10.64,1.73-3.11,3.52-6.17,5.41-9.18a120.73,120.73,0,0,1,10.58-14.54,64.18,64.18,0,0,1,10.11-9.66,37,37,0,0,1,9.73-5.36,27.79,27.79,0,0,1,9.42-1.64,19.92,19.92,0,0,1,8.63,1.61,10.52,10.52,0,0,1,5.14,5.66,17.64,17.64,0,0,1,.46,9.69A42.63,42.63,0,0,1,560,379.3a96.51,96.51,0,0,1-12.24,16.13c-1.36,1.49-2.74,2.94-4.11,4.42a.3.3,0,0,0,.43.43,93.77,93.77,0,0,0,8.23-8.8,95.08,95.08,0,0,0,6.11-8.15,53,53,0,0,0,7-14.18,22.63,22.63,0,0,0,.82-10.83,11.73,11.73,0,0,0-4.19-7c-2.36-1.84-5.27-2.47-8.2-2.77a28.36,28.36,0,0,0-9.58.69,33.7,33.7,0,0,0-9.86,4.34,55,55,0,0,0-10.2,8.56,101.84,101.84,0,0,0-10.56,13.38A189.84,189.84,0,0,0,502.5,394.4c-1,1.84-1.89,3.69-2.71,5.59-.1.22.21.42.33.2Z"/><line class="cls-4" x1="554.97" y1="349.65" x2="522.7" y2="400.06"/><rect class="cls-8" x="227.81" y="50.73" width="194.17" height="349.13" rx="9.33"/><path class="cls-8" d="M412.65,51.23a8.85,8.85,0,0,1,8.83,8.83V390.53a8.84,8.84,0,0,1-8.83,8.83H237.14a8.84,8.84,0,0,1-8.83-8.83V60.06a8.84,8.84,0,0,1,8.83-8.83H412.65m0-1H237.14a9.83,9.83,0,0,0-9.83,9.83V390.53a9.83,9.83,0,0,0,9.83,9.83H412.65a9.83,9.83,0,0,0,9.83-9.83V60.06a9.83,9.83,0,0,0-9.83-9.83Z"/><path class="cls-9" d="M333.81,384.3a8.92,8.92,0,1,1-8.92-8.91A8.92,8.92,0,0,1,333.81,384.3Z"/><g class="cls-10"><polygon class="cls-11" points="371.12 12.3 225.07 409.19 267.53 409.19 413.57 12.3 371.12 12.3"/><polygon class="cls-12" points="426.7 12.3 280.65 409.19 298.65 409.19 444.7 12.3 426.7 12.3"/></g><rect class="cls-6" x="228.87" y="82.84" width="192.05" height="284.91"/><path class="cls-9" d="M313.92,64.76h27A1.08,1.08,0,0,1,342,65.84h0A1.08,1.08,0,0,1,341,66.93h-27a1.09,1.09,0,0,1-1.09-1.09h0A1.08,1.08,0,0,1,313.92,64.76Z"/><circle class="cls-9" cx="307.86" cy="65.84" r="1.12"/><rect class="cls-13" x="241.99" y="193.18" width="82.9" height="83.78"/><circle class="cls-14" cx="283.44" cy="223.03" r="17.16" transform="matrix(0.16, -0.99, 0.99, 0.16, 18.1, 467.31)"/><ellipse class="cls-14" cx="283.44" cy="223.03" rx="11.82" ry="17.16"/><ellipse class="cls-14" cx="283.44" cy="223.03" rx="4.61" ry="17.16"/><line class="cls-14" x1="266.28" y1="223.03" x2="300.61" y2="223.03"/><path class="cls-14" d="M268.08,230.68c3.28-1.1,8.93-1.82,15.36-1.82s12.08.72,15.37,1.82"/><path class="cls-14" d="M273.06,236.69a31.25,31.25,0,0,1,20.65-.05"/><path class="cls-14" d="M268.08,215.47c3.28,1.09,8.93,1.82,15.36,1.82s12.08-.73,15.37-1.82"/><path class="cls-14" d="M273.06,209.45a31.25,31.25,0,0,0,20.65.05"/><rect class="cls-15" x="249.04" y="257.55" width="68.8" height="4.43" transform="translate(566.88 519.52) rotate(180)"/><rect class="cls-15" x="276.73" y="249.31" width="41.12" height="4.43" transform="translate(594.57 503.04) rotate(180)"/><rect class="cls-15" x="249.04" y="249.31" width="23.01" height="4.43"/><rect class="cls-15" x="249.04" y="265.78" width="68.8" height="4.43" transform="translate(566.88 536) rotate(180)"/><rect class="cls-16" x="324.81" y="193.18" width="82.9" height="83.78"/><rect class="cls-3" x="331.86" y="208.11" width="68.8" height="4.43" transform="translate(732.52 420.65) rotate(180)"/><rect class="cls-3" x="331.86" y="216.35" width="68.8" height="4.43" transform="translate(732.52 437.13) rotate(180)"/><rect class="cls-3" x="331.86" y="224.59" width="21.42" height="4.43" transform="translate(685.14 453.61) rotate(180)"/><rect class="cls-3" x="359.01" y="224.59" width="41.55" height="4.43" transform="translate(759.58 453.61) rotate(180)"/><rect class="cls-3" x="331.86" y="232.83" width="68.8" height="4.43" transform="translate(732.52 470.09) rotate(180)"/><rect class="cls-3" x="331.86" y="241.07" width="68.8" height="4.43" transform="translate(732.52 486.56) rotate(180)"/><rect class="cls-3" x="331.86" y="249.31" width="68.8" height="4.43" transform="translate(732.52 503.04) rotate(180)"/><rect class="cls-3" x="380.79" y="257.55" width="19.87" height="4.43" transform="translate(781.45 519.52) rotate(180)"/><rect class="cls-3" x="331.86" y="257.55" width="44.19" height="4.43" transform="translate(707.91 519.52) rotate(180)"/><rect class="cls-3" x="331.86" y="265.78" width="68.8" height="4.43" transform="translate(732.52 536) rotate(180)"/><rect class="cls-3" x="382.44" y="199.87" width="18.22" height="4.43" transform="translate(783.1 404.17) rotate(180)"/><rect class="cls-3" x="331.86" y="199.87" width="45.91" height="4.43"/><rect class="cls-16" x="241.99" y="276.95" width="82.9" height="83.78"/><rect class="cls-3" x="249.04" y="341.34" width="68.8" height="4.43"/><rect class="cls-3" x="249.04" y="333.1" width="68.8" height="4.43"/><rect class="cls-3" x="300.15" y="324.86" width="17.69" height="4.43"/><rect class="cls-3" x="249.14" y="324.86" width="45.28" height="4.43"/><rect class="cls-3" x="249.04" y="316.63" width="68.8" height="4.43"/><rect class="cls-3" x="249.04" y="308.39" width="68.8" height="4.43"/><rect class="cls-3" x="249.04" y="300.15" width="68.8" height="4.43"/><rect class="cls-3" x="249.04" y="291.91" width="31.97" height="4.43"/><rect class="cls-3" x="285.75" y="291.91" width="32.09" height="4.43"/><rect class="cls-3" x="249.04" y="283.67" width="68.8" height="4.43"/><rect class="cls-3" x="249.04" y="349.58" width="32.06" height="4.43"/><rect class="cls-3" x="285.78" y="349.58" width="32.06" height="4.43" transform="translate(603.62 703.6) rotate(180)"/><rect class="cls-13" x="324.81" y="276.95" width="82.9" height="83.78"/><polygon class="cls-17" points="383.12 334.61 349.87 334.22 346.14 310.32 386.33 310.25 383.12 334.61"/><polygon class="cls-17" points="386.33 310.25 346.14 310.32 366.21 293.76 386.33 310.25"/><rect class="cls-6" x="352.24" y="307.92" width="27.43" height="23.17" transform="translate(-0.56 0.64) rotate(-0.1)"/><polygon class="cls-15" points="346.14 310.32 346.19 336.45 366.26 324.27 346.14 310.32"/><polygon class="cls-15" points="386.33 310.25 386.38 336.38 366.26 324.27 386.33 310.25"/><polygon class="cls-15" points="386.38 336.38 346.19 336.45 366.25 319.89 386.38 336.38"/><polyline class="cls-18" points="346.19 336.45 366.25 319.89 386.38 336.38"/><line class="cls-18" x1="369.14" y1="322.26" x2="386.33" y2="310.25"/><line class="cls-18" x1="363.38" y1="322.27" x2="346.14" y2="310.32"/><rect class="cls-15" x="350.23" y="346.43" width="32.06" height="4.43" transform="translate(732.52 697.3) rotate(180)"/><rect class="cls-13" x="241.99" y="102.16" width="165.81" height="83.59"/><rect class="cls-15" x="322.56" y="114.18" width="78.1" height="5.78" transform="translate(723.22 234.14) rotate(180)"/><rect class="cls-15" x="322.56" y="124.93" width="78.1" height="5.78" transform="translate(723.22 255.65) rotate(180)"/><rect class="cls-15" x="322.56" y="135.68" width="78.1" height="5.78" transform="translate(723.22 277.15) rotate(180)"/><rect class="cls-15" x="322.56" y="146.44" width="78.1" height="5.78" transform="translate(723.22 298.66) rotate(180)"/><rect class="cls-15" x="322.56" y="167.94" width="78.1" height="5.78" transform="translate(723.22 341.67) rotate(180)"/><rect class="cls-15" x="353.98" y="157.19" width="46.68" height="5.78" transform="translate(754.64 320.16) rotate(180)"/><rect class="cls-15" x="322.56" y="157.19" width="26.12" height="5.78"/><rect class="cls-15" x="251.49" y="114.41" width="59.08" height="59.08"/><polygon class="cls-6" points="286.51 132.88 304.49 163.63 268.53 163.63 286.51 132.88"/><polygon class="cls-6" points="268.29 142.99 272.13 150.38 265.25 163.63 257.58 163.63 268.29 142.99"/><path class="cls-6" d="M259.09,131.1a3.33,3.33,0,1,0,3.33-3.33A3.33,3.33,0,0,0,259.09,131.1Z"/><path class="cls-13" d="M278.13,95.32h93.53a2.67,2.67,0,0,0,2.66-2.66h0A2.67,2.67,0,0,0,371.66,90H278.13a2.66,2.66,0,0,0-2.66,2.66h0A2.66,2.66,0,0,0,278.13,95.32Z"/><line class="cls-14" x1="324.89" y1="193.18" x2="324.89" y2="360.73"/><line class="cls-14" x1="241.99" y1="276.95" x2="407.8" y2="276.95"/><line class="cls-19" x1="46.12" y1="400.36" x2="603.67" y2="400.36"/><path class="cls-20" d="M573,372.53l1.73,28.54-.93,9-34-.18a1.56,1.56,0,0,1-1.55-1.57h0a1.54,1.54,0,0,1,1-1.44l15.18-7-3.42-29.7"/><path class="cls-21" d="M536.64,409.49c.36-1.13,1-2.39,1.68-2.68l16.1-6.93c8.87,3.59,20.35.84,20.35.84l.88,12.12a.71.71,0,0,1-.73.72l-38-.2C536.12,413.36,536.63,409.52,536.64,409.49Z"/><path class="cls-22" d="M550.94,400.57a19.57,19.57,0,0,1,2.27,3.81"/><path class="cls-22" d="M548.91,401.78a16.63,16.63,0,0,1,1.86,3.24"/><path class="cls-22" d="M547.2,402.67a25.15,25.15,0,0,1,1.75,3"/><line class="cls-22" x1="575.45" y1="410.95" x2="536.47" y2="410.74"/><path class="cls-22" d="M575.1,405.15s-9,.06-9.84,5.75"/><path class="cls-22" d="M541.62,405.39a30.67,30.67,0,0,1,3.12,5.4"/><path class="cls-23" d="M546.21,262.85s-4.89,40.16-3,69.33,4.57,63,4.57,63h29.58s-3.83-50.09-3.41-73.54c.47-26,8.41-58.81,8.41-58.81"/><path class="cls-24" d="M571.34,395.2s-3.83-50.09-3.41-73.54c.47-26,8.41-58.81,8.41-58.81"/><path class="cls-20" d="M611.81,334.3l27.43,8.83,8.28,3.6-10.47,32.38a1.55,1.55,0,0,1-2,1h0a1.55,1.55,0,0,1-1.07-1.4L632,362.13l-28.49-9.25"/><path class="cls-21" d="M635.76,381.94c-1-.69-2-1.7-2-2.42L632,362.08c6.11-7.37,7-19.14,7-19.14l11.82,2.82a.72.72,0,0,1,.46.92l-11.69,36.17C639.29,383.6,635.79,382,635.76,381.94Z"/><path class="cls-22" d="M631.58,365.61a19.52,19.52,0,0,1,4.32-1"/><path class="cls-22" d="M632.12,367.91a16.73,16.73,0,0,1,3.66-.8"/><path class="cls-22" d="M632.45,369.81a24.05,24.05,0,0,1,3.36-.77"/><line class="cls-22" x1="648.89" y1="345.39" x2="636.9" y2="382.47"/><path class="cls-22" d="M643.26,344s-2.67,8.62,2.5,11.11"/><path class="cls-22" d="M633.36,375.94s4.31-1.36,6.09-1.33"/><path class="cls-23" d="M594.37,264.14S597,275.56,597,280.46c0,3.6-1.43,6-2.19,8.68a15,15,0,0,0-.56,3.45c-.23,5.25-.54,20,2.75,27,4.05,8.61,37.69,20,37.69,20l-8.53,25.69s-51.5-12.94-57.92-28.7c-9-22-6.4-72.47-6.4-72.47"/><path class="cls-24" d="M574.47,344c-3-2.35-5.18-4.82-6.21-7.36-9-22-6.4-72.47-6.4-72.47"/><path class="cls-24" d="M590,263.19s3,14.37,3,19.27c0,3.66-1.48,6.25-2.23,8.83a15,15,0,0,0-.55,3.19c-.32,5.19-.89,20.23,2.78,27.11,5.1,9.54,40.34,22.1,40.34,22.1"/><path class="cls-24" d="M557.66,267s-.45,10.37,1,11.61a22.1,22.1,0,0,0,2.86,2.08"/><line class="cls-24" x1="630.47" y1="338.11" x2="621.08" y2="363.93"/><line class="cls-24" x1="547.36" y1="390.11" x2="576.97" y2="390.11"/><path class="cls-24" d="M581.89,264.94s1.84,6.61,10.06,8.56"/><path class="cls-24" d="M545.26,272.35s7.42-2.17,9.7-7.41"/><path class="cls-25" d="M563.16,184.83l-1.33,9.3s-.12,2.58,4.9,4.38a8.8,8.8,0,0,0,9.76-2.5l-.4-9.42"/><path class="cls-25" d="M562.42,172.49s-6.45,10.78-2,15.09c4.06,3.91,13,1.46,13.8.09s5.9-13.41,3.12-15.07C572.42,169.65,565.18,167.85,562.42,172.49Z"/><path class="cls-26" d="M562.48,189.59a13.28,13.28,0,0,0,8.41-.36"/><path class="cls-27" d="M561.34,165.48c.85-6.37,8.56-1.6,11.7,1.31,1,.87,6.45,2.49,7.35,3.41a6.62,6.62,0,0,1,1.86,3.31,8.08,8.08,0,0,1-.24,3.35,41.36,41.36,0,0,1-2,5.72c-.84,2-2.35,6.1-5.26,5.67a2.42,2.42,0,0,1-1.55-.62,2.14,2.14,0,0,1-.32-1.61,7.47,7.47,0,0,1,.8-2.61c-.6.16-1.22.52-1.8.29-.19-.07-.28-.26-.39-.43-.39-.62.08-4.74,2-6.36-2.77-1.31-4.94-1.43-7.76-2.62a8.83,8.83,0,0,1-4.07-3.21C560.47,169.52,561.08,167.41,561.34,165.48Z"/><path class="cls-25" d="M573,183c.71-1,1.79-2.13,2.83-1.1a2.46,2.46,0,0,1,.51,1.57c.13,1.94-1.84,4.42-3.55,3.74-.84-.33-1.07-1.47-1.22-2.4"/><path class="cls-28" d="M563.84,177.25s-2.79,2.73-2.79,3.67,2.09,1.51,2.09,1.51"/><path class="cls-6" d="M560,182.76l5,1.87a3,3,0,0,1-4.16,1.6C558.7,185.26,560,182.76,560,182.76Z"/><path class="cls-29" d="M561.72,175.72a.91.91,0,0,0-.11.16c0,.05-.07.11-.11.17a3.79,3.79,0,0,0-.2.34.47.47,0,0,0,0,.31.42.42,0,0,0,.18.23.39.39,0,0,0,.54-.14,2.42,2.42,0,0,0,.18-.36c.07-.15.13-.3.19-.45a.34.34,0,0,0,0-.26.38.38,0,0,0-.17-.14.28.28,0,0,0-.22,0l-.08,0a.27.27,0,0,0-.13.13Z"/><path class="cls-30" d="M563.87,174.77a1.54,1.54,0,0,0-2.11-.74"/><path class="cls-29" d="M568,178.72l-.1.17a1.62,1.62,0,0,0-.1.18l-.09.17c0,.09-.09.18-.13.27a.43.43,0,0,0,0,.16.33.33,0,0,0,0,.14.44.44,0,0,0,.19.17.46.46,0,0,0,.26,0,.41.41,0,0,0,.24-.19c.07-.14.13-.3.19-.45s.09-.25.13-.38a.34.34,0,0,0-.63-.26Z"/><path class="cls-30" d="M568.17,176.42s1.52-.17,2.62,1.83"/><path class="cls-20" d="M541.53,144.08c-.41-5.41.32-20.72-.63-21.12s-1.34,4.78-2.06,4.31-.65-8.5-1.71-8.65c-1.43-.2-1,8-1,8s-.86-9-2.16-8.8c-.91.13-.57,7-.77,9.66-.15-2.9-1-8.29-1.94-8.13s-.76,5.57-.85,9.17c-.15-2.25-.6-7.17-1.48-7.07s-1.15,12.89-1.17,23.67"/><path class="cls-20" d="M540.17,198.24a162.14,162.14,0,0,1-9.44-26.34c-3.63-14.17-3-32.61-3-32.61l13.64,2.3a114.64,114.64,0,0,0,16.15,51.27"/><path class="cls-31" d="M530.55,129.15c1.12,1.7,2.61,3.71,2.54,7.06"/><path class="cls-31" d="M538.73,128.5c-1.31,1.17-2.73,4.32-2.05,5.94"/><path class="cls-7" d="M585.43,141.47a39.88,39.88,0,0,0,5.21-7.8,40.36,40.36,0,0,0,3.26-8.8l-8.08-2.74a31.22,31.22,0,0,0,.65-8.38l8.42-1.44a40.14,40.14,0,0,0-5.75-17.72l-7.66,3.78A31.24,31.24,0,0,0,576,92L581,85a39.85,39.85,0,0,0-16.6-8.47l-2.74,8.08a31.64,31.64,0,0,0-8.38-.66l-1.44-8.42a40.27,40.27,0,0,0-17.72,5.75L537.86,89a31.29,31.29,0,0,0-6.4,5.46l-7-4.94A39.81,39.81,0,0,0,516,106.08l8.08,2.73a31.75,31.75,0,0,0-.66,8.39L515,118.63a40.31,40.31,0,0,0,5.75,17.73l7.66-3.79A31.08,31.08,0,0,0,533.9,139l-4.94,7a40.12,40.12,0,0,0,16.61,8.47l2.73-8.09a30.93,30.93,0,0,0,8.39.66l1.43,8.42a40.18,40.18,0,0,0,17.73-5.75L572.07,142a31.56,31.56,0,0,0,6.4-5.45ZM548,129.16a15.37,15.37,0,1,1,20.67-6.71A15.37,15.37,0,0,1,548,129.16Z"/><path class="cls-21" d="M562,192.82c-4.06,0-10.39-13-10.39-13L535.33,192s5.21,16.2,14,26.48"/><line class="cls-22" x1="552.99" y1="182.43" x2="536.38" y2="194.9"/><path class="cls-20" d="M604.18,137.46c-.87-6-3.14-20-4.14-20.2s-1.42,3.11-1,4.47c-.64-2.55-2.4-8.12-3.46-8.08-1.45,0,.36,8.07.36,8.07s-2.42-8.69-3.66-8.28c-.88.29.67,7,.94,9.64-.66-2.82-2.44-8-3.34-7.66s.23,5.62.77,9.18c-.55-2.19-1.85-7-2.7-6.7s1.36,11.25,2.67,22.22"/><path class="cls-20" d="M601.36,193.41a162.49,162.49,0,0,0,4.73-27.57c1.12-14.6-2.7-32.64-2.7-32.64l-13,4.63a114.72,114.72,0,0,1-7,53.3"/><path class="cls-21" d="M562,192.82s.79,2.28,5.29,2.51a13.26,13.26,0,0,0,9-2.51S593.58,195.11,595,214c1.61,21.72,2,52.23,2,52.23H543.19s.36-34.85,1.49-51.47C545.77,198.8,562,192.82,562,192.82Z"/><path class="cls-21" d="M594.94,216.35a181.38,181.38,0,0,0,8.8-29.76l-17.29-8.37s-4.11,11.47-10.13,14.6"/><line class="cls-22" x1="585.06" y1="181.53" x2="602.99" y2="190.12"/><line class="cls-22" x1="543.19" y1="263.22" x2="596.97" y2="263.22"/><path class="cls-22" d="M595.41,215.11s-2.19,4.69-2.43,7"/><path class="cls-22" d="M548.68,202.71a34.22,34.22,0,0,0-4,12"/><path class="cls-22" d="M560,192a7.65,7.65,0,0,0,7.93,6.28c8.59,0,10.29-6.28,10.29-6.28"/><path class="cls-32" d="M599,121.73c0-.06.08.1.1.16l.13.24.22.49a9.25,9.25,0,0,1,.37,1,11.08,11.08,0,0,1,.44,2.09,4.66,4.66,0,0,1-.54-.94,9.07,9.07,0,0,1-.64-2l-.08-.53,0-.27v-.14S599,121.62,599,121.73Z"/><path class="cls-20" d="M471.69,371l.94,29.62-1,9.31-35.32-.18a1.61,1.61,0,0,1-1.6-1.62h0a1.63,1.63,0,0,1,1-1.51l15.75-7.24-2.38-30.82"/><path class="cls-33" d="M433.15,409.34c.37-1.17,1.06-2.49,1.75-2.79l16.7-7.19c9.21,3.73,21.13.88,21.13.88l.91,12.58a.74.74,0,0,1-.76.74l-39.45-.2C432.61,413.35,433.14,409.37,433.15,409.34Z"/><path class="cls-24" d="M448,400.08a19.71,19.71,0,0,1,2.35,3.95"/><path class="cls-24" d="M445.88,401.34a17.15,17.15,0,0,1,1.94,3.36"/><path class="cls-24" d="M444.11,402.26a23.67,23.67,0,0,1,1.81,3.08"/><line class="cls-24" x1="473.42" y1="410.85" x2="432.98" y2="410.64"/><path class="cls-24" d="M473.06,404.83s-9.37.07-10.21,6"/><path class="cls-24" d="M438.32,405.08s2.7,3.83,3.23,5.6"/><path class="cls-34" d="M467.6,254.6s4.29,7.23,5.53,12.63a44.25,44.25,0,0,1,0,17.36L473,388.13H446.83S441,268.81,443.6,253.38"/><path class="cls-24" d="M450.83,388.13S445,268.81,447.6,253.38"/><path class="cls-20" d="M442.74,359.32l11.91,27.13,2.58,9-32.84,13a1.6,1.6,0,0,1-2.09-.9h0a1.62,1.62,0,0,1,.4-1.79l11.92-12.59-13.69-27.71"/><path class="cls-23" d="M421.27,409.27c-.09-1.22.06-2.7.59-3.23l12.82-12.9c9.93,0,19.92-7.06,19.92-7.06l5.54,11.33a.76.76,0,0,1-.42,1L423,412.9C422.27,413.2,421.27,409.31,421.27,409.27Z"/><path class="cls-24" d="M431.59,395.16a19.79,19.79,0,0,1,3.66,2.79"/><path class="cls-24" d="M430.11,397.11a17.88,17.88,0,0,1,3.05,2.39"/><path class="cls-24" d="M428.8,398.62a24,24,0,0,1,2.83,2.19"/><line class="cls-24" x1="459.21" y1="395.67" x2="421.6" y2="410.55"/><path class="cls-24" d="M456.63,390.22s-8.67,3.55-7.25,9.34"/><path class="cls-24" d="M424.48,403.4s3.94,2.55,5.09,4"/><path class="cls-23" d="M422.4,271.47c-13.47,33.11-13.71,36.61-15.93,52.77-2.28,16.58,22.63,65.39,22.63,65.39L453,379.07s-15.85-44.66-14.83-52.34c1.89-14.12,18.2-38.23,18.2-38.23s7.74-6.13,9.42-14.27-2-16.67-2-16.67"/><path class="cls-24" d="M447,275.37,457.7,272"/><line class="cls-24" x1="469.86" y1="268.96" x2="473.27" y2="267.87"/><path class="cls-24" d="M430.4,270.47s-16.66,36.19-18.93,52.77,21.95,64,21.95,64"/><path class="cls-24" d="M443.72,310.82a171.24,171.24,0,0,1,12.65-22.32s7.74-6.13,9.42-14.27"/><path class="cls-20" d="M420.13,189.54,427,201.47s-4.1,8.89-15.21,4.67l-2.84-6.3Z"/><path class="cls-20" d="M401.92,181.47s-3.37,15.87,2.5,18.7c3.06,1.47,11.6.56,13.61-2.7,1.5-2.42.91-13.85-.92-15.24C410.11,176.93,401.92,181.47,401.92,181.47Z"/><path class="cls-29" d="M416.79,176.78c-2.56-4.49-7.79-3.59-16.29,1.24-1.13.65-3.61.88-3.64,2.19,0,1.72,1.2,4.55,3.19,5.12a5.65,5.65,0,0,0,3.38-.05c1.77-.42,4.13.3,4.1,2.38,0,.54-.17,1.54.34,1.73a5.33,5.33,0,0,0,1.2,0c.8,0,1.23,1,1.13,1.8s.4,1.36.3,2.15c-.24,1.87,2.15,3.92,4,4.07,1.67.13,6.52-.68,8.82-3.81,2-2.71,1.74-7.29-1.59-14.1C420.48,176.91,417.68,176.12,416.79,176.78Z"/><path class="cls-20" d="M407.38,190.1c.54-2.54,1.85-2.82,3-2.13,1.51.92,1.18,4.54.62,5.41-1.13,1.75-2.49,2.29-3.26,1.05"/><path class="cls-35" d="M409.47,200.83c1.75-1.46,1.48-4.23,1.48-4.23"/><path class="cls-36" d="M402.44,189.05c-.25.55-.33,1.37.13,1.71a.36.36,0,0,0,.42,0C403.87,190.23,403,187.91,402.44,189.05Z"/><path class="cls-37" d="M401.72,187.3a3.76,3.76,0,0,1,2.57.55"/><path class="cls-6" d="M404.64,194.89l-2.56-.08s-.1,3.15,1.1,3.21S404.64,194.89,404.64,194.89Z"/><path class="cls-7" d="M425.4,198.71s6-1.53,14.42.94c7.13,2.07,16.2,7.41,23,14.67,11.82,12.58,6.37,43.82,6.37,43.82l-15.37-.58s2.41-20.08-5.64-28.13-19.41-9.94-19.41-9.94"/><path class="cls-20" d="M360.18,242.61c-4.82,1.33-19.41,2.92-19.64,3.91s4.9.51,4.56,1.29-8.21,2.07-8.18,3.13c.05,1.44,8-.32,8-.32s-3.31.6-2.92,1.83c.28.87,1.63,1.14,4.26.89-1.44.33-2,1-1.69,1.92s1.7.83,3.17.64c-1,.23-1.79.9-1.14,1.49.86.77,6.81.44,17.36-1.35"/><path class="cls-7" d="M410.22,202.71a12.45,12.45,0,0,0,8.66,0,17.69,17.69,0,0,0,6.52-4s10.33-.71,22.91,11.87,22.57,48.73,22.57,48.73l-52.06,17.5s-8.9-31.55-12.41-45.91S410.22,202.71,410.22,202.71Z"/><path class="cls-38" d="M447.63,207.28c10.4,12.15,23.25,52,23.25,52"/><path class="cls-7" d="M410.22,202.71c-6.86,2.62-12.75,9.28-16.36,16.13-5.93,11.23-9.53,19.38-9.53,19.38l-29.86,4.47L356,258.62s20.26-.6,36.41-3c11.48-1.73,20.36-25.52,20.36-25.52"/><path class="cls-38" d="M408.21,203.61s3.3,4.41,11.22,1.44,8.2-6.64,8.2-6.64"/><line class="cls-38" x1="408.93" y1="238.26" x2="412.17" y2="231.4"/><line class="cls-38" x1="359.14" y1="241.99" x2="360.27" y2="258.39"/><line class="cls-38" x1="417.87" y1="273.4" x2="469.86" y2="256.22"/><path class="cls-20" d="M213.1,229.82l.71.46a30.07,30.07,0,0,0,7.36,3.75c1.53.45,3.2.69,4.45,1.69a12.8,12.8,0,0,0,1.51,1.15c.15.09,1.62.64,1.56.48a2.17,2.17,0,0,0,1.33,1,.31.31,0,0,0,.19,0,.12.12,0,0,0,.1-.14c.19.37.87.53,1.08.33s-.32-1.14-.32-1.14.36,0,.46-.09a1.18,1.18,0,0,0,.23-.73,8.53,8.53,0,0,0-2.53-6.58"/><path class="cls-39" d="M229.72,234.8a.86.86,0,0,0,.05.32c0,.1.07.2.11.3l.24.59.25.6c.09.21.21.4.31.6s.35,0,.32-.14a3.42,3.42,0,0,0-.16-.63c-.09-.22-.17-.43-.27-.64s-.2-.39-.31-.58a1.81,1.81,0,0,0-.18-.27,1,1,0,0,0-.23-.22.09.09,0,0,0-.13.07Z"/><path class="cls-39" d="M227.22,234.89c.44.49.9,1,1.36,1.43a8.57,8.57,0,0,1,.61.72l.27.41c.09.14.22.25.31.39s.29,0,.25-.1a2.56,2.56,0,0,0-.16-.49,3.83,3.83,0,0,0-.27-.39,7.16,7.16,0,0,0-.69-.77c-.48-.48-1-.89-1.51-1.37a.12.12,0,1,0-.17.17Z"/><line class="cls-40" x1="211.1" y1="413.56" x2="193.33" y2="232.21"/><polyline class="cls-40" points="280.28 413.56 262.51 232.21 193.33 232.21"/><line class="cls-40" x1="244.74" y1="413.56" x2="262.51" y2="232.21"/><polyline class="cls-40" points="175.57 413.56 193.33 232.21 262.51 232.21"/><line class="cls-40" x1="277.43" y1="387.87" x2="178.08" y2="387.87"/><line class="cls-40" x1="275.12" y1="365.67" x2="180.26" y2="365.67"/><line class="cls-40" x1="273.35" y1="342.85" x2="182.5" y2="342.85"/><line class="cls-40" x1="271.13" y1="321.1" x2="184.63" y2="321.1"/><line class="cls-40" x1="268.99" y1="298.38" x2="186.76" y2="298.38"/><line class="cls-40" x1="266.79" y1="275.87" x2="188.98" y2="275.87"/><line class="cls-40" x1="264.2" y1="254.61" x2="191.14" y2="254.61"/><path class="cls-20" d="M209.24,231.76q10.65,0,21.29,0a10.93,10.93,0,0,0-1.84-2.71,9.79,9.79,0,0,0-2.65-2,23.91,23.91,0,0,0-10.71-2.64"/><path class="cls-41" d="M184.46,182.83s9.71,25.3,12.14,27.42,25.55,13.62,25.55,13.62l-7.09,15s-27.82-11.11-31.81-15-16.66-18.94-17.94-34.06"/><path class="cls-20" d="M165.93,348.23l-1,27.24.84,8.57h32.48a1.49,1.49,0,0,0,1.48-1.49h0a1.48,1.48,0,0,0-.95-1.39l-14.45-6.73,2.33-28.33"/><path class="cls-21" d="M201.2,383.68a4.57,4.57,0,0,0-1.6-2.57l-15.33-6.69c-8.48,3.39-19.43.71-19.43.71L164,386.7a.69.69,0,0,0,.69.69h36.28C201.68,387.38,201.21,383.71,201.2,383.68Z"/><path class="cls-22" d="M187.6,375.1a17.89,17.89,0,0,0-2.19,3.63"/><path class="cls-22" d="M189.52,376.27a16.44,16.44,0,0,0-1.79,3.08"/><path class="cls-22" d="M191.15,377.12a22.92,22.92,0,0,0-1.68,2.83"/><line class="cls-22" x1="164.15" y1="384.89" x2="201.35" y2="384.88"/><path class="cls-22" d="M164.52,379.36s8.61.1,9.36,5.53"/><path class="cls-22" d="M196.46,379.74a29.43,29.43,0,0,0-3,5.14"/><path class="cls-7" d="M158.75,245.85s-3.13,13.88,3.61,30.7a249.83,249.83,0,0,1,3.52,37.67c.27,20.5-2.46,46.63-2.46,56.38h26.71s3.28-27.78,3.57-55.78c.33-31.36-2.33-66.76-2.33-75.9"/><path class="cls-38" d="M186.13,370.6s3.29-28.29,3.58-56.64c.32-31.15-2.34-66-2.34-75"/><path class="cls-20" d="M211.1,326.07l-1,27.23.84,8.57h32.48a1.48,1.48,0,0,0,1.48-1.49h0a1.47,1.47,0,0,0-1-1.38l-14.45-6.73,2.33-28.33"/><path class="cls-21" d="M246.37,361.51c-.34-1.07-1-2.29-1.6-2.56l-15.33-6.69C221,355.65,210,353,210,353l-.89,11.56a.69.69,0,0,0,.69.69h36.28C246.85,365.21,246.38,361.55,246.37,361.51Z"/><path class="cls-22" d="M232.77,352.94a18,18,0,0,0-2.19,3.62"/><path class="cls-22" d="M234.69,354.1a16.44,16.44,0,0,0-1.79,3.08"/><path class="cls-22" d="M236.32,355a25.1,25.1,0,0,0-1.68,2.83"/><line class="cls-22" x1="209.32" y1="362.72" x2="246.52" y2="362.71"/><path class="cls-22" d="M209.69,357.19s8.61.11,9.36,5.53"/><path class="cls-22" d="M241.63,357.58a29.24,29.24,0,0,0-3,5.13"/><path class="cls-7" d="M203.76,247.37s25.67,24.33,31.46,40.18c4,11.05-1.83,61.47-1.83,61.47H207.82s3.12-45.9,1.5-50.64c-1.89-5.57-23.91-24.56-23.91-24.56a21.64,21.64,0,0,1-13.82-12.09c-4-9-2.15-19.92-2.15-19.92"/><path class="cls-38" d="M197.76,247.37s26.61,28.13,31.46,40.18c3.68,9.15-1.83,61.47-1.83,61.47"/><path class="cls-38" d="M193.16,280.74c-2-1.83-5.51-5-6.58-5.9a7,7,0,0,0-2.32-1.37,21.76,21.76,0,0,1-12.67-11.74"/><path class="cls-38" d="M178.67,256.12s7.65.27,10.85,0"/><line class="cls-38" x1="158.03" y1="256.12" x2="164.2" y2="256.12"/><path class="cls-20" d="M249.64,185.75c2.69-1.23,14.9-6.57,15.19-5.83s-3.58,3.29-3.16,3.41a23.76,23.76,0,0,0,5.43-1.67c1.54-.76,4.14-1.72,4.55-1.09.79,1.19-7.72,5.23-7.72,5.23s1.51-.69,2.27.24c1.11,1.34-1.23,2.59-1.23,2.59s1.34-.68,1.78.47-1.54,2.18-1.54,2.18,1.58-.76,1.79.69c.26,1.9-12.44,6.38-12.44,6.38"/><path class="cls-21" d="M187.73,173.39a8.81,8.81,0,0,1-6.63,1.33C177,174,176,172.06,176,172.06s-10.84,1.51-16.06,35a218.56,218.56,0,0,0-2.45,42.62H207s1.51-51.11-1-60.61"/><path class="cls-21" d="M191.62,198s14.65,16.19,28.32,16.19,39.4-14.51,39.4-14.51l-6.15-16.87L223.3,193.5s-15.75-14.71-23-17.42a39.3,39.3,0,0,0-12.56-2.69"/><path class="cls-22" d="M207.37,210.43s-9.2-7-13.64-10.31"/><line class="cls-22" x1="250.34" y1="183.8" x2="255.97" y2="201.47"/><line class="cls-22" x1="157.37" y1="245.52" x2="207.08" y2="245.52"/><path class="cls-22" d="M198.64,203.81c.49,14.21,0,45.83,0,45.83"/><path class="cls-20" d="M176.21,164.77l-1.12,9s8.71,4.57,14.49-.28v-5.27Z"/><path class="cls-20" d="M188,150.6s10.18,12.84,6.45,17.6c-1.93,2.47-8.24,1.88-11.25,0-2.24-1.4-8.47-8.85-7.52-10.75C179.37,150.18,188,150.6,188,150.6Z"/><path class="cls-27" d="M186.73,153a64.85,64.85,0,0,1-.5,9.86l-.78,16.89s-13.44,1.43-22-4.53c0,0,2.88-17.76,9.28-23.13,6.1-5.12,14-4.75,18.05-1.44,0,0-.56,1.55-1.31,1.9a10.36,10.36,0,0,1-2.71.45"/><path class="cls-20" d="M187.61,161.1c-1.25-1.57-2.25-1.32-2.8-.46-.74,1.16.73,3.56,1.42,4,1.38.83,2.51.74,2.61-.39"/><path class="cls-35" d="M189.69,169.78a2.06,2.06,0,0,1-1.93-1.23"/><path class="cls-36" d="M190.71,157.11c.43.36.83,1,.59,1.48a.33.33,0,0,1-.34.18C190,158.68,189.82,156.37,190.71,157.11Z"/><path class="cls-42" d="M190.59,155.36a2.21,2.21,0,0,0-1.91,1.51"/><path class="cls-6" d="M191.49,163.74l2.26-.72s.89,2.78-.16,3.13S191.49,163.74,191.49,163.74Z"/><path class="cls-27" d="M179.16,149a2.12,2.12,0,0,0,1.5-2.09,2.69,2.69,0,0,0-1.45-2.23,3.73,3.73,0,0,0-2.71-.22,2.75,2.75,0,0,0-.95.44,2.91,2.91,0,0,0-.31,3.89,2.41,2.41,0,0,0,1.38,1,4.15,4.15,0,0,0,2.43-.47"/><path class="cls-20" d="M191.79,157c.26.14,2.94,1.3,3,2.38,0,.61-1.48,1.27-1.48,1.27"/><path class="cls-20" d="M227.05,229.64a15.69,15.69,0,0,1,2.78,4.8.51.51,0,0,1,.06.2c0,.32-.47.34-.77.23a6.17,6.17,0,0,1-1.86-1.11,5,5,0,0,0-.68-.54,3.94,3.94,0,0,0-1.53-.35,7,7,0,0,1-5.35-3.23"/><path class="cls-43" d="M227.05,229.64a11.15,11.15,0,0,1,2.5,3.7l.47,1c0,.13.11.23.08.4a.49.49,0,0,1-.32.36,1.12,1.12,0,0,1-.7,0,6.55,6.55,0,0,1-2-1.16,2.85,2.85,0,0,0-.83-.61,4,4,0,0,0-1-.21,8.42,8.42,0,0,1-2.21-.55,6.06,6.06,0,0,1-3.32-2.93,6.64,6.64,0,0,0,3.45,2.57,10.38,10.38,0,0,0,2.13.46,4,4,0,0,1,1.15.22,3.2,3.2,0,0,1,1,.67,6,6,0,0,0,1.82,1.11.75.75,0,0,0,.39,0l0,0s0-.08,0-.14c-.16-.34-.3-.69-.43-1A14.14,14.14,0,0,0,227.05,229.64Z"/><path class="cls-20" d="M56.72,372.53l-.91,28.54.93,9,34-.18a1.57,1.57,0,0,0,1.55-1.57h0a1.55,1.55,0,0,0-1-1.44l-15.18-7,2.3-29.7"/><path class="cls-33" d="M93.86,409.49c-.36-1.13-1-2.39-1.69-2.68l-16.09-6.93c-8.87,3.59-20.36.84-20.36.84l-.88,12.12a.72.72,0,0,0,.73.72l38-.2C94.38,413.36,93.87,409.52,93.86,409.49Z"/><path class="cls-44" d="M79.56,400.57a19.57,19.57,0,0,0-2.27,3.81"/><path class="cls-44" d="M81.59,401.78A16.71,16.71,0,0,0,79.72,405"/><path class="cls-44" d="M83.3,402.67a23.85,23.85,0,0,0-1.75,3"/><line class="cls-44" x1="55.05" y1="410.95" x2="94.02" y2="410.74"/><path class="cls-44" d="M55.4,405.15s9,.06,9.84,5.75"/><path class="cls-44" d="M88.87,405.39s-2.6,3.69-3.11,5.4"/><path class="cls-7" d="M59.87,270.39S78,304.28,83.69,325.59s-1.89,69.32-1.89,69.32H53.66s5.61-52.1-1-69.32-30.42-62.52-30.42-62.52"/><path class="cls-38" d="M57.51,394.91s4.62-54.2,1.81-67.59-22.26-44.55-22.26-44.55"/><path class="cls-20" d="M24.48,356.65,7.85,379.58l-4.53,7.8,27.62,19.87a1.54,1.54,0,0,0,2.17-.35h0a1.55,1.55,0,0,0,0-1.76L25,390.56l18.44-24"/><path class="cls-33" d="M33.66,408.76c.37-1.12.58-2.53.21-3.15l-8.93-15.08c-9.29-2.31-17-11.29-17-11.29L.14,388.53a.72.72,0,0,0,.16,1l30.86,22.2C31.8,412.2,33.65,408.8,33.66,408.76Z"/><path class="cls-44" d="M27.35,393.14a18.67,18.67,0,0,0-4.08,1.75"/><path class="cls-44" d="M28.27,395.31a16.15,16.15,0,0,0-3.41,1.53"/><path class="cls-44" d="M29.14,397A22.8,22.8,0,0,0,26,398.41"/><line class="cls-44" x1="1.42" y1="387.12" x2="33.06" y2="409.88"/><path class="cls-44" d="M5.11,382.63s7.26,5.36,4.58,10.44"/><path class="cls-44" d="M32,402.52s-4.27,1.45-5.69,2.53"/><path class="cls-7" d="M14.79,263.07c-5.36,15.19,0,27.14,0,27.14s18.27,33.39,18.27,40.17c0,6.23-23.44,41.69-23.44,41.69l21.43,17.22s33.67-36.23,33-61.3c-.79-31-17.66-64.92-17.66-64.92"/><path class="cls-38" d="M18.79,264.07c-5.36,15.19,1.11,25.42,1.11,25.42s17.16,35.11,17.16,41.89c0,6.23-24.35,43.17-24.35,43.17"/><path class="cls-38" d="M55.55,355.48c5-9.22,8.74-19,8.53-27.49-.79-31-17.66-64.92-17.66-64.92"/><path class="cls-38" d="M17,276s9.57.57,13.32-7.12"/><path class="cls-38" d="M53.68,280.37s2.62.29,2.37-1-2.37-8.28-2.37-8.28"/><path class="cls-45" d="M65.83,182.5c1,6.13.21,11.54-5,12.35s-12.49-.67-13.91-9.4c-1-6.12,2.46-11.75,7.69-12.56S64.85,176.38,65.83,182.5Z"/><path class="cls-36" d="M61.6,182.56c-.11.56,0,1.34.49,1.56a.33.33,0,0,0,.39-.07C63.19,183.35,61.83,181.39,61.6,182.56Z"/><path class="cls-46" d="M59.86,181.17a4.27,4.27,0,0,1,3.6-.24"/><path class="cls-6" d="M65,188.91H61.59s-.21,2.83,1.49,3.12C64.49,192.29,65,188.91,65,188.91Z"/><path class="cls-45" d="M58,201.56a20.67,20.67,0,0,1-7.89-.35c-4.52-1.23-5.8-3.07-5.8-3.07l6.26-13.06,9.66,4.38Z"/><path class="cls-26" d="M59.25,195s-4.21.14-6.4-1.93"/><path class="cls-45" d="M64.73,182.32s2.61,3.83,2.48,4.52-2,1-2,1"/><path class="cls-47" d="M50.66,191a6.39,6.39,0,0,1-1.8.41,6.3,6.3,0,0,1-3.6-.62,5.43,5.43,0,0,1-2.85-5.67c.07-.36.19-.72.25-1.08.27-1.71-.73-3.35-1-5.06a6.78,6.78,0,0,1,1.09-4.79,8.27,8.27,0,0,1,3.92-3c1.25-.48,2.62-.65,3.66-1.55a11.62,11.62,0,0,1,1.47-1.24c2.6-1.63,6.3-.74,8.63,1a2.8,2.8,0,0,0,.88.52c.57.15,1.17-.09,1.75,0,2.23.45,3.2,3.74,3.18,5.71a2.77,2.77,0,0,1-.5,1.65,3.12,3.12,0,0,1-2.18,1.08,20.47,20.47,0,0,0-3.5.26c-.79.24-1.48.75-2.25,1.06a4.71,4.71,0,0,1-3.75-.12,5.82,5.82,0,0,1,.28,2.51c-.24,1.57-1.57,2.35-3,2.74a9.67,9.67,0,0,1,.35,5.19A1.74,1.74,0,0,1,50.66,191Z"/><path class="cls-25" d="M52.59,183.46a1.89,1.89,0,0,0-2.72-.29c-1.89,1.58.58,5,2.08,5.54s1.95-1.11,1.95-1.11"/><path class="cls-7" d="M123.64,250.14A33.73,33.73,0,0,0,133,237.53l-6.33-3.38a26,26,0,0,0,1.7-6.87l7.18,0a33.74,33.74,0,0,0-2.33-15.49l-6.87,2.08a26.44,26.44,0,0,0-3.64-6.06l5-5.09a33.52,33.52,0,0,0-12.61-9.31l-3.38,6.32a26.79,26.79,0,0,0-6.87-1.7l0-7.18a34,34,0,0,0-15.49,2.33L91.41,200a26.09,26.09,0,0,0-6.06,3.64l-5.09-5A33.59,33.59,0,0,0,71,211.22l6.33,3.39a25.83,25.83,0,0,0-1.7,6.86l-7.19,0A34.06,34.06,0,0,0,70.72,237l6.88-2.09A26.5,26.5,0,0,0,81.24,241l-5,5.09a33.52,33.52,0,0,0,12.61,9.31l3.38-6.33a26,26,0,0,0,6.86,1.7l0,7.18a33.8,33.8,0,0,0,15.5-2.33l-2.09-6.87a26.19,26.19,0,0,0,6.07-3.65ZM94.41,234.59a12.7,12.7,0,1,1,17.75-2.67A12.7,12.7,0,0,1,94.41,234.59Z"/><path class="cls-20" d="M103.86,248.59c2.93.25,16.2,1.6,16.09,2.38s-4.6,1-4.43,1.42c.25.59,3.63,1.1,5.55,1.21,1.71.09,4.45.53,4.5,1.28.11,1.43-9.29.77-9.29.77,0,.44,10.24-1.18,10.45,0,.3,1.71-10.59,2.55-10.93,3,0,0,9.23-3.35,9.45-2.08s-8,4.46-10.55,4.51c2.13-.44,8.41-4,8.57-3.05s-5.39,3.33-6.29,3.48a66.34,66.34,0,0,1-15,.5"/><path class="cls-23" d="M58.21,200.72s-2.86,1.35-7.17-.52c-4.69-2-5.67-4.38-5.67-4.38s-25.44,2.25-34.75,72.83l52.09,6.46s4.19-25.23,3.52-45.64c-.42-13-5.47-23.12-8-28.75"/><path class="cls-23" d="M42.92,229s8,26.84,29.65,32.65a146.15,146.15,0,0,0,34.32,5.15l2.09-18.1S85.42,244.45,75.72,238C68.34,233.15,66.9,217.51,65,212c-2.59-7.68-6.82-11.25-6.82-11.25"/><path class="cls-24" d="M43.29,196.36s1.59,4.93,9,6.54c5.42,1.18,7.55-.44,7.55-.44"/><path class="cls-24" d="M64.08,258.58s-19.73-9.12-20.79-34.93"/><line class="cls-24" x1="104.6" y1="247.8" x2="101.95" y2="266.56"/></g></g></svg>