<svg xmlns="http://www.w3.org/2000/svg" xmlns:xlink="http://www.w3.org/1999/xlink" viewBox="0 0 305.53 242.71"><defs><style>.cls-1,.cls-12,.cls-14,.cls-17,.cls-19,.cls-23,.cls-27,.cls-33,.cls-37,.cls-42,.cls-43,.cls-44,.cls-45,.cls-5,.cls-6{fill:none;}.cls-2{isolation:isolate;}.cls-3{opacity:0.45;}.cls-4{fill:#d2def9;}.cls-27,.cls-5,.cls-6{stroke:#fff;}.cls-19,.cls-23,.cls-27,.cls-37,.cls-42,.cls-43,.cls-44,.cls-45,.cls-5{stroke-miterlimit:10;}.cls-44,.cls-45,.cls-5,.cls-6{stroke-width:0.72px;}.cls-12,.cls-14,.cls-17,.cls-33,.cls-6{stroke-linejoin:round;}.cls-7{fill:#e9f1ff;}.cls-8{fill:#f777ba;}.cls-9{fill:#0b0b3a;}.cls-10{fill:#18277a;}.cls-11{fill:#212237;}.cls-12,.cls-14{stroke:#cc328a;}.cls-12,.cls-19,.cls-33,.cls-37,.cls-42,.cls-43{stroke-width:0.36px;}.cls-13{fill:#ff855a;}.cls-14,.cls-17{stroke-width:0.24px;}.cls-15{fill:#fff;}.cls-16{fill:#00276f;}.cls-17{stroke:#00276f;stroke-linecap:round;}.cls-18{fill:#ff9357;}.cls-19{stroke:#a52f2d;}.cls-20{fill:#83a3fc;}.cls-21{clip-path:url(#clip-path);}.cls-22{opacity:0.19;mix-blend-mode:screen;}.cls-23,.cls-44{stroke:#91abe5;}.cls-23,.cls-27{stroke-width:5.25px;}.cls-24{fill:#ffc7ca;}.cls-25{clip-path:url(#clip-path-2);}.cls-26{opacity:0.25;}.cls-28{fill:#b5c8f7;}.cls-29{clip-path:url(#clip-path-3);}.cls-30{fill:#9fbfff;}.cls-31{clip-path:url(#clip-path-4);}.cls-32{opacity:0.35;}.cls-33{stroke:#1a3987;}.cls-34{fill:#ffe1ad;}.cls-35{fill:#cc328a;}.cls-36{fill:#2a2a68;}.cls-37{stroke:#5565aa;}.cls-38{fill:#2e7efa;}.cls-39{fill:#4376cf;}.cls-40{fill:#9cd0ff;}.cls-41{fill:#816fc2;}.cls-42{stroke:#4c3f89;}.cls-43{stroke:#d19b4b;}.cls-45{stroke:#ff9c94;}</style><clipPath id="clip-path"><path class="cls-1" d="M202.6,127.63a1.42,1.42,0,0,0-1.21,2.3,9.37,9.37,0,0,1,2.16,6.59c-.4,5.58-5.88,9.75-12.24,9.3s-11.2-5.35-10.81-10.93a9.38,9.38,0,0,1,3.06-6.22,1.42,1.42,0,0,0-.87-2.45l-15.47-1.09a5.87,5.87,0,0,0-6.27,5.44l-1.06,15a1.42,1.42,0,0,0,2.25,1.25,9.22,9.22,0,0,1,6-1.74c5.59.39,9.76,5.87,9.31,12.24s-5.35,11.2-10.94,10.8a9.18,9.18,0,0,1-5.72-2.57,1.43,1.43,0,0,0-2.41.93l-1,15a5.87,5.87,0,0,0,5.44,6.27l50.85,3.59a5.87,5.87,0,0,0,6.27-5.44L223.51,135a5.87,5.87,0,0,0-5.44-6.27Z"/></clipPath><clipPath id="clip-path-2"><path class="cls-1" d="M140.78,103.35c-5.56-.7-9.42-6.4-8.62-12.73s5.94-10.89,11.5-10.2a9.39,9.39,0,0,1,5.88,3.21,1.41,1.41,0,0,0,2.47-.76l1.91-15.2a5.87,5.87,0,0,0-5.09-6.56L98.25,54.75a5.87,5.87,0,0,0-6.55,5.1l-6.36,50.57A5.86,5.86,0,0,0,90.43,117l15.46,1.94a1.41,1.41,0,0,0,1.32-2.24,9.37,9.37,0,0,1-1.84-6.77c.7-5.56,6.39-9.42,12.72-8.62s10.9,5.94,10.2,11.5a9.39,9.39,0,0,1-3.46,6.1,1.42,1.42,0,0,0,.73,2.51L141,123.34a5.88,5.88,0,0,0,6.56-5.09l1.91-15.2a1.42,1.42,0,0,0-2.21-1.36A9.34,9.34,0,0,1,140.78,103.35Z"/></clipPath><clipPath id="clip-path-3"><path class="cls-1" d="M214.36,57.83l-51-.53a5.87,5.87,0,0,0-5.93,5.81l-.15,15.08A1.43,1.43,0,0,1,155,79.27,9.27,9.27,0,0,0,149,77c-5.6-.06-10.2,5.06-10.26,11.44s4.42,11.6,10,11.66a9.3,9.3,0,0,0,6-2.19A1.42,1.42,0,0,1,157.08,99l-.16,15.09a5.87,5.87,0,0,0,5.81,5.93l15.6.16a1.42,1.42,0,0,1,1,2.41,9.39,9.39,0,0,0-2.75,6.48c-.06,5.6,5.06,10.19,11.44,10.26s11.6-4.42,11.66-10a9.4,9.4,0,0,0-2.63-6.54,1.42,1.42,0,0,1,1.06-2.38l15.6.16a5.88,5.88,0,0,0,5.93-5.81l.53-51A5.87,5.87,0,0,0,214.36,57.83Z"/></clipPath><clipPath id="clip-path-4"><path class="cls-1" d="M158,144.56a9.31,9.31,0,0,0-6,2.74,1.42,1.42,0,0,1-2.4-1l-.86-15.23a5.86,5.86,0,0,0-6.19-5.53l-15.52.87a1.42,1.42,0,0,1-1.17-2.33,9.36,9.36,0,0,0,2.28-6.59c-.31-5.59-5.73-9.84-12.1-9.48s-11.28,5.18-11,10.77a9.34,9.34,0,0,0,3,6.3,1.42,1.42,0,0,1-.91,2.44l-15.51.87a5.87,5.87,0,0,0-5.54,6.19L89,185.53a5.87,5.87,0,0,0,6.19,5.53L146,188.21a5.88,5.88,0,0,0,5.54-6.19l-.86-15.24a1.42,1.42,0,0,1,2.29-1.2,9.33,9.33,0,0,0,6.3,2c5.59-.31,9.83-5.73,9.48-12.1S163.61,144.24,158,144.56Z"/></clipPath></defs><g class="cls-2"><g id="レイヤー_2" data-name="レイヤー 2"><g id="OBJECTS"><g class="cls-3"><path class="cls-4" d="M6.05,48.72H40.82c5.46,0,7.15-.18,12.6,0,.06-3.36-.88-6.53-2.48-8.23a5.91,5.91,0,0,0-5.45-1.66c-2.35.62-4,2.19-5.47,3.36-.54-4.63-2.45-8.85-4.51-9.77-3.54-1.59-7.24.93-8.9,3.37a15.18,15.18,0,0,0-2.4,6.82c-2.22-2.46-7.19-4.33-9-.44a10.68,10.68,0,0,0-.57,5A10.34,10.34,0,0,0,6.05,48.72Z"/></g><g class="cls-3"><path class="cls-4" d="M261.57,18.71c-.66-2.72-7-6.69-10.36-4.29-1-5.18-2-8.41-5.39-11s-9,.79-9.94,7.77c-.9-2.88-5.52-6.74-9.23-3.48-3.43,3-3.77,8.08-3.41,11Z"/></g><g class="cls-3"><path class="cls-4" d="M305.53,54.87a6.4,6.4,0,0,0-5.35-4.22A11.38,11.38,0,0,0,294.25,52s1.1-4.25-.4-7.6c-1-2.28-2.65-4.42-4.92-5s-4.83.57-6.58,2.37a21.11,21.11,0,0,0-3.87,6.6c-.52-1.69-1.21-3.6-2.74-4.23s-3.42.48-4.25,2.09a10.39,10.39,0,0,0-.76,5.41,5.94,5.94,0,0,0-6-.33,4.92,4.92,0,0,0-2.2,3.53Z"/></g><path class="cls-4" d="M92.71,113a53.32,53.32,0,0,1-24.33-17.8C62.11,87.14,55,69.5,56.26,54.63,84,62.87,95.32,88.67,97,104.32"/><path class="cls-5" d="M56.26,54.63S60.83,90.43,93,110.2"/><path class="cls-5" d="M56.26,54.63s18.95,34,39.72,54.61"/><path class="cls-5" d="M56.26,54.63s28,22.22,41,52.64"/><path class="cls-4" d="M92.8,172.1a56.89,56.89,0,0,1-34.37,1.23c-11.28-3-30-14.6-39.36-29.8,26.84-9.14,59,3.27,71.52,17"/><path class="cls-6" d="M19.07,143.53s29.25,30.94,72,25.74"/><path class="cls-6" d="M19.07,143.53S60,161.87,93.13,166.06"/><path class="cls-6" d="M19.07,143.53s40.76.26,73.84,19.65"/><path class="cls-7" d="M103.1,96.77A56.3,56.3,0,0,1,83.6,68.94c-3.58-11-4-32.74,3.55-48.66,22,17.34,29,50.69,24.33,68.46"/><path class="cls-6" d="M87.15,20.28s-9.93,40.89,17.38,73.54"/><path class="cls-6" d="M87.15,20.28S93.93,64,108.29,93.8"/><path class="cls-6" d="M87.15,20.28s21.7,33.93,23.41,71.79"/><path class="cls-4" d="M187.34,91.64a49.85,49.85,0,0,0,24.93-13.28c6.88-6.62,15.77-22,16.62-36C202,46.33,188.15,68.77,184.51,83.06"/><path class="cls-6" d="M228.89,42.38s-9,32.59-41.4,46.67"/><path class="cls-6" d="M228.89,42.38s-22.09,29-44.09,45.37"/><path class="cls-6" d="M228.89,42.38s-28.9,16.89-45,43.37"/><path class="cls-4" d="M213.59,167.4c13.72,2.6,28.13.62,41-4.7s33.28-21.51,41.92-40c-38.67-9-69.59,14-82.21,31.54"/><path class="cls-6" d="M296.56,122.66s-29.73,39.52-81.38,41.28"/><path class="cls-6" d="M296.56,122.66s-40.69,27.19-82.37,34.85"/><path class="cls-6" d="M296.56,122.66s-48.39,7.48-84.55,34.85"/><path class="cls-7" d="M175.22,88C187,82.91,196.73,73.84,203.4,62.93S216.13,28.62,212,9.49c-28.19,13.08-44.31,47.3-43.79,67.68"/><path class="cls-6" d="M212,9.49s.25,46.68-37.59,74.94"/><path class="cls-6" d="M212,9.49s-18.52,45.5-41.65,74"/><path class="cls-6" d="M212,9.49S179.92,40.57,168.38,81"/><path class="cls-7" d="M90.9,154.09c-6.39,1-17.27,2.49-23.28-1.53-3.33-2.22-3.94-6.32-5.24-9.94a16,16,0,0,0-12.85-10.87c-2.43-.42-5-1.51-6.16-3.83-1.73-3.45.4-7.89-1-11.51-.75-1.94-2.37-3.32-3.7-4.86-3.23-3.74-4-9.28-4-9.28a15.15,15.15,0,0,0,8.29-.13,19.62,19.62,0,0,1,8.8-1,8.82,8.82,0,0,1,5.56,3.41c1.8,2.15,3.3,3.78,5.89,4.68,4,1.38,13.9-2,15,3.77.3,1.56-.07,3.26.65,4.72,1.3,2.64,4.46,1.3,6.61,2,3.31,1,6.92,3.42,8.34,6.52,3.38,7.41,3.23,17.61,1.32,25.65"/><path class="cls-6" d="M35,102.38c10.79,11.65,27.11,16,37.62,28,3.16,3.58,5.68,7.74,8.66,11.49s6.55,7.19,10.93,8.67"/><path class="cls-6" d="M42.54,124.7a82.44,82.44,0,0,0,22.68-1.13s-2.08-10.93-3.83-15.11"/><path class="cls-6" d="M42.72,121.06c6.2.45,11.4.08,18.63-.21"/><path class="cls-6" d="M41.82,115.49A70.93,70.93,0,0,0,51.88,115"/><path class="cls-6" d="M36.64,108.43a27.14,27.14,0,0,0,5.48.21"/><path class="cls-6" d="M49.76,113.72s-2.47-7.74-4.43-12.16"/><path class="cls-6" d="M59.88,119.89s-2.49-12.3-4.9-17.44"/><path class="cls-6" d="M55,133.65a76.3,76.3,0,0,0,19.52-1"/><path class="cls-6" d="M71.89,129.49s-1.08-13.13-2.78-19.84"/><path class="cls-6" d="M80.31,118.16c1.24,8.1,1.41,24.16,1.41,24.16s-13.68,1.86-19.34.3"/><path class="cls-6" d="M87.56,148s.49-18.19-.58-27.71"/><path class="cls-6" d="M63.38,146.23s11,1.56,20.31-1.64"/><path class="cls-6" d="M89.83,149.47s3.17-14.35.84-27"/><path class="cls-7" d="M179,75.93c2.91-7.51,7.64-14.94,4.73-23.24-1.61-4.59-6.51-6.52-10.27-9-6.42-4.23-9.3-10.68-8.82-18.3.19-3.05-.34-6.44-2.66-8.43-3.45-3-9.1-1.47-12.84-4.06-2-1.39-3.12-3.69-4.51-5.7-3.36-4.85-9.45-7.2-9.45-7.2a20.14,20.14,0,0,1-2.45,10,26.2,26.2,0,0,0-3.53,10.45,11,11,0,0,0,2.34,7.6c2,2.71,3.4,4.94,3.7,8.31.47,5.2-6.1,16.39.14,19.13,1.7.75,3.73.73,5.19,2,2.66,2.24.25,5.74.42,8.52.26,4.27,2,9.25,5.11,11.75,7.5,5.94,19.17,8.29,28.87,8"/><path class="cls-6" d="M135.15.51c10.29,16,10.74,36.89,21.42,52.62,3.21,4.72,7.24,8.81,10.69,13.36s6.37,9.74,6.84,15.42"/><path class="cls-6" d="M150.92,42.41S139,37.17,134.76,34"/><path class="cls-6" d="M154.31,14.47c-1.21,7.64-3.08,13.86-5.42,22.56"/><path class="cls-6" d="M148.2,12a92.33,92.33,0,0,1-3.33,12.09"/><path class="cls-6" d="M141.6,4c.08.06-.16,2.12-1.28,6.71"/><path class="cls-6" d="M144,21.19s-8.13-4.92-12.63-8.4"/><path class="cls-6" d="M148.21,35s-13.33-6.07-18.51-10.28"/><path class="cls-6" d="M164.31,21.19c-1.16,4.41-3.38,15.84-10,27.23"/><path class="cls-6" d="M155.82,52S141.15,47.4,134,43.67"/><path class="cls-6" d="M172.59,75.61S151.73,71.68,141.18,68"/><path class="cls-6" d="M177.26,45.81S176,59.57,169.74,70.05"/><path class="cls-7" d="M220.93,141.66c8.3-1.6,17.53-1.54,23.28-8.74,3.18-4,2.17-9.42,2.27-14.14.19-8.06,4.31-14.21,11.35-18,2.81-1.53,5.52-3.89,6-7.06.7-4.71-3.76-8.9-3.54-13.66.11-2.56,1.54-4.84,2.55-7.19,2.43-5.69,1.13-12.4,1.13-12.4a21.13,21.13,0,0,1-10.27,3.41,27.14,27.14,0,0,0-11.25,2.68A11.52,11.52,0,0,0,237,72.84c-1.32,3.25-2.5,5.78-5.32,7.92-4.36,3.31-18,3.71-16.92,10.78.28,1.93,1.43,3.71,1.15,5.7-.51,3.61-5,3.42-7.33,5.12-3.65,2.61-7.13,6.91-7.59,11.09-1.1,10,3.32,21.64,9,30.08"/><path class="cls-6" d="M263.52,60.73c-8.47,18-26.78,30.09-34.8,48.34-2.41,5.48-3.8,11.34-5.92,16.93s-5.1,11.1-9.89,14.68"/><path class="cls-6" d="M263.53,89.63a114.92,114.92,0,0,1-28.44,8.45s-2-13.47-1.54-19"/><path class="cls-6" d="M261.79,85.52c-7.45,3.18-14,5-23.05,7.76"/><path class="cls-6" d="M260.59,78.73A99,99,0,0,1,248,82.51"/><path class="cls-6" d="M264.06,68.38c0,.1-2,1-6.67,2.6"/><path class="cls-6" d="M250.08,80.1c0,.05-.16-10,.42-15.9"/><path class="cls-6" d="M240.15,91.55s-2-15.22-1.18-22.17"/><path class="cls-6" d="M251.85,105.29a106.47,106.47,0,0,1-24.5,7.19"/><path class="cls-6" d="M229.32,107.75s-4.11-15.57-4.79-24"/><path class="cls-6" d="M214.24,98.34c1.83,9.85,8.27,28.41,8.27,28.41s17.63-3.75,24-8"/><path class="cls-6" d="M217.67,135.82s-8.13-20.72-10.76-32.13"/><path class="cls-6" d="M246.74,123.37S233.8,129.89,221,130.2"/><path class="cls-6" d="M215.48,138.46s-9.86-15.16-12.21-30.66"/><path class="cls-8" d="M187.28,107.78c1.13,2.37,5.72,12.37,6.85,14.74-3.68,1.18-7,2.7-10.65,4.08-1.53,2.06,1.88-2,2-4.23"/><path class="cls-9" d="M195.18,125.82l-2.09.72a7,7,0,0,0-.36-1,8,8,0,0,0-1.31.57,1.68,1.68,0,0,0-.22.59,1.07,1.07,0,0,1-.67.73l-8.27,2.86c-1,.35-1.61-.84-.73-1.82s2.55-2.8,2.63-2.85c3.41-.81,8.57-3.29,9.23-4.8C194.49,121.41,195.18,125.79,195.18,125.82Z"/><path class="cls-8" d="M186.37,80.67c.19,5.41-.38,16.25.35,20.85.46,2.89,5.67,17.28,5.67,17.28l-6.87,3.57a91.31,91.31,0,0,1-9.24-19.86c-2.18-7-2.35-14.65-2.35-21"/><path class="cls-8" d="M204.31,96.62c1.93,1.78,9.9,9.36,11.83,11.14-3,2.46-5.54,5.12-8.38,7.74-.65,2.48,1-2.56.33-4.69"/><path class="cls-9" d="M218.33,110.44l-1.66,1.43a9.28,9.28,0,0,0-.72-.8,9.06,9.06,0,0,0-1,1,1.9,1.9,0,0,0,0,.63,1.06,1.06,0,0,1-.34.93L208,119.37c-.81.7-1.81-.19-1.35-1.42s1.33-3.54,1.39-3.62c2.86-2,6.74-6.23,6.79-7.88C216.06,106.59,218.33,110.41,218.33,110.44Z"/><path class="cls-8" d="M197.61,70.49s-.42,15.92,1.77,20c2.59,4.79,11,12,11,12l-2.26,8.39s-11.77-6.57-17.92-14.47c-4.66-6-4.88-24.93-4.88-24.93"/><path class="cls-10" d="M197,57.18c8.29,6.4,7.62,32,7.62,32s-9.23,2.42-16.75,2.42a117.54,117.54,0,0,1-15.38-1.2c.46-22,4.36-27.75,6.56-31.51"/><path class="cls-11" d="M181.48,22.21s1.87,5.45,1.57,6.72-4.43.92-5.48.86a31.61,31.61,0,0,1,.83-6.66"/><path class="cls-8" d="M182.11,28.62l.44,3s2.21,1.42,4.07.67,1.85-1.86,1.85-1.86l-2.35-5.56"/><path class="cls-8" d="M179,23.29c0,3.91.66,7,3.24,6.78a4.06,4.06,0,0,0,3.77-5.5C185,21.37,179.24,21,179,23.29Z"/><path class="cls-12" d="M182.36,30.29A4.48,4.48,0,0,0,186,27.57"/><polygon class="cls-13" points="185.61 24.41 185.61 24.4 185.61 24.41 185.61 24.41"/><path class="cls-13" d="M185.59,24.41v0a0,0,0,0,0,0,0l0,0v0a0,0,0,0,0,0,0,0,0,0,0,0,0,0Z"/><path class="cls-11" d="M183.07,23a8.16,8.16,0,0,1-5.23,0,3.54,3.54,0,0,1,3.51-3.27,4.25,4.25,0,0,1,4.26-.84,5.52,5.52,0,0,1,3.16,2.65c1.25,2.1,1.51,5.29,1.49,7.06a23.65,23.65,0,0,1-4.78.87C185.53,29.45,184.72,24.15,183.07,23Z"/><path class="cls-8" d="M184.37,25.61a.66.66,0,0,1,.35-.61c.54-.33,1.06.31,1.12.9a1.69,1.69,0,0,1-.23,1c-.25.44-.66.61-1,.21"/><path class="cls-14" d="M181.05,25.37s-.46,1.5-.28,1.83,1,.12,1,.12"/><path class="cls-15" d="M181,28l2.36-.34a1.5,1.5,0,0,1-1.4,1.39C181,29.14,181,28,181,28Z"/><path class="cls-16" d="M180,25.2a.5.5,0,0,1,0,.12v.08c0,.06,0,.11,0,.17a.21.21,0,0,0,.19.19.25.25,0,0,0,.14-.06.21.21,0,0,0,.05-.13,1,1,0,0,0,0-.17,1.5,1.5,0,0,0,0-.2l0,0a.1.1,0,0,0,0-.05.18.18,0,0,0-.1,0s-.06,0-.08,0a.18.18,0,0,0-.08.09Z"/><path class="cls-17" d="M180.58,24.5a.61.61,0,0,0-.88.15"/><path class="cls-16" d="M182.75,25.1a.28.28,0,0,0,0,.09v.23a.24.24,0,0,0,0,.08l0,.06a.19.19,0,0,0,.26,0,.2.2,0,0,0,.06-.14,1.36,1.36,0,0,0,0-.2s0,0,0-.08,0-.05,0-.08A.16.16,0,0,0,183,25l-.1,0a.19.19,0,0,0-.1,0l0,0a.13.13,0,0,0,0,.08Z"/><path class="cls-17" d="M182.4,24.26a1.16,1.16,0,0,1,1.27.14"/><path class="cls-8" d="M180.07,44.91c-7.51,10.43-22.83,19.8-22.83,19.8l-3.16-4S165.56,51.08,172.46,40"/><path class="cls-8" d="M155.42,59.64c-1.4,1.23-6.12,4.13-6,4.5s1.77-.64,1.8-.32-2.43,2-2.23,2.36,2.69-1.41,2.69-1.41-2.53,2.18-2.16,2.52,2.27-1.34,3.12-1.85c-.84.67-2.08,1.91-1.8,2.15s1.66-.8,2.78-1.55c-.65.53-1.77,1.55-1.53,1.79s3.83-2.08,7.12-4.39"/><path class="cls-12" d="M151.81,63.78a7.89,7.89,0,0,0,2.6-.34"/><path class="cls-18" d="M181.69,31.69c-3.28-.59-6.21,1.75-7.49,3.79a62.36,62.36,0,0,0-4,7.33l7.72,4.65,4.39-13.8"/><path class="cls-18" d="M181.69,31.69c1.52.28,1.89.83,3,.48a14.61,14.61,0,0,0,3.43-1.61c-1.27.09,4.17,1.08,8.33,5.48,1.41,4.81,1.57,9.6,2,22.32A35.08,35.08,0,0,1,179,58.9s-1.17-5.55-2.52-9.66c-1.88-3.78-1.06-8,1-11.49C177.59,35.65,181.69,31.69,181.69,31.69Z"/><polygon class="cls-15" points="187.95 29.25 184.42 32.25 186.68 34.66 189.02 31.1 187.95 29.25"/><polygon class="cls-15" points="184.42 32.25 182.41 30.68 181.69 31.69 182.65 34.59 184.42 32.25"/><path class="cls-19" d="M175.44,44.94c-.13-2.45,1.32-6.26,1.32-6.26"/><path class="cls-20" d="M214.07,191.65h-.45L162.77,188a6.23,6.23,0,0,1-5.77-6.65l1.06-15a1.78,1.78,0,0,1,3-1.16,8.9,8.9,0,0,0,5.51,2.48l.61,0c5.16,0,9.52-4.61,9.94-10.5.43-6.15-3.59-11.47-9-11.85l-.61,0a9,9,0,0,0-5.19,1.7,1.77,1.77,0,0,1-2.35-.24,1.74,1.74,0,0,1-.46-1.33l1.05-15a6.25,6.25,0,0,1,6.21-5.79l.45,0,15.46,1.09a1.77,1.77,0,0,1,1.56,1.19,1.73,1.73,0,0,1-.47,1.88,9.07,9.07,0,0,0-2.94,6c-.38,5.38,4.32,10.11,10.48,10.55.3,0,.61,0,.91,0,5.78,0,10.58-4,10.94-9a9.05,9.05,0,0,0-2.07-6.33,1.77,1.77,0,0,1,1.38-2.89h.13l15.47,1.09a6.23,6.23,0,0,1,5.77,6.66l-3.6,50.85a6.24,6.24,0,0,1-6.2,5.78Z"/><path class="cls-15" d="M166.8,125.11l.42,0,15.47,1.09a1.42,1.42,0,0,1,.87,2.45,9.38,9.38,0,0,0-3.06,6.22c-.39,5.58,4.45,10.48,10.81,10.93l.94,0c5.95,0,10.92-4,11.3-9.33a9.37,9.37,0,0,0-2.16-6.59,1.42,1.42,0,0,1,1.11-2.31h.1l15.47,1.09a5.87,5.87,0,0,1,5.44,6.27l-3.59,50.85a5.88,5.88,0,0,1-5.85,5.46l-.42,0-50.85-3.59a5.87,5.87,0,0,1-5.44-6.27l1-15a1.43,1.43,0,0,1,2.41-.93,9.18,9.18,0,0,0,5.72,2.57l.64,0c5.32,0,9.86-4.71,10.3-10.83.45-6.37-3.72-11.85-9.31-12.24-.21,0-.42,0-.63,0a9.31,9.31,0,0,0-5.4,1.76,1.46,1.46,0,0,1-.83.27,1.42,1.42,0,0,1-1.42-1.52l1.06-15a5.87,5.87,0,0,1,5.85-5.46m0-.72a6.6,6.6,0,0,0-6.56,6.13l-1.06,15a2.11,2.11,0,0,0,.56,1.6,2.16,2.16,0,0,0,1.57.68,2,2,0,0,0,1.24-.4,8.69,8.69,0,0,1,5-1.63l.58,0c5.19.37,9.06,5.52,8.64,11.48-.4,5.7-4.61,10.16-9.58,10.16l-.58,0a8.52,8.52,0,0,1-5.29-2.38,2.16,2.16,0,0,0-1.47-.59,2.12,2.12,0,0,0-2.14,2l-1.06,15a6.59,6.59,0,0,0,6.11,7L213.6,192h.47a6.6,6.6,0,0,0,6.56-6.12l3.6-50.85a6.6,6.6,0,0,0-6.11-7l-15.46-1.1h-.16a2.13,2.13,0,0,0-1.93,1.22,2.1,2.1,0,0,0,.27,2.25,8.58,8.58,0,0,1,2,6.09c-.34,4.86-5,8.66-10.58,8.66l-.89,0a11.61,11.61,0,0,1-7.48-3.33,8.77,8.77,0,0,1-2.66-6.83,8.53,8.53,0,0,1,2.83-5.74,2.14,2.14,0,0,0-1.31-3.7l-15.47-1.09-.47,0Z"/><g class="cls-21"><g class="cls-22"><circle class="cls-23" cx="206.66" cy="203.32" r="29.06" transform="translate(-15.22 16.73) rotate(-4.47)"/><circle class="cls-23" cx="206.13" cy="202.64" r="18.36"/><circle class="cls-23" cx="206.66" cy="203.32" r="9.61" transform="translate(-45.91 60.99) rotate(-15.13)"/></g></g><path class="cls-24" d="M141.75,123.74a5.11,5.11,0,0,1-.78,0l-15.46-1.94a1.78,1.78,0,0,1-.91-3.14,9,9,0,0,0,3.33-5.87,9.13,9.13,0,0,0-2.37-7.25,12,12,0,0,0-7.51-3.85,12.54,12.54,0,0,0-1.61-.1c-5.51,0-10.11,3.62-10.72,8.41a9.08,9.08,0,0,0,1.78,6.51,1.77,1.77,0,0,1-1.43,2.83h-.23l-15.45-1.94a6.24,6.24,0,0,1-5.41-7L91.34,59.8a6.23,6.23,0,0,1,6.17-5.45,7.13,7.13,0,0,1,.79,0l50.58,6.36a6.23,6.23,0,0,1,5.4,6.95l-1.91,15.2a1.78,1.78,0,0,1-1.78,1.57,1.74,1.74,0,0,1-1.32-.61,8.88,8.88,0,0,0-5.66-3.09,7.83,7.83,0,0,0-1.08-.07c-5,0-9.31,4.28-10,10a12,12,0,0,0,1.87,8.22,9.13,9.13,0,0,0,6.44,4.1,7.83,7.83,0,0,0,1.08.07,9.17,9.17,0,0,0,5.17-1.66,1.69,1.69,0,0,1,1-.32,1.82,1.82,0,0,1,1.35.61,1.74,1.74,0,0,1,.42,1.4l-1.91,15.2A6.23,6.23,0,0,1,141.75,123.74Z"/><path class="cls-15" d="M97.51,54.71a6.12,6.12,0,0,1,.74,0l50.58,6.36a5.87,5.87,0,0,1,5.09,6.56L152,82.87a1.41,1.41,0,0,1-1.42,1.25,1.36,1.36,0,0,1-1.05-.49,9.39,9.39,0,0,0-5.88-3.21,10.71,10.71,0,0,0-1.13-.07c-5.11,0-9.63,4.37-10.37,10.27-.8,6.33,3.06,12,8.62,12.73a10.52,10.52,0,0,0,1.12.07,9.43,9.43,0,0,0,5.37-1.73,1.42,1.42,0,0,1,.79-.25,1.44,1.44,0,0,1,1.42,1.61l-1.91,15.2a5.88,5.88,0,0,1-5.82,5.14,6.27,6.27,0,0,1-.74,0l-15.45-1.94a1.42,1.42,0,0,1-.73-2.51,9.39,9.39,0,0,0,3.46-6.1c.7-5.56-3.87-10.71-10.2-11.5a13.06,13.06,0,0,0-1.65-.11c-5.64,0-10.44,3.66-11.07,8.73a9.37,9.37,0,0,0,1.84,6.77,1.42,1.42,0,0,1-1.14,2.26l-.18,0L90.43,117a5.86,5.86,0,0,1-5.09-6.56L91.7,59.85a5.87,5.87,0,0,1,5.81-5.14m0-.72h0A6.59,6.59,0,0,0,91,59.76l-6.36,50.58a6.59,6.59,0,0,0,5.71,7.35l15.46,1.94a1.23,1.23,0,0,0,.27,0,2.14,2.14,0,0,0,1.72-3.4,8.7,8.7,0,0,1-1.71-6.25c.58-4.62,5-8.1,10.36-8.1a12.13,12.13,0,0,1,8.85,3.83,8.53,8.53,0,0,1-.92,12.61,2.14,2.14,0,0,0,1.1,3.77l15.45,1.94a7.55,7.55,0,0,0,.83,0,6.6,6.6,0,0,0,6.53-5.76l1.91-15.21a2.1,2.1,0,0,0-.51-1.67,2.17,2.17,0,0,0-1.62-.74,2.11,2.11,0,0,0-1.2.38,8.55,8.55,0,0,1-6,1.54,8.83,8.83,0,0,1-6.19-4,11.57,11.57,0,0,1-1.81-8c.69-5.5,4.84-9.64,9.66-9.64a9.07,9.07,0,0,1,1,.06,8.57,8.57,0,0,1,5.43,3,2.08,2.08,0,0,0,1.59.73A2.15,2.15,0,0,0,152.72,83l1.91-15.2a6.59,6.59,0,0,0-5.71-7.36L98.34,54a7.55,7.55,0,0,0-.83,0Z"/><g class="cls-25"><g class="cls-26"><circle class="cls-27" cx="91.5" cy="60.45" r="29.06"/><circle class="cls-27" cx="90.9" cy="59.84" r="19.8"/><circle class="cls-27" cx="91.5" cy="60.45" r="9.61"/></g></g><path class="cls-28" d="M188,139.68a12.69,12.69,0,0,1-8.37-3.15,9.61,9.61,0,0,1-.57-14.2,1,1,0,0,0,.22-1.14,1.06,1.06,0,0,0-1-.66l-15.59-.16a6.21,6.21,0,0,1-6.16-6.29L156.72,99a1,1,0,0,0-.3-.76,1.07,1.07,0,0,0-.77-.32,1,1,0,0,0-.66.24,9.63,9.63,0,0,1-6.16,2.27,9.9,9.9,0,0,1-7.5-3.59,12.64,12.64,0,0,1-3-8.43c.07-6.51,4.79-11.8,10.52-11.8a9.63,9.63,0,0,1,6.31,2.4,1.07,1.07,0,0,0,.67.25,1.08,1.08,0,0,0,1.08-1.06l.15-15.09a6.25,6.25,0,0,1,6.23-6.16l51,.53a6.22,6.22,0,0,1,6.16,6.29l-.53,51a6.24,6.24,0,0,1-6.22,6.17l-15.66-.16a1.05,1.05,0,0,0-1,.64,1,1,0,0,0,.2,1.14A9.8,9.8,0,0,1,200,129.3c-.06,5.72-5.39,10.38-11.88,10.38Z"/><path class="cls-15" d="M163.32,57.3h.06l51,.53a5.87,5.87,0,0,1,5.81,5.93l-.53,51a5.88,5.88,0,0,1-5.87,5.81h-.06l-15.6-.16h0a1.42,1.42,0,0,0-1,2.38,9.4,9.4,0,0,1,2.63,6.54c-.06,5.56-5.2,10-11.52,10H188c-6.38-.07-11.5-4.66-11.44-10.26a9.39,9.39,0,0,1,2.75-6.48,1.42,1.42,0,0,0-1-2.41l-15.6-.16a5.87,5.87,0,0,1-5.81-5.93L157.08,99a1.43,1.43,0,0,0-1.43-1.44,1.39,1.39,0,0,0-.88.32,9.32,9.32,0,0,1-5.94,2.19h-.09c-5.6-.06-10.09-5.28-10-11.66S143.32,77,148.88,77h.1a9.27,9.27,0,0,1,6,2.31,1.39,1.39,0,0,0,.9.34,1.44,1.44,0,0,0,1.44-1.42l.15-15.08a5.87,5.87,0,0,1,5.87-5.81m0-.72a6.6,6.6,0,0,0-6.58,6.52l-.16,15.08a.71.71,0,0,1-.72.71.65.65,0,0,1-.43-.17A10,10,0,0,0,149,76.24h-.1c-5.93,0-10.81,5.45-10.88,12.15s4.74,12.32,10.73,12.38h.1a10,10,0,0,0,6.39-2.35.69.69,0,0,1,.43-.16.7.7,0,0,1,.51.22.65.65,0,0,1,.2.5l-.15,15.09a6.59,6.59,0,0,0,6.52,6.66l15.59.16a.71.71,0,0,1,.65.43.7.7,0,0,1-.15.76,10.17,10.17,0,0,0-3,7c-.06,6,5.39,10.91,12.15,11h.15c6.68,0,12.17-4.81,12.23-10.73a10.11,10.11,0,0,0-2.81-7,.68.68,0,0,1-.13-.76.7.7,0,0,1,.65-.43l15.6.17h.07a6.61,6.61,0,0,0,6.58-6.52l.53-51a6.59,6.59,0,0,0-6.52-6.65l-51-.53Z"/><g class="cls-29"><path class="cls-15" d="M140.29,66.69a1.37,1.37,0,1,1-.46-2.7,1.37,1.37,0,0,1,.46,2.7Z"/><path class="cls-15" d="M153.06,64.54a1.37,1.37,0,0,1-.46-2.71,1.37,1.37,0,1,1,.46,2.71Z"/><path class="cls-15" d="M165.83,62.38A1.37,1.37,0,1,1,167,60.8,1.37,1.37,0,0,1,165.83,62.38Z"/><path class="cls-15" d="M178.61,60.23a1.37,1.37,0,1,1,1.12-1.58A1.37,1.37,0,0,1,178.61,60.23Z"/><path class="cls-15" d="M191.38,58.08a1.37,1.37,0,1,1,1.13-1.59A1.38,1.38,0,0,1,191.38,58.08Z"/><path class="cls-15" d="M204.16,55.92a1.37,1.37,0,1,1,1.12-1.58A1.38,1.38,0,0,1,204.16,55.92Z"/><path class="cls-15" d="M216.93,53.77a1.37,1.37,0,1,1,1.13-1.59A1.39,1.39,0,0,1,216.93,53.77Z"/><path class="cls-15" d="M142.06,77.18a1.37,1.37,0,1,1,1.12-1.58A1.37,1.37,0,0,1,142.06,77.18Z"/><circle class="cls-15" cx="154.6" cy="73.67" r="1.37" transform="translate(-10.24 27.23) rotate(-9.75)"/><path class="cls-15" d="M167.6,72.87a1.37,1.37,0,1,1,1.13-1.58A1.38,1.38,0,0,1,167.6,72.87Z"/><path class="cls-15" d="M180.38,70.72a1.39,1.39,0,0,1-1.59-1.13,1.37,1.37,0,1,1,1.59,1.13Z"/><path class="cls-15" d="M193.15,68.56a1.37,1.37,0,0,1-1.58-1.12,1.37,1.37,0,1,1,1.58,1.12Z"/><path class="cls-15" d="M205.93,66.41a1.37,1.37,0,1,1-.46-2.71,1.37,1.37,0,0,1,.46,2.71Z"/><path class="cls-15" d="M218.7,64.25a1.36,1.36,0,0,1-1.58-1.12,1.37,1.37,0,0,1,1.12-1.59,1.39,1.39,0,0,1,1.59,1.13A1.37,1.37,0,0,1,218.7,64.25Z"/><path class="cls-15" d="M143.82,87.67A1.37,1.37,0,1,1,145,86.09,1.38,1.38,0,0,1,143.82,87.67Z"/><path class="cls-15" d="M156.6,85.51a1.37,1.37,0,1,1,1.12-1.58A1.36,1.36,0,0,1,156.6,85.51Z"/><path class="cls-15" d="M169.37,83.36a1.37,1.37,0,1,1,1.13-1.58A1.37,1.37,0,0,1,169.37,83.36Z"/><path class="cls-15" d="M182.15,81.21a1.39,1.39,0,0,1-1.59-1.13,1.37,1.37,0,0,1,1.13-1.58,1.36,1.36,0,0,1,1.58,1.12A1.38,1.38,0,0,1,182.15,81.21Z"/><path class="cls-15" d="M194.92,79.05a1.37,1.37,0,0,1-.46-2.71,1.37,1.37,0,1,1,.46,2.71Z"/><path class="cls-15" d="M207.69,76.9a1.37,1.37,0,0,1-.45-2.71,1.36,1.36,0,0,1,1.58,1.12A1.38,1.38,0,0,1,207.69,76.9Z"/><path class="cls-15" d="M220.47,74.74a1.37,1.37,0,1,1,1.12-1.58A1.37,1.37,0,0,1,220.47,74.74Z"/><path class="cls-15" d="M145.59,98.16A1.38,1.38,0,0,1,144,97a1.37,1.37,0,0,1,2.71-.46A1.38,1.38,0,0,1,145.59,98.16Z"/><path class="cls-15" d="M158.37,96a1.37,1.37,0,1,1,1.12-1.58A1.36,1.36,0,0,1,158.37,96Z"/><path class="cls-15" d="M171.14,93.85a1.37,1.37,0,1,1,1.13-1.59A1.39,1.39,0,0,1,171.14,93.85Z"/><path class="cls-15" d="M183.92,91.69A1.37,1.37,0,1,1,185,90.11,1.37,1.37,0,0,1,183.92,91.69Z"/><path class="cls-15" d="M196.69,89.54A1.37,1.37,0,1,1,197.82,88,1.37,1.37,0,0,1,196.69,89.54Z"/><path class="cls-15" d="M209.46,87.38a1.37,1.37,0,1,1-.45-2.71,1.38,1.38,0,0,1,1.58,1.13A1.37,1.37,0,0,1,209.46,87.38Z"/><path class="cls-15" d="M222.24,85.23a1.37,1.37,0,1,1-.46-2.71,1.37,1.37,0,0,1,.46,2.71Z"/><path class="cls-15" d="M147.36,108.64a1.37,1.37,0,1,1,1.13-1.58A1.36,1.36,0,0,1,147.36,108.64Z"/><path class="cls-15" d="M160.14,106.49a1.37,1.37,0,1,1-.46-2.71,1.37,1.37,0,0,1,.46,2.71Z"/><path class="cls-15" d="M172.91,104.34a1.37,1.37,0,1,1,1.13-1.59A1.39,1.39,0,0,1,172.91,104.34Z"/><path class="cls-15" d="M185.68,102.18a1.37,1.37,0,1,1,1.13-1.58A1.38,1.38,0,0,1,185.68,102.18Z"/><path class="cls-15" d="M198.46,100a1.37,1.37,0,0,1-1.58-1.13,1.37,1.37,0,0,1,2.7-.46A1.37,1.37,0,0,1,198.46,100Z"/><path class="cls-15" d="M211.23,97.87a1.37,1.37,0,1,1,1.13-1.58A1.37,1.37,0,0,1,211.23,97.87Z"/><path class="cls-15" d="M224,95.72a1.39,1.39,0,0,1-1.59-1.13A1.37,1.37,0,1,1,224,95.72Z"/><path class="cls-15" d="M149.13,119.13a1.37,1.37,0,0,1-1.58-1.12,1.37,1.37,0,1,1,1.58,1.12Z"/><path class="cls-15" d="M161.91,117a1.39,1.39,0,0,1-1.59-1.13,1.37,1.37,0,1,1,1.59,1.13Z"/><path class="cls-15" d="M174.68,114.82a1.37,1.37,0,0,1-.46-2.71,1.39,1.39,0,0,1,1.59,1.13A1.37,1.37,0,0,1,174.68,114.82Z"/><path class="cls-15" d="M187.45,112.67a1.37,1.37,0,1,1,1.13-1.58A1.38,1.38,0,0,1,187.45,112.67Z"/><path class="cls-15" d="M200.23,110.51a1.37,1.37,0,0,1-1.59-1.12,1.39,1.39,0,0,1,1.13-1.59,1.37,1.37,0,0,1,1.58,1.13A1.36,1.36,0,0,1,200.23,110.51Z"/><path class="cls-15" d="M213,108.36a1.37,1.37,0,1,1,1.13-1.58A1.38,1.38,0,0,1,213,108.36Z"/><path class="cls-15" d="M225.78,106.2a1.37,1.37,0,0,1-1.59-1.12,1.39,1.39,0,0,1,1.13-1.59,1.37,1.37,0,0,1,.46,2.71Z"/><path class="cls-15" d="M150.9,129.62a1.37,1.37,0,0,1-.46-2.71,1.37,1.37,0,1,1,.46,2.71Z"/><path class="cls-15" d="M163.67,127.47a1.37,1.37,0,0,1-.45-2.71,1.36,1.36,0,0,1,1.58,1.12A1.38,1.38,0,0,1,163.67,127.47Z"/><path class="cls-15" d="M176.45,125.31a1.37,1.37,0,1,1,1.12-1.58A1.37,1.37,0,0,1,176.45,125.31Z"/><path class="cls-15" d="M189.22,123.16a1.37,1.37,0,1,1,1.13-1.59A1.38,1.38,0,0,1,189.22,123.16Z"/><path class="cls-15" d="M202,121a1.37,1.37,0,1,1,1.12-1.58A1.38,1.38,0,0,1,202,121Z"/><path class="cls-15" d="M214.77,118.85a1.37,1.37,0,1,1,1.13-1.59A1.39,1.39,0,0,1,214.77,118.85Z"/><path class="cls-15" d="M227.55,116.69a1.37,1.37,0,1,1,1.12-1.58A1.37,1.37,0,0,1,227.55,116.69Z"/><path class="cls-15" d="M152.67,140.11a1.37,1.37,0,0,1-1.58-1.13,1.36,1.36,0,0,1,1.12-1.58,1.37,1.37,0,1,1,.46,2.71Z"/><path class="cls-15" d="M165.44,138a1.37,1.37,0,1,1,1.13-1.58A1.38,1.38,0,0,1,165.44,138Z"/><path class="cls-15" d="M178.22,135.8a1.37,1.37,0,1,1-.46-2.71,1.37,1.37,0,0,1,.46,2.71Z"/><path class="cls-15" d="M191,133.64a1.36,1.36,0,0,1-1.58-1.12,1.37,1.37,0,1,1,1.58,1.12Z"/><path class="cls-15" d="M203.77,131.49a1.37,1.37,0,1,1-.46-2.71,1.37,1.37,0,0,1,.46,2.71Z"/><path class="cls-15" d="M216.54,129.33a1.36,1.36,0,0,1-1.58-1.12,1.37,1.37,0,1,1,1.58,1.12Z"/><path class="cls-15" d="M229.31,127.18a1.37,1.37,0,1,1,1.13-1.58A1.38,1.38,0,0,1,229.31,127.18Z"/></g><path class="cls-30" d="M94.81,191.43a6.23,6.23,0,0,1-6.21-5.88l-2.85-50.9a6.24,6.24,0,0,1,5.87-6.57l15.51-.87a1.07,1.07,0,0,0,1-.69,1,1,0,0,0-.27-1.13,9.81,9.81,0,0,1-3.11-6.54c-.33-5.78,4.75-10.78,11.3-11.15l.77,0c6.26,0,11.4,4.32,11.71,9.84a9.75,9.75,0,0,1-2.36,6.84,1,1,0,0,0-.15,1.12,1.05,1.05,0,0,0,1,.62l15.58-.87h.36a6.23,6.23,0,0,1,6.21,5.88l.85,15.23a1.08,1.08,0,0,0,1.08,1,1,1,0,0,0,.72-.3A9.6,9.6,0,0,1,158,144.2h.52c5.6,0,10.27,5,10.62,11.31a12.67,12.67,0,0,1-2.58,8.57,9.86,9.86,0,0,1-7.23,3.91l-.53,0a9.67,9.67,0,0,1-6-2.14,1,1,0,0,0-.64-.23,1.12,1.12,0,0,0-.79.34,1.05,1.05,0,0,0-.28.79l.85,15.24a6.21,6.21,0,0,1-5.87,6.56l-50.89,2.86Z"/><path class="cls-15" d="M116.77,108c6,0,11,4.13,11.35,9.5a9.36,9.36,0,0,1-2.28,6.59,1.42,1.42,0,0,0,1.09,2.33H127l15.52-.87h.34a5.86,5.86,0,0,1,5.85,5.54l.86,15.23A1.42,1.42,0,0,0,151,147.7a1.35,1.35,0,0,0,1-.4,9.31,9.31,0,0,1,6-2.74l.5,0c5.38,0,9.92,4.81,10.27,11,.35,6.37-3.89,11.79-9.48,12.1l-.51,0a9.37,9.37,0,0,1-5.79-2.06,1.4,1.4,0,0,0-.86-.31,1.44,1.44,0,0,0-1.43,1.51l.86,15.24a5.88,5.88,0,0,1-5.54,6.19l-50.89,2.85h-.34A5.86,5.86,0,0,1,89,185.53l-2.86-50.9a5.87,5.87,0,0,1,5.54-6.19l15.51-.87a1.42,1.42,0,0,0,.91-2.44,9.34,9.34,0,0,1-3-6.3c-.32-5.59,4.59-10.41,11-10.77l.75,0m0-.72h0l-.79,0a13.08,13.08,0,0,0-8.45,3.62,10,10,0,0,0,0,14.68.68.68,0,0,1,.17.74.73.73,0,0,1-.63.47l-15.51.87a6.58,6.58,0,0,0-6.21,6.94l2.85,50.9a6.6,6.6,0,0,0,6.57,6.22l.38,0,50.89-2.85a6.6,6.6,0,0,0,6.21-6.94l-.85-15.24a.68.68,0,0,1,.18-.52.78.78,0,0,1,.53-.23.68.68,0,0,1,.42.15,10,10,0,0,0,6.23,2.21h.55a10.19,10.19,0,0,0,7.49-4.05,13,13,0,0,0,2.66-8.81c-.36-6.53-5.19-11.65-11-11.65H158a10,10,0,0,0-6.5,2.95.69.69,0,0,1-.47.2.72.72,0,0,1-.72-.68l-.85-15.23a6.59,6.59,0,0,0-6.57-6.22h-.38l-15.52.87h0a.73.73,0,0,1-.68-.41.68.68,0,0,1,.1-.74,10.14,10.14,0,0,0,2.45-7.09c-.32-5.71-5.62-10.18-12.07-10.18Z"/><g class="cls-31"><g class="cls-32"><path class="cls-15" d="M59,170.43a1.38,1.38,0,1,1,1-1.67A1.39,1.39,0,0,1,59,170.43Z"/><path class="cls-15" d="M71.57,167.29a1.37,1.37,0,1,1,1-1.66A1.37,1.37,0,0,1,71.57,167.29Z"/><path class="cls-15" d="M84.14,164.16a1.38,1.38,0,1,1,1-1.67A1.39,1.39,0,0,1,84.14,164.16Z"/><path class="cls-15" d="M96.71,161a1.37,1.37,0,1,1,1-1.66A1.37,1.37,0,0,1,96.71,161Z"/><path class="cls-15" d="M109.28,157.89a1.38,1.38,0,1,1,1-1.67A1.39,1.39,0,0,1,109.28,157.89Z"/><path class="cls-15" d="M121.85,154.75a1.37,1.37,0,1,1,1-1.66A1.37,1.37,0,0,1,121.85,154.75Z"/><path class="cls-15" d="M134.42,151.62a1.38,1.38,0,1,1,1-1.67A1.38,1.38,0,0,1,134.42,151.62Z"/><path class="cls-15" d="M61.57,180.75a1.38,1.38,0,1,1,1-1.67A1.38,1.38,0,0,1,61.57,180.75Z"/><path class="cls-15" d="M74.14,177.61a1.37,1.37,0,1,1,1-1.66A1.36,1.36,0,0,1,74.14,177.61Z"/><path class="cls-15" d="M86.71,174.48a1.38,1.38,0,1,1,1-1.67A1.38,1.38,0,0,1,86.71,174.48Z"/><path class="cls-15" d="M99.28,171.34a1.37,1.37,0,1,1,1-1.66A1.36,1.36,0,0,1,99.28,171.34Z"/><path class="cls-15" d="M111.85,168.21a1.38,1.38,0,1,1,1-1.67A1.38,1.38,0,0,1,111.85,168.21Z"/><path class="cls-15" d="M124.42,165.07a1.38,1.38,0,1,1,1-1.66A1.36,1.36,0,0,1,124.42,165.07Z"/><path class="cls-15" d="M137,161.93a1.37,1.37,0,1,1,1-1.66A1.37,1.37,0,0,1,137,161.93Z"/><path class="cls-15" d="M64.15,191.07a1.38,1.38,0,1,1,1-1.67A1.39,1.39,0,0,1,64.15,191.07Z"/><path class="cls-15" d="M76.72,187.93a1.37,1.37,0,1,1,1-1.66A1.37,1.37,0,0,1,76.72,187.93Z"/><path class="cls-15" d="M89.29,184.8a1.38,1.38,0,1,1,1-1.67A1.39,1.39,0,0,1,89.29,184.8Z"/><path class="cls-15" d="M101.86,181.66a1.37,1.37,0,1,1,1-1.66A1.37,1.37,0,0,1,101.86,181.66Z"/><path class="cls-15" d="M114.43,178.53a1.38,1.38,0,1,1,1-1.67A1.38,1.38,0,0,1,114.43,178.53Z"/><path class="cls-15" d="M127,175.39a1.38,1.38,0,1,1,1-1.67A1.37,1.37,0,0,1,127,175.39Z"/><circle class="cls-15" cx="139.23" cy="170.92" r="1.37"/><path class="cls-15" d="M66.72,201.39a1.38,1.38,0,1,1,1-1.67A1.38,1.38,0,0,1,66.72,201.39Z"/><path class="cls-15" d="M79.29,198.25a1.37,1.37,0,1,1,1-1.66A1.36,1.36,0,0,1,79.29,198.25Z"/><path class="cls-15" d="M91.86,195.12a1.38,1.38,0,1,1,1-1.67A1.38,1.38,0,0,1,91.86,195.12Z"/><path class="cls-15" d="M104.43,192a1.38,1.38,0,1,1,1-1.66A1.36,1.36,0,0,1,104.43,192Z"/><path class="cls-15" d="M117,188.84a1.37,1.37,0,1,1,1-1.66A1.37,1.37,0,0,1,117,188.84Z"/><path class="cls-15" d="M129.57,185.71a1.38,1.38,0,1,1,1-1.67A1.38,1.38,0,0,1,129.57,185.71Z"/><circle class="cls-15" cx="141.81" cy="181.24" r="1.37"/><path class="cls-15" d="M69.3,211.71a1.38,1.38,0,1,1,1-1.67A1.39,1.39,0,0,1,69.3,211.71Z"/><path class="cls-15" d="M81.87,208.57a1.37,1.37,0,1,1,1-1.66A1.37,1.37,0,0,1,81.87,208.57Z"/><path class="cls-15" d="M94.44,205.44a1.38,1.38,0,1,1,1-1.67A1.38,1.38,0,0,1,94.44,205.44Z"/><path class="cls-15" d="M107,202.3a1.38,1.38,0,1,1,1-1.67A1.37,1.37,0,0,1,107,202.3Z"/><path class="cls-15" d="M119.57,199.16a1.37,1.37,0,1,1,1-1.66A1.36,1.36,0,0,1,119.57,199.16Z"/><circle class="cls-15" cx="131.81" cy="194.7" r="1.37"/><path class="cls-15" d="M144.71,192.89a1.37,1.37,0,1,1,1-1.66A1.36,1.36,0,0,1,144.71,192.89Z"/><path class="cls-15" d="M71.87,222a1.38,1.38,0,1,1,1-1.67A1.38,1.38,0,0,1,71.87,222Z"/><path class="cls-15" d="M84.44,218.89a1.37,1.37,0,1,1,1-1.66A1.36,1.36,0,0,1,84.44,218.89Z"/><path class="cls-15" d="M97,215.76a1.38,1.38,0,1,1-.66-2.67,1.38,1.38,0,0,1,.66,2.67Z"/><path class="cls-15" d="M109.58,212.62a1.38,1.38,0,1,1,1-1.67A1.38,1.38,0,0,1,109.58,212.62Z"/><path class="cls-15" d="M122.15,209.48a1.37,1.37,0,1,1,1-1.66A1.37,1.37,0,0,1,122.15,209.48Z"/><path class="cls-15" d="M134.72,206.35a1.38,1.38,0,1,1,1-1.67A1.39,1.39,0,0,1,134.72,206.35Z"/><path class="cls-15" d="M147.29,203.21a1.37,1.37,0,1,1,1-1.66A1.37,1.37,0,0,1,147.29,203.21Z"/><path class="cls-15" d="M74.45,232.35a1.38,1.38,0,1,1,1-1.67A1.38,1.38,0,0,1,74.45,232.35Z"/><path class="cls-15" d="M87,229.21a1.38,1.38,0,1,1,1-1.67A1.37,1.37,0,0,1,87,229.21Z"/><path class="cls-15" d="M99.58,226.07a1.37,1.37,0,1,1,1-1.66A1.36,1.36,0,0,1,99.58,226.07Z"/><path class="cls-15" d="M112.15,222.94a1.38,1.38,0,1,1,1-1.67A1.38,1.38,0,0,1,112.15,222.94Z"/><path class="cls-15" d="M124.72,219.8a1.37,1.37,0,1,1,1-1.66A1.36,1.36,0,0,1,124.72,219.8Z"/><circle class="cls-15" cx="136.96" cy="215.33" r="1.37"/><path class="cls-15" d="M149.86,213.53a1.37,1.37,0,1,1,1-1.66A1.36,1.36,0,0,1,149.86,213.53Z"/><path class="cls-15" d="M77,242.67a1.38,1.38,0,1,1-.66-2.67,1.38,1.38,0,0,1,.66,2.67Z"/><path class="cls-15" d="M89.59,239.53a1.38,1.38,0,1,1,1-1.67A1.38,1.38,0,0,1,89.59,239.53Z"/><circle class="cls-15" cx="101.83" cy="235.06" r="1.37"/><path class="cls-15" d="M114.73,233.26a1.38,1.38,0,1,1,1-1.67A1.39,1.39,0,0,1,114.73,233.26Z"/><circle class="cls-15" cx="126.97" cy="228.79" r="1.37"/><path class="cls-15" d="M139.87,227a1.38,1.38,0,1,1,1-1.67A1.39,1.39,0,0,1,139.87,227Z"/><path class="cls-15" d="M152.44,223.85a1.37,1.37,0,1,1,1-1.66A1.37,1.37,0,0,1,152.44,223.85Z"/></g></g><path class="cls-8" d="M26,118.59s-.48,20.86-1.75,28c-1.43,8-13.37,24.2-13.37,24.2l2.76,2.74,4.1,1.95s10.44-10,16.33-22.48c5.1-10.83,5.33-33.33,5.33-33.33"/><path class="cls-16" d="M23,182.18a2.09,2.09,0,0,0,0-1.36l-4.26-6.27c-4.07-.75-7.62-4.42-7.62-4.42l-3.57,3.94a.33.33,0,0,0,.1.44l14.34,9C22.3,183.72,23,182.2,23,182.18Z"/><path class="cls-33" d="M19.87,175.61a8.38,8.38,0,0,0-1.72.86"/><path class="cls-33" d="M20.32,176.52a7.33,7.33,0,0,0-1.43.75"/><path class="cls-33" d="M20.74,177.24a11.1,11.1,0,0,0-1.33.68"/><line class="cls-33" x1="8.09" y1="173.43" x2="22.78" y2="182.68"/><path class="cls-33" d="M9.87,171.53s3.4,2.26,2.37,4.52"/><path class="cls-33" d="M22.14,179.53a13,13,0,0,0-2.39,1.25"/><path class="cls-8" d="M41.31,127.25s.8,12.2,1.35,21.52,1.65,30.62,1.65,30.62l4,1,4.47-.75S54,161.22,54,149c0-12.6-.49-30.45-.49-30.45"/><path class="cls-16" d="M60.76,182.89c-.16-.49-.44-1-.73-1.16l-7-3c-3.83,1.56-8.8.37-8.8.37l-.89,5.24a.32.32,0,0,0,.32.31l16.94-.09C61,184.56,60.77,182.9,60.76,182.89Z"/><path class="cls-33" d="M54.58,179a8.07,8.07,0,0,0-1,1.65"/><path class="cls-33" d="M55.45,179.55a7.34,7.34,0,0,0-.8,1.41"/><path class="cls-33" d="M56.19,179.94a11,11,0,0,0-.75,1.28"/><line class="cls-33" x1="43.47" y1="183.52" x2="60.83" y2="183.43"/><path class="cls-33" d="M44,181s4.07.08,4.42,2.53"/><path class="cls-33" d="M58.6,181.11a13.14,13.14,0,0,0-1.34,2.34"/><path class="cls-34" d="M41,58.27a5.23,5.23,0,0,0-5.23,2.49c-.31.48-.55,1-.89,1.47-2.18,2.88-11,2-9.24,7.67a9.38,9.38,0,0,1,.64,1.94,7.17,7.17,0,0,1-.61,2.48,5.28,5.28,0,0,0,3.83,6.36c1.22.26,2.57.09,3.62.75s1.43,1.8,2.12,2.73c1.9,2.54,5.68,3,8.66,2a4.53,4.53,0,0,0,2.74-2.18A15.55,15.55,0,0,1,47.32,82c.69-1.13,2.22-1.32,3.37-2a4.12,4.12,0,0,0,1.86-4.92c-.77-1.81-2.39-3.48-2.76-5.44-.21-1.08.09-2.22-.13-3.3a3.54,3.54,0,0,0-1.26-2.06c-.45-.35-1-.59-1.41-.95-.92-.76-1-2.1-2-2.88s-2.21-1-3.23-1.68"/><path class="cls-8" d="M45,71.66C50.55,70.11,58.7,70.44,65.2,64a59.12,59.12,0,0,0,9.28-11.32l5,4S72.92,69.25,67.05,73.49a36.67,36.67,0,0,1-17.36,7.24"/><path class="cls-8" d="M73.11,54.79c1.37-2.1,4.68-8.11,5.15-8s-.6,2.17-.21,2.15,2.24-3.14,2.68-2.95c.61.25-1.46,3.35-1.46,3.35s.53-.55,1-.18-.06,1.2-.06,1.2.62-.62,1-.33S81,51.38,81,51.38a.78.78,0,0,1,.78,0c.32.24-1.31,4-4.33,8.84"/><path class="cls-12" d="M77.6,49.72a12.69,12.69,0,0,0,0,1.83,3.06,3.06,0,0,1-.21,1.81"/><path class="cls-35" d="M79.09,49.55c-.13.35-.25.71-.36,1.07a2.86,2.86,0,0,0-.16,1.05c0,.13.13.1.29,0a2.12,2.12,0,0,0,.4-.34,8,8,0,0,0,.7-.84.17.17,0,0,1,.23,0,.17.17,0,0,1,0,.21c-.17.32-.33.65-.47,1a2.33,2.33,0,0,0-.24,1s0,0,0,0a.33.33,0,0,0,.18,0,1.47,1.47,0,0,0,.38-.3,5,5,0,0,0,.64-.87.16.16,0,0,1,.21-.05.15.15,0,0,1,.06.2,7.72,7.72,0,0,0-.7,1.85c0,.18,0,.26.13.24a1,1,0,0,0,.4-.25,6.1,6.1,0,0,0,.66-.76,4.34,4.34,0,0,1-.58.84,1.07,1.07,0,0,1-.44.33.26.26,0,0,1-.32-.11.68.68,0,0,1,0-.3,3.89,3.89,0,0,1,.24-1,8.77,8.77,0,0,1,.39-1l.27.15a5,5,0,0,1-.67.93,1.44,1.44,0,0,1-.48.39.54.54,0,0,1-.36.07.4.4,0,0,1-.23-.09.53.53,0,0,1-.11-.21,2.39,2.39,0,0,1,.28-1.18c.15-.34.32-.68.5-1l.27.17a6.23,6.23,0,0,1-.76.86,2.58,2.58,0,0,1-.49.36.67.67,0,0,1-.33.08c-.15,0-.27-.17-.28-.27a2.58,2.58,0,0,1,.25-1.14A9.64,9.64,0,0,1,79.09,49.55Z"/><path class="cls-34" d="M39.72,58.71c-.27-.14-.61-.1-.84-.29a1.22,1.22,0,0,1-.22-1.33,1.71,1.71,0,0,1,1.84-.91c1.63.24,1.37,1.81.38,2.41"/><path class="cls-36" d="M30.69,98.43s-5.86,6.26-7,14.77-1.14,22.37-1.14,22.37,16.89,3.1,32.24-.33c-.59-7.08,0-26.89-5.36-36.81"/><path class="cls-37" d="M25.67,136s-.53-21.38,1.95-28.6a45.25,45.25,0,0,1,6.23-11.15"/><path class="cls-38" d="M55.06,70.09l2,9.54a28.5,28.5,0,0,1-8,1.82c-2.18,0-5.49-8.54-4.24-10.17C48.5,70.2,55.06,70.09,55.06,70.09Z"/><path class="cls-38" d="M30.29,80.8S30,92,30.69,98.43a48.73,48.73,0,0,0,18.77,0l.65-10.15c4.71-4.83.58-11.09.58-11.09l-5.83-5.91L39,71Z"/><path class="cls-38" d="M39,71a13.85,13.85,0,0,0-10.19,3.3,17,17,0,0,0-3.7,5.21l8.08,5.32L38,79.46"/><path class="cls-33" d="M52.19,81c-.4-1.49-1.5-3.85-1.5-5.29"/><line class="cls-33" x1="53.54" y1="70.15" x2="55.82" y2="80.08"/><line class="cls-33" x1="25.84" y1="78.15" x2="31.7" y2="81.78"/><path class="cls-8" d="M45.29,60.58s2.15,5.56.54,7.26c-.83.88-3.73.39-4.82-.44-.81-.62-1.88-4.32-1.44-5C41.23,59.71,45.29,60.58,45.29,60.58Z"/><path class="cls-8" d="M39.25,65.48,39,71c.44,1.38,5.09,2.7,5.83.33l-.46-4.11Z"/><path class="cls-34" d="M36.78,64.85a4.7,4.7,0,0,1-.23-1.63,6.52,6.52,0,0,1,.32-2.06,4.6,4.6,0,0,1,2.34-2.58,5.36,5.36,0,0,1,4.8,0,3.1,3.1,0,0,1,2.39.73,2.38,2.38,0,0,1,.72,2.33l-4.76-.55a4.52,4.52,0,0,1-1.67,2.14c-.73.5-1.54,1.12-1.24,2.15.13.42-.33.5-.33,1.33A4.08,4.08,0,0,1,36.8,64.9Z"/><path class="cls-8" d="M40,64.59c-.5-.78-1-.71-1.27-.33s.19,1.67.49,1.89c.6.44,1.12.45,1.22-.07"/><path class="cls-12" d="M44.52,68.46A5.74,5.74,0,0,1,41,67.4"/><path class="cls-14" d="M44.12,63.39s1.36,1.19,1.33,1.56-.88.53-.88.53"/><path class="cls-15" d="M45.57,65.8l-2.3.64a1.5,1.5,0,0,0,1.84.71C46,66.84,45.57,65.8,45.57,65.8Z"/><path class="cls-16" d="M45.08,63s0,0,0,.08l0,.08c0,.06,0,.12.07.19a.12.12,0,0,0,0,0,.09.09,0,0,0,.07,0h0l.07,0,0,0a.12.12,0,0,0,.05,0,.26.26,0,0,0,0-.15,1.17,1.17,0,0,0,0-.11l0-.07,0-.08,0-.07a.18.18,0,0,0-.1-.07.12.12,0,0,0-.1,0,.16.16,0,0,0-.08.06.2.2,0,0,0,0,.13Z"/><path class="cls-17" d="M44.54,62.41a.62.62,0,0,1,.87-.22"/><path class="cls-16" d="M42.5,63.94s0,.05,0,.08l0,.07s0,.11,0,.15l0,.07.06,0a.23.23,0,0,0,.14,0,.27.27,0,0,0,.12-.09.19.19,0,0,0,0-.15L42.87,64l0-.08,0-.07a.14.14,0,0,0-.1-.07.21.21,0,0,0-.11,0,.27.27,0,0,0-.08.07v0a.14.14,0,0,0,0,.09Z"/><path class="cls-17" d="M42.78,62.91a1.16,1.16,0,0,0-1.11.64"/><path class="cls-8" d="M25.14,79.46C22.62,84.54,21.06,92,26.37,94.2c5.54,2.35,20.06-15.42,20.06-15.42L42,74.92,30,82.63"/><line class="cls-12" x1="29.95" y1="82.63" x2="26.37" y2="85.43"/><path class="cls-36" d="M46.45,76.4h0a1.34,1.34,0,0,1-1.06-1.56l1-5.14,2.62.49-1,5.15A1.33,1.33,0,0,1,46.45,76.4Z"/><path class="cls-39" d="M49.37,71.31l-2.11-.51a2.79,2.79,0,0,1-2-3.37h0a2.77,2.77,0,0,1,3.36-2.05l2.11.51a.23.23,0,0,1,.17.28l-1.2,5A.24.24,0,0,1,49.37,71.31Z"/><path class="cls-40" d="M51,68.83c-.37,1.49-1.07,2.6-1.58,2.48s-.62-1.44-.26-2.93,1.07-2.61,1.58-2.49S51.32,67.33,51,68.83Z"/><path class="cls-36" d="M55.93,76a62.29,62.29,0,0,0-6.15-4.69c-.71-.58-.47-2-.27-2.71.51-1.94,1.18-2.19,1.18-2.19,3.1.21,8-1.27,8-1.27"/><path class="cls-40" d="M56.19,70.08c-.86,3.38-.76,6.32.2,6.56s2.44-2.3,3.29-5.68.76-6.31-.2-6.55S57,66.7,56.19,70.08Z"/><path class="cls-39" d="M56.76,70.24c-.72,2.86-.72,5.32,0,5.5s1.9-2,2.62-4.84.72-5.32,0-5.5S57.48,67.38,56.76,70.24Z"/><path class="cls-36" d="M58,71.87a3.69,3.69,0,0,0-1.61,0c.09-.5.2-1,.34-1.59s.29-1.08.46-1.57a3.56,3.56,0,0,0,1.43.74Z"/><path class="cls-34" d="M58,70.55c-.18.69-.17,1.28,0,1.33s.48-.47.65-1.16.16-1.28,0-1.32S58.18,69.87,58,70.55Z"/><path class="cls-8" d="M39.77,76.32a60.19,60.19,0,0,1,5.46-3.27,4.57,4.57,0,0,1,3.44.07,2,2,0,0,1,.83.58,1.83,1.83,0,0,1,.35,1.18.27.27,0,0,1-.09.21c-.14.1-.28-.13-.38-.29a1.19,1.19,0,0,0-1.08-.55c.23,0,.34.23.43.44a.38.38,0,0,1-.24.54.51.51,0,0,1,.12,1,.36.36,0,0,1,.19.38.89.89,0,0,1-.2.4,9.73,9.73,0,0,1-1.43,1.44c-1.61,1.38-4.94,5.14-4.94,5.14"/><path class="cls-8" d="M58,182.12l-13.53-1-4.44.46.09,16.82a.76.76,0,0,0,.78.76h0a.76.76,0,0,0,.71-.49l3.45-7.5,14.1,1.69"/><path class="cls-38" d="M40.34,199.92a2.35,2.35,0,0,0,1.32-.84l3.43-8c-1.78-4.39-.42-10.06-.42-10.06l-6-.44a.35.35,0,0,0-.35.36l.09,18.79C38.43,200.17,40.32,199.92,40.34,199.92Z"/><path class="cls-33" d="M44.75,192.85a9.23,9.23,0,0,0-1.89-1.12"/><path class="cls-33" d="M44.15,193.85a8.12,8.12,0,0,0-1.6-.92"/><path class="cls-33" d="M43.71,194.7a11.36,11.36,0,0,0-1.47-.87"/><line class="cls-33" x1="39.62" y1="180.73" x2="39.72" y2="200"/><path class="cls-33" d="M42.48,180.91s0,4.46-2.84,4.86"/><path class="cls-33" d="M42.37,197.45a15.62,15.62,0,0,0-2.67-1.54"/><path class="cls-41" d="M81.65,154.37c.2.41,2.72,18.26,4.52,30.71,1.13,7.79,1.27,12.71-10.08,11.78-15.62-1.28-26.5-2-26.5-2l-.36-14,21.46,1L67.9,168s-5.19-6.92-1.37-14.85"/><line class="cls-42" x1="51.54" y1="180.97" x2="52.11" y2="194.87"/><path class="cls-42" d="M77.89,163.62l3.77,21.92a1,1,0,0,1-1,1.09L49.33,184.7"/><path class="cls-8" d="M97.84,180.3,95,193.83l-.12,4.43,17.4-.09a.76.76,0,0,0,.76-.77h0a.78.78,0,0,0-.49-.72L105,193.23l3.55-14.09"/><path class="cls-38" d="M113.78,198a2.32,2.32,0,0,0-.83-1.33l-8-3.42c-4.39,1.77-10.06.41-10.06.41l-1,6a.36.36,0,0,0,.36.36l19.37-.1C114,199.9,113.79,198,113.78,198Z"/><path class="cls-33" d="M106.72,193.58a9.16,9.16,0,0,0-1.12,1.88"/><path class="cls-33" d="M107.72,194.18a8.12,8.12,0,0,0-.92,1.6"/><path class="cls-33" d="M108.57,194.61a11.58,11.58,0,0,0-.87,1.47"/><line class="cls-33" x1="94.03" y1="198.71" x2="113.87" y2="198.61"/><path class="cls-33" d="M94.58,195.78s4.66.09,5.06,2.9"/><path class="cls-33" d="M111.32,196a15.62,15.62,0,0,0-1.54,2.67"/><path class="cls-41" d="M88.88,150.29l1,3.9a1.25,1.25,0,0,0,1.22.95h13.46c3.3,0,6.77.08,8.65,2.94,1.55,2.34,1,6.24-.28,10.72-1.11,3.85-5,21.37-5,21.37H94.07L98,169.25H82s-10.35.08-8.92-10.29"/><line class="cls-42" x1="94.44" y1="188" x2="108.32" y2="188"/><path class="cls-42" d="M83.89,169.25H82s-9.91,0-10-10.29"/><path class="cls-42" d="M82.79,153.63s.26,11.6,10,11.6h7.34a1.43,1.43,0,0,1,1.41,1.73l-4.84,23.17"/><path class="cls-42" d="M83.75,158.44a4.78,4.78,0,0,0,4-4.81"/><path class="cls-42" d="M75.29,160.09a16.54,16.54,0,0,0,4-.56"/><path class="cls-42" d="M65.15,160.09s1.95,0,3.43,0"/><path class="cls-8" d="M77,111.59s4.8-14.87,13.72-26.84L84.59,81c-9.65,10.47-16,28-16,28"/><path class="cls-34" d="M64.84,136.86s-2-18.36,5.56-33.75L79.32,106,77,117.79"/><line class="cls-43" x1="69.73" y1="104.84" x2="78.52" y2="107.89"/><path class="cls-8" d="M89.41,86.46c1.44-2.2,6.66-7.89,6.41-8.36s-2.12,1.5-2.25,1.07,2.52-3.67,2.14-4.07c-.51-.56-3.06,2.9-3.06,2.9s2.6-3.92,2-4.28c-.42-.24-2.54,2.66-3.49,3.67.89-1.22,2.1-3.38,1.67-3.63s-1.92,1.71-3.14,3.14c.68-1,1.81-2.79,1.42-3s-5.34,5-9.25,10.36"/><path class="cls-8" d="M82.88,132.19s9.13,3.5,15.82,3.94c8.79.57,19-2.7,19-2.7s1.34-7.22-2.17-6.87a67.05,67.05,0,0,1-17.45.66c-3.51-.43-11-4.43-11-4.43"/><path class="cls-8" d="M113.54,126.94c2.61-.34,10-2.59,10.31-2.15s-2.26,1.25-1.94,1.56,4.4-.69,4.6-.17c.28.7-3.94,1.5-3.94,1.5s4.67-.64,4.73,0c0,.48-3.5,1.13-4.82,1.55,1.49-.27,4-.43,4,.07s-2.36,1-4.18,1.47c1.16-.19,3.3-.43,3.35,0s-5.7,2.08-11.17,3.39"/><path class="cls-8" d="M73.43,115l-1.24,6.28s3.51,3.55,7.19.24l0-4.2Z"/><path class="cls-8" d="M80.08,109.05s3,6,1.14,8a2.61,2.61,0,0,1-3.65.46c-.94-.71-4.57-5-4.06-5.83C75.43,108.55,80.08,109.05,80.08,109.05Z"/><path class="cls-8" d="M81.28,112.43s1.1,1.1,1.1,1.83c0,.32-1.1.37-1.1.37"/><path class="cls-15" d="M81.22,115.25,79.28,115C79.18,115.7,80.63,117.54,81.22,115.25Z"/><path class="cls-16" d="M79.8,112.33a.77.77,0,0,0,0,.15l0,.15a.45.45,0,0,0,0,.11s0,0,0,.06l0,0a.23.23,0,0,0,.1.07.16.16,0,0,0,.19-.11.38.38,0,0,0,0-.1v0a1,1,0,0,1,0-.1v0a1.17,1.17,0,0,1,0-.2v0s0-.06,0-.08,0,0,0,0a.14.14,0,0,0-.13-.1.15.15,0,0,0-.14.1Z"/><path class="cls-17" d="M78.87,112a1.23,1.23,0,0,1,.92-.55.68.68,0,0,1,.46.11"/><path class="cls-9" d="M72.81,109.5c.32-2.13,2.49-2.57,6.52-2,.54.08,1.53-.2,1.74.3a2.36,2.36,0,0,1-.47,2.47c-.6.46-1.44.21-2.12.46-1.08.39-.54,1.43-1.12,2.2-1,1.27-.32,3.15-1.9,4.12a4.41,4.41,0,0,1-3.09.2.75.75,0,0,1-.36-.13c-.36-.28-.21-1.25-.32-1.67a13.06,13.06,0,0,1-.4-4.17C71.39,110.11,72.36,109.38,72.81,109.5Z"/><path class="cls-8" d="M77.4,113.26c-.21-1.25-1.15-.82-1.48-.38s.23,1.94.57,2.19c.71.52,1.32.52,1.43-.08"/><path class="cls-12" d="M79.28,118.13a7.29,7.29,0,0,1-2.21-1.1"/><path class="cls-34" d="M72.15,119.32S66.7,121.63,65,130.23c-.74,3.83.69,24.43.69,24.41,11.8,2.3,24.5-1.1,24.5-1.1s-1.46-13.42-2.12-18.48c-1.53-11.66-9.57-15.37-9.57-15.37Z"/><path class="cls-34" d="M78.52,119.69A32.83,32.83,0,0,1,86,121.78c2.92,1.39,9.47,4.58,9.47,4.58l-3.37,9.32-11.89-3.76"/><line class="cls-43" x1="87.97" y1="134.23" x2="81.28" y2="132.27"/><line class="cls-43" x1="93.4" y1="125.36" x2="90.21" y2="134.95"/><path class="cls-43" d="M65.6,153.18A77.86,77.86,0,0,0,90,152.29"/><path class="cls-8" d="M248.67,179.08l2.85,13.53-.46,4.44L234.25,197a.78.78,0,0,1-.77-.78h0a.76.76,0,0,1,.5-.71l7.5-3.45-3.54-14.1"/><path class="cls-10" d="M232.72,196.77a2.41,2.41,0,0,1,.83-1.33l8-3.42c4.38,1.78,10.06.42,10.06.42l.43,6a.36.36,0,0,1-.36.35l-18.79-.1C232.46,198.68,232.71,196.79,232.72,196.77Z"/><path class="cls-37" d="M239.79,192.36a9.93,9.93,0,0,1,1.12,1.88"/><path class="cls-37" d="M238.79,193a8.66,8.66,0,0,1,.92,1.6"/><path class="cls-37" d="M237.94,193.4a11.3,11.3,0,0,1,.86,1.47"/><line class="cls-37" x1="251.9" y1="197.49" x2="232.64" y2="197.39"/><path class="cls-37" d="M251.73,194.63s-4.46,0-4.86,2.83"/><path class="cls-37" d="M235.18,194.74a15,15,0,0,1,1.54,2.67"/><path class="cls-38" d="M242.64,130S231.88,154,232.45,162.55c.52,7.94,6.54,28,6.54,28l12.9-2.36s-6.16-24.83-5.84-27.4,8.19-20.24,8.19-20.24,3.05-4.16,2-11.32"/><path class="cls-33" d="M249.74,188.62s-6-25.06-5.7-27.63,7.78-19.91,7.78-19.91"/><line class="cls-33" x1="251.31" y1="185.86" x2="238.37" y2="188.46"/><path class="cls-8" d="M267.32,172.76l6,12.59,1.47,4.22-15.27,7.05a.76.76,0,0,1-1-.38h0a.76.76,0,0,1,.14-.86l5.33-6.3-6.88-12.82"/><path class="cls-10" d="M258.08,197.1a2.35,2.35,0,0,1,.19-1.56l5.75-6.47c4.72-.25,9.29-3.89,9.29-3.89l2.93,5.24a.35.35,0,0,1-.17.47L259,198.77C258.66,198.94,258.08,197.11,258.08,197.1Z"/><path class="cls-37" d="M262.61,190.11a8.89,8.89,0,0,1,1.81,1.23"/><path class="cls-37" d="M262,191.07a8.59,8.59,0,0,1,1.52,1.06"/><path class="cls-37" d="M261.37,191.83a12.08,12.08,0,0,1,1.41,1"/><line class="cls-37" x1="275.75" y1="189.61" x2="258.26" y2="197.69"/><path class="cls-37" d="M274.38,187.09s-4,1.92-3.2,4.64"/><path class="cls-37" d="M259.45,194.22A14.46,14.46,0,0,1,262,196"/><path class="cls-38" d="M251.15,130.7s-4.1,22.72-2.17,31c2.17,9.31,11.5,25.08,11.5,25.08L272.11,181s-10-19.17-10-23.31c0-2.59,2.3-18.53,2.3-18.53s2.3-4.63.05-11.5"/><path class="cls-33" d="M269.43,182.37s-10-18.74-10-24.07c0-2.59,1.59-14.66,2.3-18.54s2.09-8.36.05-11.5"/><path class="cls-33" d="M248.49,154c.61-6.39,1.33-15,2.3-22.59"/><path class="cls-33" d="M257.62,131.43s.79,1.95,5.06,3.09"/><path class="cls-33" d="M248.93,131.89s-.64,4.68-.27,5.3c.18.29,1.53.54,1.53.54"/><path class="cls-33" d="M241,133.73a5.88,5.88,0,0,0,4.06-1.58"/><line class="cls-33" x1="271.07" y1="179.02" x2="259.28" y2="184.73"/><path class="cls-10" d="M246.22,95.85s-4.89,1.41-5.59,10.78c-.67,3.84.93,25.21.93,25.19C253.4,133.87,266,130.2,266,130.2s-2.21-13.39-3.06-18.42c-2.11-12.63-10.84-15.31-10.84-15.31Z"/><path class="cls-8" d="M248.28,95.94a64.57,64.57,0,0,0-7.37-10.07c-5.88-6.54-14.76-12-14.76-12s-6,4.22-3.25,6.43c3.64,2.46,8.31,7.36,11.86,11.78,2.22,2.76,6.7,11.22,6.7,11.22"/><path class="cls-8" d="M224.59,81.38c-2.11-1.58-9-5.14-8.88-5.67s2.5.69,2.48.24-3.63-2.58-3.41-3.1c.29-.69,3.87,1.69,3.87,1.69s-3.79-2.8-3.36-3.33c.3-.38,3.29,1.63,4.53,2.25-1.26-.84-3.13-2.46-2.81-2.84s2.39.94,4,1.87c-1-.67-2.66-2-2.38-2.36s5.54,2.29,10.51,5.72"/><path class="cls-8" d="M257.25,111.55s-4.39,8.74-9.05,13.57c-6.11,6.34-15.86,10.79-15.86,10.79s-5.85-4.42-3-6.54a66.48,66.48,0,0,0,13.35-11.26c2.31-2.68,6-11.07,6-11.07"/><path class="cls-8" d="M231.05,128.32c-2.16,1.5-9.13,4.82-9.08,5.35s2.52-.6,2.49-.15-3.72,2.45-3.52,3c.27.71,3.93-1.54,3.93-1.54s-3.88,2.66-3.47,3.21c.29.38,3.35-1.52,4.6-2.1-1.28.8-3.21,2.35-2.9,2.74s2.42-.85,4.09-1.73c-1,.65-2.73,1.91-2.46,2.29s5.61-2.31,10.54-5"/><path class="cls-10" d="M248.48,104.78A102,102,0,0,1,244,115.7l8.77,4.62A36.14,36.14,0,0,0,259,108.17"/><path class="cls-37" d="M252.8,120.32s4.91-6.86,5.76-10.56"/><path class="cls-37" d="M244,115.7s3.26-6.32,3.95-9.38"/><path class="cls-10" d="M240.47,109.41c-.11-3.43-1.76-10.61-6.69-17.17l7.75-6.2s6.82,5.45,8.76,10.26"/><path class="cls-8" d="M244.69,86s-2,5.49-.21,7.27a4.42,4.42,0,0,0,4.76.17c.86-.68,2.12-4.9,1.64-5.64C249,84.93,244.69,86,244.69,86Z"/><path class="cls-14" d="M245.8,88.54s-1.06,1.3-1,1.69,1,.55,1,.55"/><path class="cls-15" d="M244.68,91.15l2.48.63a1.63,1.63,0,0,1-2,.8C244.24,92.27,244.68,91.15,244.68,91.15Z"/><path class="cls-16" d="M244.82,88a.25.25,0,0,0,0,.07l0,.08-.09.2a.09.09,0,0,0,0,.07.14.14,0,0,0,0,.07l0,0,.06,0a.25.25,0,0,0,.12,0,.23.23,0,0,0,.12-.09s0-.08,0-.12l0-.08,0-.08s0-.06,0-.09a.16.16,0,0,0-.1-.19.15.15,0,0,0-.2.07Z"/><path class="cls-17" d="M245.7,87.48a.66.66,0,0,0-.94-.21"/><path class="cls-16" d="M247.61,89l-.05.12,0,.08a.76.76,0,0,0-.06.16.2.2,0,0,0,0,.15.25.25,0,0,0,.12.08.17.17,0,0,0,.14,0l0,0a.22.22,0,0,0,.05-.08s0-.11,0-.16l0-.08a.28.28,0,0,0,0-.09.2.2,0,0,0,0-.13.16.16,0,0,0-.08-.06.14.14,0,0,0-.11,0,.18.18,0,0,0-.1.07Z"/><path class="cls-17" d="M247.6,88a1.24,1.24,0,0,1,1.2.65"/><path class="cls-8" d="M251.05,91l1.08,5.5s-4.15,3.11-6.45-.2l-.07-3.59Z"/><path class="cls-11" d="M253,90a4.23,4.23,0,0,1,.17-.58c.16-.47.42-.88.6-1.33a2.36,2.36,0,0,0-.71-2.66,4.12,4.12,0,0,1-.4-.33,3.2,3.2,0,0,1-.53-1,1.49,1.49,0,0,0-.6-.73c-.65-.34-1.52.13-2.16-.22-.14-.08-.26-.19-.39-.28a3,3,0,0,0-3-.17,3.13,3.13,0,0,0-1,.66c-.43.34-1,.32-1.46.64a1.93,1.93,0,0,0-.58,1.56,1.36,1.36,0,0,0,.1.6,1.09,1.09,0,0,0,.58.52,3.66,3.66,0,0,0,1.86.12c.6,0,1.3-.47,1.89-.25s.72.92,1.43,1c.28,0,.62,0,.78.19s.09.67.24,1a8.15,8.15,0,0,0,.57.78c.35.51.86.86.68,1.52-.13.46-.64,1.2-.43,1.69.14.32.85.31,1.39-.09a3.09,3.09,0,0,0,.85-1.86C252.93,90.47,253,90.25,253,90Z"/><path class="cls-8" d="M250.49,90.14c.53-.85,1-.79,1.36-.39s-.16,1.8-.48,2c-.63.49-1.19.51-1.31,0"/><path class="cls-12" d="M245.83,94.05a7.54,7.54,0,0,0,3.62-.88"/><path class="cls-37" d="M240.37,108.15s.14-5.37-.48-7"/><path class="cls-37" d="M245.15,97.25a4,4,0,0,0,3.62,1.64A5.08,5.08,0,0,0,253,96.82"/><path class="cls-8" d="M193.24,68.85c-.3,2.54-2.18,8.41-1.81,8.65s1.25-2,1.51-1.77-.73,3.67-.29,3.82c.59.2,1.38-3.18,1.38-3.18s-.65,3.72-.08,3.76c.4,0,1.08-2.67,1.4-3.71-.19,1.17-.48,3-.06,3s.89-1.58,1.24-3c-.13.92-.55,2.72-.17,2.76S198.15,75.12,199,70"/><path class="cls-8" d="M200.65,43.08c1.82,13.4-2.17,29.5-2.17,29.5l-5.54-1.19s2.08-14.54-.26-27.31"/><path class="cls-18" d="M189,31.14a12.5,12.5,0,0,1,7.76,2.74c3.69,2.9,4.61,9.58,4.61,9.58l-8.72,1.75s-.46-5.64-.53-7.57"/><path class="cls-19" d="M192.31,45.21a25,25,0,0,0-1.07-4.91"/><rect class="cls-44" x="248.47" y="28.42" width="11" height="11" transform="translate(220.01 -220.04) rotate(74.78)"/><rect class="cls-44" x="7.17" y="151.04" width="5.41" height="5.41" transform="translate(163.65 163.17) rotate(97.18)"/><circle class="cls-45" cx="278.25" cy="160.5" r="4.35" transform="translate(79.69 413) rotate(-81.79)"/><path class="cls-44" d="M107.39,11.66a2.18,2.18,0,1,1-2.17-2.17A2.17,2.17,0,0,1,107.39,11.66Z"/><path class="cls-44" d="M287.71,107.51a2.18,2.18,0,1,1-2.18-2.18A2.18,2.18,0,0,1,287.71,107.51Z"/><path class="cls-44" d="M289.89,152.4a2.18,2.18,0,1,1-2.18-2.17A2.19,2.19,0,0,1,289.89,152.4Z"/><path class="cls-45" d="M4.71,136.62a2.18,2.18,0,1,1-2.18-2.18A2.17,2.17,0,0,1,4.71,136.62Z"/><path class="cls-44" d="M57.29,19.69l.24,1.45a1.3,1.3,0,0,0,1.31,1.1l1,0a1.32,1.32,0,0,1,1.32,1.1l.15.95a1.31,1.31,0,0,0,1.31,1.1l1,0a1.29,1.29,0,0,1,1.31,1.09l.15,1a1.31,1.31,0,0,0,1.32,1.09l1.14,0"/><path class="cls-44" d="M15.57,114.84l-.45-1.4a1.3,1.3,0,0,0-1.47-.88l-.94.17a1.31,1.31,0,0,1-1.47-.89l-.3-.91a1.29,1.29,0,0,0-1.46-.88l-1,.16a1.3,1.3,0,0,1-1.47-.88l-.3-.92a1.31,1.31,0,0,0-1.47-.88l-1.12.2"/><path class="cls-44" d="M238.63,57.2l1.46-.12a1.3,1.3,0,0,0,1.19-1.23l.06-1a1.31,1.31,0,0,1,1.19-1.24l.95-.08a1.31,1.31,0,0,0,1.2-1.23l0-1a1.3,1.3,0,0,1,1.19-1.23l1-.08a1.3,1.3,0,0,0,1.19-1.23l.06-1.14"/><path class="cls-44" d="M283.74,78.34l-1.4.45a1.3,1.3,0,0,0-.89,1.46l.17,1a1.31,1.31,0,0,1-.89,1.47l-.91.29a1.3,1.3,0,0,0-.89,1.46l.16,1a1.31,1.31,0,0,1-.89,1.47l-.91.29a1.31,1.31,0,0,0-.89,1.47l.19,1.12"/><path class="cls-44" d="M291.67,141.82l1.22.82a1.29,1.29,0,0,0,1.7-.21l.64-.71a1.3,1.3,0,0,1,1.7-.22l.8.54a1.31,1.31,0,0,0,1.7-.21l.64-.72a1.31,1.31,0,0,1,1.7-.21l.8.54a1.31,1.31,0,0,0,1.7-.21l.76-.85"/><line class="cls-45" x1="278.93" y1="96.3" x2="273.9" y2="99.41"/><line class="cls-45" x1="228.15" y1="31.07" x2="223.53" y2="34.75"/><line class="cls-45" x1="125.33" y1="39.62" x2="119.57" y2="38.27"/><line class="cls-45" x1="16.32" y1="64.65" x2="11.94" y2="60.68"/></g></g></g></svg>